<svg width="120" height="120" viewBox="0 0 120 120" fill="none" xmlns="http://www.w3.org/2000/svg">
<rect x="55" y="15" width="5" height="5" fill="#1A5F20"/>
<rect x="60" y="20" width="5" height="5" fill="#1A5F20"/>
<rect x="75" y="20" width="5" height="5" fill="#1A5F20"/>
<rect x="30" y="25" width="5" height="5" fill="#1A5F20"/>
<rect x="35" y="25" width="5" height="5" fill="#4AA152"/>
<rect x="40" y="25" width="5" height="5" fill="#4AA152"/>
<rect x="45" y="25" width="5" height="5" fill="#1A5F20"/>
<rect x="80" y="25" width="5" height="5" fill="#1A5F20"/>
<rect x="55" y="25" width="5" height="5" fill="#1A5F20"/>
<rect x="60" y="25" width="5" height="5" fill="#4AA152"/>
<rect x="70" y="25" width="5" height="5" fill="#1A5F20"/>
<rect x="75" y="25" width="5" height="5" fill="#4AA152"/>
<rect x="25" y="30" width="5" height="5" fill="#09360D"/>
<rect x="30" y="30" width="5" height="5" fill="#09360D"/>
<rect x="35" y="30" width="5" height="5" fill="#09360D"/>
<rect x="40" y="30" width="5" height="5" fill="#1A5F20"/>
<rect x="45" y="30" width="5" height="5" fill="#4AA152"/>
<rect x="50" y="30" width="5" height="5" fill="#189A24"/>
<rect x="80" y="30" width="5" height="5" fill="#09360D"/>
<rect x="55" y="30" width="5" height="5" fill="#189A24"/>
<rect x="85" y="30" width="5" height="5" fill="#1A5F20"/>
<rect x="60" y="30" width="5" height="5" fill="#1A5F20"/>
<rect x="65" y="30" width="5" height="5" fill="#1A5F20"/>
<rect x="70" y="30" width="5" height="5" fill="#4AA152"/>
<rect x="75" y="30" width="5" height="5" fill="#1A5F20"/>
<rect x="20" y="35" width="5" height="5" fill="#1A5F20"/>
<rect x="45" y="35" width="5" height="5" fill="#1A5F20"/>
<rect x="50" y="35" width="5" height="5" fill="#4AA152"/>
<rect x="55" y="35" width="5" height="5" fill="#1A5F20"/>
<rect x="60" y="35" width="5" height="5" fill="#4AA152"/>
<rect x="65" y="35" width="5" height="5" fill="#189A24"/>
<rect x="70" y="35" width="5" height="5" fill="#1A5F20"/>
<rect x="75" y="35" width="5" height="5" fill="#09360D"/>
<rect x="35" y="40" width="5" height="5" fill="#5D1024"/>
<rect x="40" y="40" width="5" height="5" fill="#1A5F20"/>
<rect x="45" y="40" width="5" height="5" fill="#1A5F20"/>
<rect x="50" y="40" width="5" height="5" fill="#4AA152"/>
<rect x="55" y="40" width="5" height="5" fill="#821E38"/>
<rect x="60" y="40" width="5" height="5" fill="#821E38"/>
<rect x="65" y="40" width="5" height="5" fill="#09360D"/>
<rect x="70" y="40" width="5" height="5" fill="#4AA152"/>
<rect x="75" y="40" width="5" height="5" fill="#1A5F20"/>
<rect x="20" y="75" width="5" height="5" fill="#2D0711"/>
<rect x="25" y="75" width="5" height="5" fill="#5D1024"/>
<rect x="30" y="45" width="5" height="5" fill="#2D0711"/>
<rect x="30" y="75" width="5" height="5" fill="#5D1024"/>
<rect x="35" y="45" width="5" height="5" fill="#821E38"/>
<rect x="35" y="75" width="5" height="5" fill="#821E38"/>
<rect x="40" y="45" width="5" height="5" fill="#AF203E"/>
<rect x="40" y="75" width="5" height="5" fill="#821E38"/>
<rect x="45" y="45" width="5" height="5" fill="#09360D"/>
<rect x="45" y="75" width="5" height="5" fill="#821E38"/>
<rect x="50" y="45" width="5" height="5" fill="#AF203E"/>
<rect x="50" y="75" width="5" height="5" fill="#AF203E"/>
<rect x="80" y="45" width="5" height="5" fill="#2D0711"/>
<rect x="80" y="75" width="5" height="5" fill="#D64042"/>
<rect x="55" y="45" width="5" height="5" fill="#AF203E"/>
<rect x="55" y="75" width="5" height="5" fill="#D64042"/>
<rect x="85" y="45" width="5" height="5" fill="#2D0711"/>
<rect x="85" y="75" width="5" height="5" fill="#D64042"/>
<rect x="60" y="45" width="5" height="5" fill="#AF203E"/>
<rect x="60" y="75" width="5" height="5" fill="#D64042"/>
<rect x="90" y="75" width="5" height="5" fill="#D64042"/>
<rect x="65" y="45" width="5" height="5" fill="#821E38"/>
<rect x="65" y="75" width="5" height="5" fill="#D64042"/>
<rect x="95" y="75" width="5" height="5" fill="#D64042"/>
<rect x="70" y="45" width="5" height="5" fill="#821E38"/>
<rect x="70" y="75" width="5" height="5" fill="#D64042"/>
<rect x="75" y="45" width="5" height="5" fill="#821E38"/>
<rect x="75" y="75" width="5" height="5" fill="#D64042"/>
<rect x="20" y="80" width="5" height="5" fill="#2D0711"/>
<rect x="25" y="50" width="5" height="5" fill="#2D0711"/>
<rect x="25" y="80" width="5" height="5" fill="#5D1024"/>
<rect x="30" y="50" width="5" height="5" fill="#821E38"/>
<rect x="30" y="80" width="5" height="5" fill="#5D1024"/>
<rect x="35" y="50" width="5" height="5" fill="#821E38"/>
<rect x="35" y="80" width="5" height="5" fill="#5D1024"/>
<rect x="40" y="50" width="5" height="5" fill="#AF203E"/>
<rect x="40" y="80" width="5" height="5" fill="#821E38"/>
<rect x="45" y="50" width="5" height="5" fill="#AF203E"/>
<rect x="45" y="80" width="5" height="5" fill="#821E38"/>
<rect x="50" y="50" width="5" height="5" fill="#D64042"/>
<rect x="50" y="80" width="5" height="5" fill="#821E38"/>
<rect x="80" y="50" width="5" height="5" fill="#D64042"/>
<rect x="80" y="80" width="5" height="5" fill="#AF203E"/>
<rect x="55" y="50" width="5" height="5" fill="#D64042"/>
<rect x="55" y="80" width="5" height="5" fill="#AF203E"/>
<rect x="85" y="50" width="5" height="5" fill="#D64042"/>
<rect x="85" y="80" width="5" height="5" fill="#D64042"/>
<rect x="60" y="50" width="5" height="5" fill="#D64042"/>
<rect x="60" y="80" width="5" height="5" fill="#AF203E"/>
<rect x="90" y="50" width="5" height="5" fill="#2D0711"/>
<rect x="90" y="80" width="5" height="5" fill="#D64042"/>
<rect x="65" y="50" width="5" height="5" fill="#AF203E"/>
<rect x="65" y="80" width="5" height="5" fill="#AF203E"/>
<rect x="95" y="80" width="5" height="5" fill="#D64042"/>
<rect x="70" y="50" width="5" height="5" fill="#AF203E"/>
<rect x="70" y="80" width="5" height="5" fill="#AF203E"/>
<rect x="75" y="50" width="5" height="5" fill="#AF203E"/>
<rect x="75" y="80" width="5" height="5" fill="#AF203E"/>
<rect x="20" y="55" width="5" height="5" fill="#5D1024"/>
<rect x="25" y="55" width="5" height="5" fill="#5D1024"/>
<rect x="25" y="85" width="5" height="5" fill="#2D0711"/>
<rect x="30" y="55" width="5" height="5" fill="#821E38"/>
<rect x="30" y="85" width="5" height="5" fill="#821E38"/>
<rect x="35" y="55" width="5" height="5" fill="#821E38"/>
<rect x="35" y="85" width="5" height="5" fill="#5D1024"/>
<rect x="40" y="55" width="5" height="5" fill="#AF203E"/>
<rect x="40" y="85" width="5" height="5" fill="#5D1024"/>
<rect x="45" y="55" width="5" height="5" fill="#D64042"/>
<rect x="45" y="85" width="5" height="5" fill="#821E38"/>
<rect x="50" y="55" width="5" height="5" fill="#D64042"/>
<rect x="50" y="85" width="5" height="5" fill="#821E38"/>
<rect x="80" y="55" width="5" height="5" fill="#D64042"/>
<rect x="80" y="85" width="5" height="5" fill="#821E38"/>
<rect x="55" y="55" width="5" height="5" fill="#D64042"/>
<rect x="55" y="85" width="5" height="5" fill="#821E38"/>
<rect x="85" y="55" width="5" height="5" fill="#D64042"/>
<rect x="85" y="85" width="5" height="5" fill="#AF203E"/>
<rect x="60" y="55" width="5" height="5" fill="#D64042"/>
<rect x="60" y="85" width="5" height="5" fill="#821E38"/>
<rect x="90" y="55" width="5" height="5" fill="#EC6F46"/>
<rect x="90" y="85" width="5" height="5" fill="#AF203E"/>
<rect x="65" y="55" width="5" height="5" fill="#D64042"/>
<rect x="65" y="85" width="5" height="5" fill="#821E38"/>
<rect x="95" y="55" width="5" height="5" fill="#D64042"/>
<rect x="70" y="55" width="5" height="5" fill="#D64042"/>
<rect x="70" y="85" width="5" height="5" fill="#821E38"/>
<rect x="75" y="55" width="5" height="5" fill="#D64042"/>
<rect x="75" y="85" width="5" height="5" fill="#821E38"/>
<rect x="20" y="60" width="5" height="5" fill="#2D0711"/>
<rect x="25" y="60" width="5" height="5" fill="#5D1024"/>
<rect x="30" y="60" width="5" height="5" fill="#821E38"/>
<rect x="30" y="90" width="5" height="5" fill="#2D0711"/>
<rect x="35" y="60" width="5" height="5" fill="#821E38"/>
<rect x="35" y="90" width="5" height="5" fill="#821E38"/>
<rect x="40" y="60" width="5" height="5" fill="#AF203E"/>
<rect x="40" y="90" width="5" height="5" fill="#5D1024"/>
<rect x="45" y="60" width="5" height="5" fill="#D64042"/>
<rect x="45" y="90" width="5" height="5" fill="#5D1024"/>
<rect x="50" y="60" width="5" height="5" fill="#D64042"/>
<rect x="50" y="90" width="5" height="5" fill="#5D1024"/>
<rect x="80" y="60" width="5" height="5" fill="#D64042"/>
<rect x="80" y="90" width="5" height="5" fill="#821E38"/>
<rect x="55" y="60" width="5" height="5" fill="#D64042"/>
<rect x="55" y="90" width="5" height="5" fill="#821E38"/>
<rect x="85" y="60" width="5" height="5" fill="#ECB77B"/>
<rect x="85" y="90" width="5" height="5" fill="#821E38"/>
<rect x="60" y="60" width="5" height="5" fill="#D64042"/>
<rect x="60" y="90" width="5" height="5" fill="#821E38"/>
<rect x="90" y="60" width="5" height="5" fill="#D64042"/>
<rect x="65" y="60" width="5" height="5" fill="#D64042"/>
<rect x="65" y="90" width="5" height="5" fill="#821E38"/>
<rect x="95" y="60" width="5" height="5" fill="#D64042"/>
<rect x="70" y="60" width="5" height="5" fill="#D64042"/>
<rect x="70" y="90" width="5" height="5" fill="#821E38"/>
<rect x="75" y="60" width="5" height="5" fill="#D64042"/>
<rect x="75" y="90" width="5" height="5" fill="#821E38"/>
<rect x="20" y="65" width="5" height="5" fill="#2D0711"/>
<rect x="25" y="65" width="5" height="5" fill="#5D1024"/>
<rect x="30" y="65" width="5" height="5" fill="#821E38"/>
<rect x="35" y="65" width="5" height="5" fill="#821E38"/>
<rect x="35" y="95" width="5" height="5" fill="#2D0711"/>
<rect x="40" y="65" width="5" height="5" fill="#AF203E"/>
<rect x="40" y="95" width="5" height="5" fill="#821E38"/>
<rect x="45" y="65" width="5" height="5" fill="#D64042"/>
<rect x="45" y="95" width="5" height="5" fill="#2D0711"/>
<rect x="50" y="65" width="5" height="5" fill="#D64042"/>
<rect x="50" y="95" width="5" height="5" fill="#2D0711"/>
<rect x="80" y="65" width="5" height="5" fill="#EC6F46"/>
<rect x="80" y="95" width="5" height="5" fill="#2D0711"/>
<rect x="55" y="65" width="5" height="5" fill="#D64042"/>
<rect x="55" y="95" width="5" height="5" fill="#2D0711"/>
<rect x="85" y="65" width="5" height="5" fill="#EC6F46"/>
<rect x="60" y="65" width="5" height="5" fill="#D64042"/>
<rect x="60" y="95" width="5" height="5" fill="#5D1024"/>
<rect x="90" y="65" width="5" height="5" fill="#D64042"/>
<rect x="65" y="65" width="5" height="5" fill="#D64042"/>
<rect x="65" y="95" width="5" height="5" fill="#2D0711"/>
<rect x="95" y="65" width="5" height="5" fill="#D64042"/>
<rect x="70" y="65" width="5" height="5" fill="#EC6F46"/>
<rect x="70" y="95" width="5" height="5" fill="#821E38"/>
<rect x="75" y="65" width="5" height="5" fill="#D64042"/>
<rect x="75" y="95" width="5" height="5" fill="#2D0711"/>
<rect x="20" y="70" width="5" height="5" fill="#2D0711"/>
<rect x="25" y="70" width="5" height="5" fill="#5D1024"/>
<rect x="30" y="70" width="5" height="5" fill="#821E38"/>
<rect x="35" y="70" width="5" height="5" fill="#821E38"/>
<rect x="40" y="70" width="5" height="5" fill="#821E38"/>
<rect x="45" y="70" width="5" height="5" fill="#AF203E"/>
<rect x="50" y="70" width="5" height="5" fill="#D64042"/>
<rect x="80" y="70" width="5" height="5" fill="#D64042"/>
<rect x="55" y="70" width="5" height="5" fill="#D64042"/>
<rect x="85" y="70" width="5" height="5" fill="#D64042"/>
<rect x="60" y="70" width="5" height="5" fill="#D64042"/>
<rect x="90" y="70" width="5" height="5" fill="#D64042"/>
<rect x="65" y="70" width="5" height="5" fill="#D64042"/>
<rect x="95" y="70" width="5" height="5" fill="#D64042"/>
<rect x="70" y="70" width="5" height="5" fill="#D64042"/>
<rect x="75" y="70" width="5" height="5" fill="#D64042"/>
</svg>
