<svg width="100" height="100" viewBox="0 0 100 100" fill="none" xmlns="http://www.w3.org/2000/svg">
<rect x="33.3335" y="20.833" width="4.16667" height="4.16666" fill="#300908"/>
<rect x="37.5" y="20.833" width="4.16667" height="4.16666" fill="#300908"/>
<rect x="41.6665" y="20.833" width="4.16667" height="4.16666" fill="#300908"/>
<rect x="45.8335" y="20.833" width="4.16667" height="4.16666" fill="#300908"/>
<rect x="50" y="20.833" width="4.16667" height="4.16666" fill="#300908"/>
<rect x="54.1665" y="20.833" width="4.16667" height="4.16666" fill="#300908"/>
<rect x="58.3335" y="20.833" width="4.16667" height="4.16666" fill="#300908"/>
<rect x="62.5" y="20.833" width="4.16667" height="4.16666" fill="#300908"/>
<rect x="25" y="25" width="4.16667" height="4.16666" fill="#300908"/>
<rect x="29.1665" y="25" width="4.16667" height="4.16666" fill="#300908"/>
<rect x="33.3335" y="25" width="4.16667" height="4.16666" fill="#5F1C1A"/>
<rect x="37.5" y="25" width="4.16667" height="4.16666" fill="#5F1C1A"/>
<rect x="41.6665" y="25" width="4.16667" height="4.16666" fill="#5F1C1A"/>
<rect x="66.6665" y="25" width="4.16667" height="4.16666" fill="#5F1C1A"/>
<rect x="45.8335" y="25" width="4.16667" height="4.16666" fill="#5F1C1A"/>
<rect x="70.8335" y="25" width="4.16667" height="4.16666" fill="#300908"/>
<rect x="50" y="25" width="4.16667" height="4.16666" fill="#5F1C1A"/>
<rect x="54.1665" y="25" width="4.16667" height="4.16666" fill="#5F1C1A"/>
<rect x="58.3335" y="25" width="4.16667" height="4.16666" fill="#5F1C1A"/>
<rect x="62.5" y="25" width="4.16667" height="4.16666" fill="#5F1C1A"/>
<rect x="20.8335" y="29.167" width="4.16667" height="4.16666" fill="#300908"/>
<rect x="25" y="29.167" width="4.16667" height="4.16666" fill="#8C3C39"/>
<rect x="29.1665" y="29.167" width="4.16667" height="4.16666" fill="#5F1C1A"/>
<rect x="33.3335" y="29.167" width="4.16667" height="4.16666" fill="#5F1C1A"/>
<rect x="37.5" y="29.167" width="4.16667" height="4.16666" fill="#5F1C1A"/>
<rect x="41.6665" y="29.167" width="4.16667" height="4.16666" fill="#5F1C1A"/>
<rect x="66.6665" y="29.167" width="4.16667" height="4.16666" fill="#5F1C1A"/>
<rect x="45.8335" y="29.167" width="4.16667" height="4.16666" fill="#5F1C1A"/>
<rect x="70.8335" y="29.167" width="4.16667" height="4.16666" fill="#8C3C39"/>
<rect x="50" y="29.167" width="4.16667" height="4.16666" fill="#5F1C1A"/>
<rect x="75" y="29.167" width="4.16667" height="4.16666" fill="#300908"/>
<rect x="54.1665" y="29.167" width="4.16667" height="4.16666" fill="#5F1C1A"/>
<rect x="58.3335" y="29.167" width="4.16667" height="4.16666" fill="#5F1C1A"/>
<rect x="62.5" y="29.167" width="4.16667" height="4.16666" fill="#5F1C1A"/>
<rect x="16.6665" y="33.333" width="4.16667" height="4.16666" fill="#300908"/>
<rect x="20.8335" y="33.333" width="4.16667" height="4.16666" fill="#8C3C39"/>
<rect x="25" y="33.333" width="4.16667" height="4.16666" fill="#5F1C1A"/>
<rect x="29.1665" y="33.333" width="4.16667" height="4.16666" fill="#5F1C1A"/>
<rect x="33.3335" y="33.333" width="4.16667" height="4.16666" fill="#5F1C1A"/>
<rect x="37.5" y="33.333" width="4.16667" height="4.16666" fill="white"/>
<rect x="41.6665" y="33.333" width="4.16667" height="4.16666" fill="#5F1C1A"/>
<rect x="66.6665" y="33.333" width="4.16667" height="4.16666" fill="#5F1C1A"/>
<rect x="45.8335" y="33.333" width="4.16667" height="4.16666" fill="white"/>
<rect x="70.8335" y="33.333" width="4.16667" height="4.16666" fill="#5F1C1A"/>
<rect x="50" y="33.333" width="4.16667" height="4.16666" fill="#5F1C1A"/>
<rect x="75" y="33.333" width="4.16667" height="4.16666" fill="#8C3C39"/>
<rect x="54.1665" y="33.333" width="4.16667" height="4.16666" fill="#5F1C1A"/>
<rect x="79.1665" y="33.333" width="4.16667" height="4.16666" fill="#300908"/>
<rect x="58.3335" y="33.333" width="4.16667" height="4.16666" fill="#5F1C1A"/>
<rect x="62.5" y="33.333" width="4.16667" height="4.16666" fill="white"/>
<rect x="16.6665" y="37.5" width="4.16667" height="4.16666" fill="#300908"/>
<rect x="16.6665" y="62.5" width="4.16667" height="4.16666" fill="#300908"/>
<rect x="20.8335" y="37.5" width="4.16667" height="4.16666" fill="#8C3C39"/>
<rect x="20.8335" y="62.5" width="4.16667" height="4.16666" fill="#5F1C1A"/>
<rect x="25" y="37.5" width="4.16667" height="4.16666" fill="#5F1C1A"/>
<rect x="25" y="62.5" width="4.16667" height="4.16666" fill="#5F1C1A"/>
<rect x="29.1665" y="37.5" width="4.16667" height="4.16666" fill="#5F1C1A"/>
<rect x="29.1665" y="62.5" width="4.16667" height="4.16666" fill="#5F1C1A"/>
<rect x="33.3335" y="37.5" width="4.16667" height="4.16666" fill="#F1EEDB"/>
<rect x="33.3335" y="62.5" width="4.16667" height="4.16666" fill="#8C3C39"/>
<rect x="37.5" y="37.5" width="4.16667" height="4.16666" fill="#5F1C1A"/>
<rect x="37.5" y="62.5" width="4.16667" height="4.16666" fill="#8C3C39"/>
<rect x="41.6665" y="37.5" width="4.16667" height="4.16666" fill="white"/>
<rect x="41.6665" y="62.5" width="4.16667" height="4.16666" fill="#8C3C39"/>
<rect x="66.6665" y="37.5" width="4.16667" height="4.16666" fill="#5F1C1A"/>
<rect x="66.6665" y="62.5" width="4.16667" height="4.16666" fill="#5F1C1A"/>
<rect x="45.8335" y="37.5" width="4.16667" height="4.16666" fill="white"/>
<rect x="45.8335" y="62.5" width="4.16667" height="4.16666" fill="#8C3C39"/>
<rect x="70.8335" y="37.5" width="4.16667" height="4.16666" fill="#5F1C1A"/>
<rect x="70.8335" y="62.5" width="4.16667" height="4.16666" fill="#5F1C1A"/>
<rect x="50" y="37.5" width="4.16667" height="4.16666" fill="#5F1C1A"/>
<rect x="50" y="62.5" width="4.16667" height="4.16666" fill="#8C3C39"/>
<rect x="75" y="37.5" width="4.16667" height="4.16666" fill="#8C3C39"/>
<rect x="75" y="62.5" width="4.16667" height="4.16666" fill="#5F1C1A"/>
<rect x="54.1665" y="37.5" width="4.16667" height="4.16666" fill="white"/>
<rect x="54.1665" y="62.5" width="4.16667" height="4.16666" fill="#8C3C39"/>
<rect x="79.1665" y="37.5" width="4.16667" height="4.16666" fill="#300908"/>
<rect x="79.1665" y="62.5" width="4.16667" height="4.16666" fill="#300908"/>
<rect x="58.3335" y="37.5" width="4.16667" height="4.16666" fill="#5F1C1A"/>
<rect x="58.3335" y="62.5" width="4.16667" height="4.16666" fill="#8C3C39"/>
<rect x="62.5" y="37.5" width="4.16667" height="4.16666" fill="#5F1C1A"/>
<rect x="62.5" y="62.5" width="4.16667" height="4.16666" fill="#8C3C39"/>
<rect x="16.6665" y="41.667" width="4.16667" height="4.16666" fill="#300908"/>
<rect x="16.6665" y="66.667" width="4.16667" height="4.16666" fill="#300908"/>
<rect x="20.8335" y="41.667" width="4.16667" height="4.16666" fill="#8C3C39"/>
<rect x="20.8335" y="66.667" width="4.16667" height="4.16666" fill="#5F1C1A"/>
<rect x="25" y="41.667" width="4.16667" height="4.16666" fill="#5F1C1A"/>
<rect x="25" y="66.667" width="4.16667" height="4.16666" fill="#5F1C1A"/>
<rect x="29.1665" y="41.667" width="4.16667" height="4.16666" fill="#5F1C1A"/>
<rect x="29.1665" y="66.667" width="4.16667" height="4.16666" fill="#5F1C1A"/>
<rect x="33.3335" y="41.667" width="4.16667" height="4.16666" fill="#5F1C1A"/>
<rect x="33.3335" y="66.667" width="4.16667" height="4.16666" fill="#5F1C1A"/>
<rect x="37.5" y="41.667" width="4.16667" height="4.16666" fill="#F1EEDB"/>
<rect x="37.5" y="66.667" width="4.16667" height="4.16666" fill="#5F1C1A"/>
<rect x="41.6665" y="41.667" width="4.16667" height="4.16666" fill="white"/>
<rect x="41.6665" y="66.667" width="4.16667" height="4.16666" fill="#5F1C1A"/>
<rect x="66.6665" y="41.667" width="4.16667" height="4.16666" fill="#5F1C1A"/>
<rect x="66.6665" y="66.667" width="4.16667" height="4.16666" fill="#5F1C1A"/>
<rect x="45.8335" y="41.667" width="4.16667" height="4.16666" fill="white"/>
<rect x="45.8335" y="66.667" width="4.16667" height="4.16666" fill="#5F1C1A"/>
<rect x="70.8335" y="41.667" width="4.16667" height="4.16666" fill="white"/>
<rect x="70.8335" y="66.667" width="4.16667" height="4.16666" fill="#5F1C1A"/>
<rect x="50" y="41.667" width="4.16667" height="4.16666" fill="white"/>
<rect x="50" y="66.667" width="4.16667" height="4.16666" fill="#5F1C1A"/>
<rect x="75" y="41.667" width="4.16667" height="4.16666" fill="#8C3C39"/>
<rect x="75" y="66.667" width="4.16667" height="4.16666" fill="#5F1C1A"/>
<rect x="54.1665" y="41.667" width="4.16667" height="4.16666" fill="white"/>
<rect x="54.1665" y="66.667" width="4.16667" height="4.16666" fill="#5F1C1A"/>
<rect x="79.1665" y="41.667" width="4.16667" height="4.16666" fill="#300908"/>
<rect x="79.1665" y="66.667" width="4.16667" height="4.16666" fill="#300908"/>
<rect x="58.3335" y="41.667" width="4.16667" height="4.16666" fill="white"/>
<rect x="58.3335" y="66.667" width="4.16667" height="4.16666" fill="#5F1C1A"/>
<rect x="62.5" y="41.667" width="4.16667" height="4.16666" fill="#F1EEDB"/>
<rect x="62.5" y="66.667" width="4.16667" height="4.16666" fill="#5F1C1A"/>
<rect x="16.6665" y="45.833" width="4.16667" height="4.16666" fill="#300908"/>
<rect x="20.8335" y="45.833" width="4.16667" height="4.16666" fill="#8C3C39"/>
<rect x="20.8335" y="70.833" width="4.16667" height="4.16666" fill="#300908"/>
<rect x="25" y="45.833" width="4.16667" height="4.16666" fill="#5F1C1A"/>
<rect x="25" y="70.833" width="4.16667" height="4.16666" fill="#300908"/>
<rect x="29.1665" y="45.833" width="4.16667" height="4.16666" fill="white"/>
<rect x="29.1665" y="70.833" width="4.16667" height="4.16666" fill="#5F1C1A"/>
<rect x="33.3335" y="45.833" width="4.16667" height="4.16666" fill="white"/>
<rect x="33.3335" y="70.833" width="4.16667" height="4.16666" fill="#5F1C1A"/>
<rect x="37.5" y="45.833" width="4.16667" height="4.16666" fill="white"/>
<rect x="37.5" y="70.833" width="4.16667" height="4.16666" fill="#5F1C1A"/>
<rect x="41.6665" y="45.833" width="4.16667" height="4.16666" fill="#F1EEDB"/>
<rect x="41.6665" y="70.833" width="4.16667" height="4.16666" fill="#5F1C1A"/>
<rect x="66.6665" y="45.833" width="4.16667" height="4.16666" fill="white"/>
<rect x="66.6665" y="70.833" width="4.16667" height="4.16666" fill="#5F1C1A"/>
<rect x="45.8335" y="45.833" width="4.16667" height="4.16666" fill="white"/>
<rect x="45.8335" y="70.833" width="4.16667" height="4.16666" fill="#5F1C1A"/>
<rect x="70.8335" y="45.833" width="4.16667" height="4.16666" fill="#5F1C1A"/>
<rect x="70.8335" y="70.833" width="4.16667" height="4.16666" fill="#300908"/>
<rect x="50" y="45.833" width="4.16667" height="4.16666" fill="#F1EEDB"/>
<rect x="50" y="70.833" width="4.16667" height="4.16666" fill="#5F1C1A"/>
<rect x="75" y="45.833" width="4.16667" height="4.16666" fill="#8C3C39"/>
<rect x="75" y="70.833" width="4.16667" height="4.16666" fill="#300908"/>
<rect x="54.1665" y="45.833" width="4.16667" height="4.16666" fill="white"/>
<rect x="54.1665" y="70.833" width="4.16667" height="4.16666" fill="#5F1C1A"/>
<rect x="79.1665" y="45.833" width="4.16667" height="4.16666" fill="#300908"/>
<rect x="58.3335" y="45.833" width="4.16667" height="4.16666" fill="white"/>
<rect x="58.3335" y="70.833" width="4.16667" height="4.16666" fill="#5F1C1A"/>
<rect x="62.5" y="45.833" width="4.16667" height="4.16666" fill="#F1EEDB"/>
<rect x="62.5" y="70.833" width="4.16667" height="4.16666" fill="#5F1C1A"/>
<rect x="16.6665" y="50" width="4.16667" height="4.16666" fill="#300908"/>
<rect x="20.8335" y="50" width="4.16667" height="4.16666" fill="#8C3C39"/>
<rect x="25" y="50" width="4.16667" height="4.16666" fill="#F1EEDB"/>
<rect x="29.1665" y="50" width="4.16667" height="4.16666" fill="white"/>
<rect x="29.1665" y="75" width="4.16667" height="4.16666" fill="#300908"/>
<rect x="33.3335" y="50" width="4.16667" height="4.16666" fill="white"/>
<rect x="33.3335" y="75" width="4.16667" height="4.16666" fill="#300908"/>
<rect x="37.5" y="50" width="4.16667" height="4.16666" fill="white"/>
<rect x="37.5" y="75" width="4.16667" height="4.16666" fill="#5F1C1A"/>
<rect x="41.6665" y="50" width="4.16667" height="4.16666" fill="#F1EEDB"/>
<rect x="41.6665" y="75" width="4.16667" height="4.16666" fill="#5F1C1A"/>
<rect x="66.6665" y="50" width="4.16667" height="4.16666" fill="white"/>
<rect x="66.6665" y="75" width="4.16667" height="4.16666" fill="#300908"/>
<rect x="45.8335" y="50" width="4.16667" height="4.16666" fill="#F1EEDB"/>
<rect x="45.8335" y="75" width="4.16667" height="4.16666" fill="#5F1C1A"/>
<rect x="70.8335" y="50" width="4.16667" height="4.16666" fill="#F1EEDB"/>
<rect x="50" y="50" width="4.16667" height="4.16666" fill="white"/>
<rect x="50" y="75" width="4.16667" height="4.16666" fill="#5F1C1A"/>
<rect x="75" y="50" width="4.16667" height="4.16666" fill="#8C3C39"/>
<rect x="54.1665" y="50" width="4.16667" height="4.16666" fill="#F1EEDB"/>
<rect x="54.1665" y="75" width="4.16667" height="4.16666" fill="#5F1C1A"/>
<rect x="79.1665" y="50" width="4.16667" height="4.16666" fill="#300908"/>
<rect x="58.3335" y="50" width="4.16667" height="4.16666" fill="white"/>
<rect x="58.3335" y="75" width="4.16667" height="4.16666" fill="#5F1C1A"/>
<rect x="62.5" y="50" width="4.16667" height="4.16666" fill="white"/>
<rect x="62.5" y="75" width="4.16667" height="4.16666" fill="#300908"/>
<rect x="16.6665" y="54.167" width="4.16667" height="4.16666" fill="#300908"/>
<rect x="20.8335" y="54.167" width="4.16667" height="4.16666" fill="#5F1C1A"/>
<rect x="25" y="54.167" width="4.16667" height="4.16666" fill="#8C3C39"/>
<rect x="29.1665" y="54.167" width="4.16667" height="4.16666" fill="#F1EEDB"/>
<rect x="33.3335" y="54.167" width="4.16667" height="4.16666" fill="white"/>
<rect x="37.5" y="54.167" width="4.16667" height="4.16666" fill="white"/>
<rect x="37.5" y="79.167" width="4.16667" height="4.16666" fill="#300908"/>
<rect x="41.6665" y="54.167" width="4.16667" height="4.16666" fill="white"/>
<rect x="41.6665" y="79.167" width="4.16667" height="4.16666" fill="#300908"/>
<rect x="66.6665" y="54.167" width="4.16667" height="4.16666" fill="#F1EEDB"/>
<rect x="45.8335" y="54.167" width="4.16667" height="4.16666" fill="white"/>
<rect x="45.8335" y="79.167" width="4.16667" height="4.16666" fill="#300908"/>
<rect x="70.8335" y="54.167" width="4.16667" height="4.16666" fill="#8C3C39"/>
<rect x="50" y="54.167" width="4.16667" height="4.16666" fill="white"/>
<rect x="50" y="79.167" width="4.16667" height="4.16666" fill="#300908"/>
<rect x="75" y="54.167" width="4.16667" height="4.16666" fill="#8C3C39"/>
<rect x="54.1665" y="54.167" width="4.16667" height="4.16666" fill="white"/>
<rect x="54.1665" y="79.167" width="4.16667" height="4.16666" fill="#300908"/>
<rect x="79.1665" y="54.167" width="4.16667" height="4.16666" fill="#300908"/>
<rect x="58.3335" y="54.167" width="4.16667" height="4.16666" fill="#F1EEDB"/>
<rect x="58.3335" y="79.167" width="4.16667" height="4.16666" fill="#300908"/>
<rect x="62.5" y="54.167" width="4.16667" height="4.16666" fill="white"/>
<rect x="16.6665" y="58.333" width="4.16667" height="4.16666" fill="#300908"/>
<rect x="20.8335" y="58.333" width="4.16667" height="4.16666" fill="#5F1C1A"/>
<rect x="25" y="58.333" width="4.16667" height="4.16666" fill="#5F1C1A"/>
<rect x="29.1665" y="58.333" width="4.16667" height="4.16666" fill="#8C3C39"/>
<rect x="33.3335" y="58.333" width="4.16667" height="4.16666" fill="#C1BAA7"/>
<rect x="37.5" y="58.333" width="4.16667" height="4.16666" fill="#C1BAA7"/>
<rect x="41.6665" y="58.333" width="4.16667" height="4.16666" fill="white"/>
<rect x="66.6665" y="58.333" width="4.16667" height="4.16666" fill="#8C3C39"/>
<rect x="45.8335" y="58.333" width="4.16667" height="4.16666" fill="white"/>
<rect x="70.8335" y="58.333" width="4.16667" height="4.16666" fill="#5F1C1A"/>
<rect x="50" y="58.333" width="4.16667" height="4.16666" fill="white"/>
<rect x="75" y="58.333" width="4.16667" height="4.16666" fill="#5F1C1A"/>
<rect x="54.1665" y="58.333" width="4.16667" height="4.16666" fill="#F1EEDB"/>
<rect x="79.1665" y="58.333" width="4.16667" height="4.16666" fill="#300908"/>
<rect x="58.3335" y="58.333" width="4.16667" height="4.16666" fill="#F1EEDB"/>
<rect x="62.5" y="58.333" width="4.16667" height="4.16666" fill="#C1BAA7"/>
</svg>
