<svg width="88" height="88" viewBox="0 0 88 88" fill="none" xmlns="http://www.w3.org/2000/svg">
<rect x="40.3335" y="11" width="3.66667" height="3.66667" fill="#1A5F20"/>
<rect x="44" y="14.667" width="3.66667" height="3.66667" fill="#1A5F20"/>
<rect x="55" y="14.667" width="3.66667" height="3.66667" fill="#1A5F20"/>
<rect x="22" y="18.333" width="3.66667" height="3.66667" fill="#1A5F20"/>
<rect x="25.6665" y="18.333" width="3.66667" height="3.66667" fill="#4AA152"/>
<rect x="29.3335" y="18.333" width="3.66667" height="3.66667" fill="#4AA152"/>
<rect x="33" y="18.333" width="3.66667" height="3.66667" fill="#1A5F20"/>
<rect x="58.6665" y="18.333" width="3.66667" height="3.66667" fill="#1A5F20"/>
<rect x="40.3335" y="18.333" width="3.66667" height="3.66667" fill="#1A5F20"/>
<rect x="44" y="18.333" width="3.66667" height="3.66667" fill="#4AA152"/>
<rect x="51.3335" y="18.333" width="3.66667" height="3.66667" fill="#1A5F20"/>
<rect x="55" y="18.333" width="3.66667" height="3.66667" fill="#4AA152"/>
<rect x="18.3335" y="22" width="3.66667" height="3.66667" fill="#09360D"/>
<rect x="22" y="22" width="3.66667" height="3.66667" fill="#09360D"/>
<rect x="25.6665" y="22" width="3.66667" height="3.66667" fill="#09360D"/>
<rect x="29.3335" y="22" width="3.66667" height="3.66667" fill="#1A5F20"/>
<rect x="33" y="22" width="3.66667" height="3.66667" fill="#4AA152"/>
<rect x="36.6665" y="22" width="3.66667" height="3.66667" fill="#189A24"/>
<rect x="58.6665" y="22" width="3.66667" height="3.66667" fill="#09360D"/>
<rect x="40.3335" y="22" width="3.66667" height="3.66667" fill="#189A24"/>
<rect x="62.3335" y="22" width="3.66667" height="3.66667" fill="#1A5F20"/>
<rect x="44" y="22" width="3.66667" height="3.66667" fill="#1A5F20"/>
<rect x="47.6665" y="22" width="3.66667" height="3.66667" fill="#1A5F20"/>
<rect x="51.3335" y="22" width="3.66667" height="3.66667" fill="#4AA152"/>
<rect x="55" y="22" width="3.66667" height="3.66667" fill="#1A5F20"/>
<rect x="14.6665" y="25.667" width="3.66667" height="3.66667" fill="#1A5F20"/>
<rect x="33" y="25.667" width="3.66667" height="3.66667" fill="#1A5F20"/>
<rect x="36.6665" y="25.667" width="3.66667" height="3.66667" fill="#4AA152"/>
<rect x="40.3335" y="25.667" width="3.66667" height="3.66667" fill="#1A5F20"/>
<rect x="44" y="25.667" width="3.66667" height="3.66667" fill="#4AA152"/>
<rect x="47.6665" y="25.667" width="3.66667" height="3.66667" fill="#189A24"/>
<rect x="51.3335" y="25.667" width="3.66667" height="3.66667" fill="#1A5F20"/>
<rect x="55" y="25.667" width="3.66667" height="3.66667" fill="#09360D"/>
<rect x="25.6665" y="29.333" width="3.66667" height="3.66667" fill="#2D0711"/>
<rect x="29.3335" y="29.333" width="3.66667" height="3.66667" fill="#1A5F20"/>
<rect x="33" y="29.333" width="3.66667" height="3.66667" fill="#1A5F20"/>
<rect x="36.6665" y="29.333" width="3.66667" height="3.66667" fill="#4AA152"/>
<rect x="40.3335" y="29.333" width="3.66667" height="3.66667" fill="#821E38"/>
<rect x="44" y="29.333" width="3.66667" height="3.66667" fill="#821E38"/>
<rect x="47.6665" y="29.333" width="3.66667" height="3.66667" fill="#09360D"/>
<rect x="51.3335" y="29.333" width="3.66667" height="3.66667" fill="#4AA152"/>
<rect x="55" y="29.333" width="3.66667" height="3.66667" fill="#1A5F20"/>
<rect x="14.6665" y="55" width="3.66667" height="3.66667" fill="#2D0711"/>
<rect x="18.3335" y="55" width="3.66667" height="3.66667" fill="#5D1024"/>
<rect x="22" y="33" width="3.66667" height="3.66667" fill="#2D0711"/>
<rect x="22" y="55" width="3.66667" height="3.66667" fill="#5D1024"/>
<rect x="25.6665" y="33" width="3.66667" height="3.66667" fill="#821E38"/>
<rect x="25.6665" y="55" width="3.66667" height="3.66667" fill="#821E38"/>
<rect x="29.3335" y="33" width="3.66667" height="3.66667" fill="#AF203E"/>
<rect x="29.3335" y="55" width="3.66667" height="3.66667" fill="#821E38"/>
<rect x="33" y="33" width="3.66667" height="3.66667" fill="#09360D"/>
<rect x="33" y="55" width="3.66667" height="3.66667" fill="#821E38"/>
<rect x="36.6665" y="33" width="3.66667" height="3.66667" fill="#AF203E"/>
<rect x="36.6665" y="55" width="3.66667" height="3.66667" fill="#AF203E"/>
<rect x="58.6665" y="33" width="3.66667" height="3.66667" fill="#2D0711"/>
<rect x="58.6665" y="55" width="3.66667" height="3.66667" fill="#D64042"/>
<rect x="40.3335" y="33" width="3.66667" height="3.66667" fill="#AF203E"/>
<rect x="40.3335" y="55" width="3.66667" height="3.66667" fill="#D64042"/>
<rect x="62.3335" y="33" width="3.66667" height="3.66667" fill="#2D0711"/>
<rect x="62.3335" y="55" width="3.66667" height="3.66667" fill="#D64042"/>
<rect x="44" y="33" width="3.66667" height="3.66667" fill="#AF203E"/>
<rect x="44" y="55" width="3.66667" height="3.66667" fill="#D64042"/>
<rect x="66" y="55" width="3.66667" height="3.66667" fill="#D64042"/>
<rect x="47.6665" y="33" width="3.66667" height="3.66667" fill="#821E38"/>
<rect x="47.6665" y="55" width="3.66667" height="3.66667" fill="#D64042"/>
<rect x="69.6665" y="55" width="3.66667" height="3.66667" fill="#2D0711"/>
<rect x="51.3335" y="33" width="3.66667" height="3.66667" fill="#821E38"/>
<rect x="51.3335" y="55" width="3.66667" height="3.66667" fill="#D64042"/>
<rect x="55" y="33" width="3.66667" height="3.66667" fill="#821E38"/>
<rect x="55" y="55" width="3.66667" height="3.66667" fill="#D64042"/>
<rect x="14.6665" y="58.667" width="3.66667" height="3.66667" fill="#2D0711"/>
<rect x="18.3335" y="36.667" width="3.66667" height="3.66667" fill="#2D0711"/>
<rect x="18.3335" y="58.667" width="3.66667" height="3.66667" fill="#5D1024"/>
<rect x="22" y="36.667" width="3.66667" height="3.66667" fill="#821E38"/>
<rect x="22" y="58.667" width="3.66667" height="3.66667" fill="#5D1024"/>
<rect x="25.6665" y="36.667" width="3.66667" height="3.66667" fill="#821E38"/>
<rect x="25.6665" y="58.667" width="3.66667" height="3.66667" fill="#5D1024"/>
<rect x="29.3335" y="36.667" width="3.66667" height="3.66667" fill="#AF203E"/>
<rect x="29.3335" y="58.667" width="3.66667" height="3.66667" fill="#821E38"/>
<rect x="33" y="36.667" width="3.66667" height="3.66667" fill="#AF203E"/>
<rect x="33" y="58.667" width="3.66667" height="3.66667" fill="#821E38"/>
<rect x="36.6665" y="36.667" width="3.66667" height="3.66667" fill="#D64042"/>
<rect x="36.6665" y="58.667" width="3.66667" height="3.66667" fill="#821E38"/>
<rect x="58.6665" y="36.667" width="3.66667" height="3.66667" fill="#D64042"/>
<rect x="58.6665" y="58.667" width="3.66667" height="3.66667" fill="#AF203E"/>
<rect x="40.3335" y="36.667" width="3.66667" height="3.66667" fill="#D64042"/>
<rect x="40.3335" y="58.667" width="3.66667" height="3.66667" fill="#AF203E"/>
<rect x="62.3335" y="36.667" width="3.66667" height="3.66667" fill="#D64042"/>
<rect x="62.3335" y="58.667" width="3.66667" height="3.66667" fill="#D64042"/>
<rect x="44" y="36.667" width="3.66667" height="3.66667" fill="#D64042"/>
<rect x="44" y="58.667" width="3.66667" height="3.66667" fill="#AF203E"/>
<rect x="66" y="36.667" width="3.66667" height="3.66667" fill="#2D0711"/>
<rect x="66" y="58.667" width="3.66667" height="3.66667" fill="#D64042"/>
<rect x="47.6665" y="36.667" width="3.66667" height="3.66667" fill="#AF203E"/>
<rect x="47.6665" y="58.667" width="3.66667" height="3.66667" fill="#AF203E"/>
<rect x="69.6665" y="58.667" width="3.66667" height="3.66667" fill="#2D0711"/>
<rect x="51.3335" y="36.667" width="3.66667" height="3.66667" fill="#AF203E"/>
<rect x="51.3335" y="58.667" width="3.66667" height="3.66667" fill="#AF203E"/>
<rect x="55" y="36.667" width="3.66667" height="3.66667" fill="#AF203E"/>
<rect x="55" y="58.667" width="3.66667" height="3.66667" fill="#AF203E"/>
<rect x="14.6665" y="40.333" width="3.66667" height="3.66667" fill="#2D0711"/>
<rect x="18.3335" y="40.333" width="3.66667" height="3.66667" fill="#5D1024"/>
<rect x="18.3335" y="62.333" width="3.66667" height="3.66667" fill="#2D0711"/>
<rect x="22" y="40.333" width="3.66667" height="3.66667" fill="#821E38"/>
<rect x="22" y="62.333" width="3.66667" height="3.66667" fill="#821E38"/>
<rect x="25.6665" y="40.333" width="3.66667" height="3.66667" fill="#821E38"/>
<rect x="25.6665" y="62.333" width="3.66667" height="3.66667" fill="#5D1024"/>
<rect x="29.3335" y="40.333" width="3.66667" height="3.66667" fill="#AF203E"/>
<rect x="29.3335" y="62.333" width="3.66667" height="3.66667" fill="#5D1024"/>
<rect x="33" y="40.333" width="3.66667" height="3.66667" fill="#D64042"/>
<rect x="33" y="62.333" width="3.66667" height="3.66667" fill="#821E38"/>
<rect x="36.6665" y="40.333" width="3.66667" height="3.66667" fill="#D64042"/>
<rect x="36.6665" y="62.333" width="3.66667" height="3.66667" fill="#821E38"/>
<rect x="58.6665" y="40.333" width="3.66667" height="3.66667" fill="#D64042"/>
<rect x="58.6665" y="62.333" width="3.66667" height="3.66667" fill="#821E38"/>
<rect x="40.3335" y="40.333" width="3.66667" height="3.66667" fill="#D64042"/>
<rect x="40.3335" y="62.333" width="3.66667" height="3.66667" fill="#821E38"/>
<rect x="62.3335" y="40.333" width="3.66667" height="3.66667" fill="#D64042"/>
<rect x="62.3335" y="62.333" width="3.66667" height="3.66667" fill="#AF203E"/>
<rect x="44" y="40.333" width="3.66667" height="3.66667" fill="#D64042"/>
<rect x="44" y="62.333" width="3.66667" height="3.66667" fill="#821E38"/>
<rect x="66" y="40.333" width="3.66667" height="3.66667" fill="#EC6F46"/>
<rect x="66" y="62.333" width="3.66667" height="3.66667" fill="#2D0711"/>
<rect x="47.6665" y="40.333" width="3.66667" height="3.66667" fill="#D64042"/>
<rect x="47.6665" y="62.333" width="3.66667" height="3.66667" fill="#821E38"/>
<rect x="69.6665" y="40.333" width="3.66667" height="3.66667" fill="#2D0711"/>
<rect x="51.3335" y="40.333" width="3.66667" height="3.66667" fill="#D64042"/>
<rect x="51.3335" y="62.333" width="3.66667" height="3.66667" fill="#821E38"/>
<rect x="55" y="40.333" width="3.66667" height="3.66667" fill="#D64042"/>
<rect x="55" y="62.333" width="3.66667" height="3.66667" fill="#821E38"/>
<rect x="14.6665" y="44" width="3.66667" height="3.66667" fill="#2D0711"/>
<rect x="18.3335" y="44" width="3.66667" height="3.66667" fill="#5D1024"/>
<rect x="22" y="44" width="3.66667" height="3.66667" fill="#821E38"/>
<rect x="22" y="66" width="3.66667" height="3.66667" fill="#2D0711"/>
<rect x="25.6665" y="44" width="3.66667" height="3.66667" fill="#821E38"/>
<rect x="25.6665" y="66" width="3.66667" height="3.66667" fill="#821E38"/>
<rect x="29.3335" y="44" width="3.66667" height="3.66667" fill="#AF203E"/>
<rect x="29.3335" y="66" width="3.66667" height="3.66667" fill="#5D1024"/>
<rect x="33" y="44" width="3.66667" height="3.66667" fill="#D64042"/>
<rect x="33" y="66" width="3.66667" height="3.66667" fill="#5D1024"/>
<rect x="36.6665" y="44" width="3.66667" height="3.66667" fill="#D64042"/>
<rect x="36.6665" y="66" width="3.66667" height="3.66667" fill="#5D1024"/>
<rect x="58.6665" y="44" width="3.66667" height="3.66667" fill="#D64042"/>
<rect x="58.6665" y="66" width="3.66667" height="3.66667" fill="#821E38"/>
<rect x="40.3335" y="44" width="3.66667" height="3.66667" fill="#D64042"/>
<rect x="40.3335" y="66" width="3.66667" height="3.66667" fill="#821E38"/>
<rect x="62.3335" y="44" width="3.66667" height="3.66667" fill="#ECB77B"/>
<rect x="62.3335" y="66" width="3.66667" height="3.66667" fill="#2D0711"/>
<rect x="44" y="44" width="3.66667" height="3.66667" fill="#D64042"/>
<rect x="44" y="66" width="3.66667" height="3.66667" fill="#821E38"/>
<rect x="66" y="44" width="3.66667" height="3.66667" fill="#D64042"/>
<rect x="47.6665" y="44" width="3.66667" height="3.66667" fill="#D64042"/>
<rect x="47.6665" y="66" width="3.66667" height="3.66667" fill="#821E38"/>
<rect x="69.6665" y="44" width="3.66667" height="3.66667" fill="#2D0711"/>
<rect x="51.3335" y="44" width="3.66667" height="3.66667" fill="#D64042"/>
<rect x="51.3335" y="66" width="3.66667" height="3.66667" fill="#821E38"/>
<rect x="55" y="44" width="3.66667" height="3.66667" fill="#D64042"/>
<rect x="55" y="66" width="3.66667" height="3.66667" fill="#821E38"/>
<rect x="14.6665" y="47.667" width="3.66667" height="3.66667" fill="#2D0711"/>
<rect x="18.3335" y="47.667" width="3.66667" height="3.66667" fill="#5D1024"/>
<rect x="22" y="47.667" width="3.66667" height="3.66667" fill="#821E38"/>
<rect x="25.6665" y="47.667" width="3.66667" height="3.66667" fill="#821E38"/>
<rect x="25.6665" y="69.667" width="3.66667" height="3.66667" fill="#2D0711"/>
<rect x="29.3335" y="47.667" width="3.66667" height="3.66667" fill="#AF203E"/>
<rect x="29.3335" y="69.667" width="3.66667" height="3.66667" fill="#2D0711"/>
<rect x="33" y="47.667" width="3.66667" height="3.66667" fill="#D64042"/>
<rect x="33" y="69.667" width="3.66667" height="3.66667" fill="#2D0711"/>
<rect x="36.6665" y="47.667" width="3.66667" height="3.66667" fill="#D64042"/>
<rect x="36.6665" y="69.667" width="3.66667" height="3.66667" fill="#2D0711"/>
<rect x="58.6665" y="47.667" width="3.66667" height="3.66667" fill="#EC6F46"/>
<rect x="58.6665" y="69.667" width="3.66667" height="3.66667" fill="#2D0711"/>
<rect x="40.3335" y="47.667" width="3.66667" height="3.66667" fill="#D64042"/>
<rect x="40.3335" y="69.667" width="3.66667" height="3.66667" fill="#2D0711"/>
<rect x="62.3335" y="47.667" width="3.66667" height="3.66667" fill="#EC6F46"/>
<rect x="44" y="47.667" width="3.66667" height="3.66667" fill="#D64042"/>
<rect x="44" y="69.667" width="3.66667" height="3.66667" fill="#2D0711"/>
<rect x="66" y="47.667" width="3.66667" height="3.66667" fill="#D64042"/>
<rect x="47.6665" y="47.667" width="3.66667" height="3.66667" fill="#D64042"/>
<rect x="47.6665" y="69.667" width="3.66667" height="3.66667" fill="#2D0711"/>
<rect x="69.6665" y="47.667" width="3.66667" height="3.66667" fill="#2D0711"/>
<rect x="51.3335" y="47.667" width="3.66667" height="3.66667" fill="#EC6F46"/>
<rect x="51.3335" y="69.667" width="3.66667" height="3.66667" fill="#2D0711"/>
<rect x="55" y="47.667" width="3.66667" height="3.66667" fill="#D64042"/>
<rect x="55" y="69.667" width="3.66667" height="3.66667" fill="#2D0711"/>
<rect x="14.6665" y="51.333" width="3.66667" height="3.66667" fill="#2D0711"/>
<rect x="18.3335" y="51.333" width="3.66667" height="3.66667" fill="#5D1024"/>
<rect x="22" y="51.333" width="3.66667" height="3.66667" fill="#821E38"/>
<rect x="25.6665" y="51.333" width="3.66667" height="3.66667" fill="#821E38"/>
<rect x="29.3335" y="51.333" width="3.66667" height="3.66667" fill="#821E38"/>
<rect x="33" y="51.333" width="3.66667" height="3.66667" fill="#AF203E"/>
<rect x="36.6665" y="51.333" width="3.66667" height="3.66667" fill="#D64042"/>
<rect x="58.6665" y="51.333" width="3.66667" height="3.66667" fill="#D64042"/>
<rect x="40.3335" y="51.333" width="3.66667" height="3.66667" fill="#D64042"/>
<rect x="62.3335" y="51.333" width="3.66667" height="3.66667" fill="#D64042"/>
<rect x="44" y="51.333" width="3.66667" height="3.66667" fill="#D64042"/>
<rect x="66" y="51.333" width="3.66667" height="3.66667" fill="#D64042"/>
<rect x="47.6665" y="51.333" width="3.66667" height="3.66667" fill="#D64042"/>
<rect x="69.6665" y="51.333" width="3.66667" height="3.66667" fill="#2D0711"/>
<rect x="51.3335" y="51.333" width="3.66667" height="3.66667" fill="#D64042"/>
<rect x="55" y="51.333" width="3.66667" height="3.66667" fill="#D64042"/>
</svg>
