<svg width="120" height="121" viewBox="0 0 120 121" fill="none" xmlns="http://www.w3.org/2000/svg">
<rect x="30" y="15.637" width="5" height="5" fill="#333A18"/>
<rect x="35" y="15.637" width="5" height="5" fill="#333A18"/>
<rect x="40" y="15.637" width="5" height="5" fill="#333A18"/>
<rect x="25" y="20.637" width="5" height="5" fill="#333A18"/>
<rect x="30" y="20.637" width="5" height="5" fill="#B6C63F"/>
<rect x="35" y="20.637" width="5" height="5" fill="#B6C63F"/>
<rect x="40" y="20.637" width="5" height="5" fill="#B6C63F"/>
<rect x="45" y="20.637" width="5" height="5" fill="#333A18"/>
<rect x="20" y="25.637" width="5" height="5" fill="#333A18"/>
<rect x="25" y="25.637" width="5" height="5" fill="#333A18"/>
<rect x="30" y="25.637" width="5" height="5" fill="#B6C63F"/>
<rect x="35" y="25.637" width="5" height="5" fill="#F7F086"/>
<rect x="40" y="25.637" width="5" height="5" fill="#F7F086"/>
<rect x="45" y="25.637" width="5" height="5" fill="#B6C63F"/>
<rect x="50" y="25.637" width="5" height="5" fill="#333A18"/>
<rect x="55" y="25.637" width="5" height="5" fill="#333A18"/>
<rect x="20" y="30.637" width="5" height="5" fill="#333A18"/>
<rect x="25" y="30.637" width="5" height="5" fill="#333A18"/>
<rect x="30" y="30.637" width="5" height="5" fill="#B6C63F"/>
<rect x="35" y="30.637" width="5" height="5" fill="#F7F086"/>
<rect x="40" y="30.637" width="5" height="5" fill="#F7F086"/>
<rect x="45" y="30.637" width="5" height="5" fill="#F7F086"/>
<rect x="50" y="30.637" width="5" height="5" fill="#B6C63F"/>
<rect x="55" y="30.637" width="5" height="5" fill="#B6C63F"/>
<rect x="60" y="30.637" width="5" height="5" fill="#333A18"/>
<rect x="65" y="30.637" width="5" height="5" fill="#333A18"/>
<rect x="15" y="35.637" width="5" height="5" fill="#333A18"/>
<rect x="20" y="35.637" width="5" height="5" fill="#333A18"/>
<rect x="25" y="35.637" width="5" height="5" fill="#333A18"/>
<rect x="30" y="35.637" width="5" height="5" fill="#B6C63F"/>
<rect x="35" y="35.637" width="5" height="5" fill="#F7F086"/>
<rect x="40" y="35.637" width="5" height="5" fill="#F7F086"/>
<rect x="45" y="35.637" width="5" height="5" fill="#F7F086"/>
<rect x="50" y="35.637" width="5" height="5" fill="#F7F086"/>
<rect x="55" y="35.637" width="5" height="5" fill="#F7F086"/>
<rect x="60" y="35.637" width="5" height="5" fill="#B6C63F"/>
<rect x="65" y="35.637" width="5" height="5" fill="#B6C63F"/>
<rect x="70" y="35.637" width="5" height="5" fill="#333A18"/>
<rect x="75" y="35.637" width="5" height="5" fill="#333A18"/>
<rect x="15" y="40.637" width="5" height="5" fill="#333A18"/>
<rect x="20" y="40.637" width="5" height="5" fill="#333A18"/>
<rect x="25" y="40.637" width="5" height="5" fill="#333A18"/>
<rect x="30" y="40.637" width="5" height="5" fill="#B6C63F"/>
<rect x="35" y="40.637" width="5" height="5" fill="#F7F086"/>
<rect x="40" y="40.637" width="5" height="5" fill="#F7F086"/>
<rect x="45" y="40.637" width="5" height="5" fill="#F7F086"/>
<rect x="50" y="40.637" width="5" height="5" fill="#F7F086"/>
<rect x="80" y="40.637" width="5" height="5" fill="#333A18"/>
<rect x="55" y="40.637" width="5" height="5" fill="#F7F086"/>
<rect x="60" y="40.637" width="5" height="5" fill="#F7F086"/>
<rect x="65" y="40.637" width="5" height="5" fill="#F7F086"/>
<rect x="70" y="40.637" width="5" height="5" fill="#B6C63F"/>
<rect x="75" y="40.637" width="5" height="5" fill="#B6C63F"/>
<rect x="15" y="45.637" width="5" height="5" fill="#191D0C"/>
<rect x="20" y="45.637" width="5" height="5" fill="#333A18"/>
<rect x="25" y="45.637" width="5" height="5" fill="#333A18"/>
<rect x="25" y="75.637" width="5" height="5" fill="#191D0C"/>
<rect x="30" y="45.637" width="5" height="5" fill="#333A18"/>
<rect x="30" y="75.637" width="5" height="5" fill="#333A18"/>
<rect x="35" y="45.637" width="5" height="5" fill="#B6C63F"/>
<rect x="35" y="75.637" width="5" height="5" fill="#333A18"/>
<rect x="40" y="45.637" width="5" height="5" fill="#F7F086"/>
<rect x="40" y="75.637" width="5" height="5" fill="#333A18"/>
<rect x="45" y="45.637" width="5" height="5" fill="#F7F086"/>
<rect x="45" y="75.637" width="5" height="5" fill="#B6C63F"/>
<rect x="50" y="45.637" width="5" height="5" fill="#F7F086"/>
<rect x="50" y="75.637" width="5" height="5" fill="#B6C63F"/>
<rect x="80" y="45.637" width="5" height="5" fill="#B6C63F"/>
<rect x="80" y="75.637" width="5" height="5" fill="#F7F086"/>
<rect x="55" y="45.637" width="5" height="5" fill="#F7F086"/>
<rect x="55" y="75.637" width="5" height="5" fill="#F7F086"/>
<rect x="85" y="45.637" width="5" height="5" fill="#333A18"/>
<rect x="85" y="75.637" width="5" height="5" fill="#F7F086"/>
<rect x="60" y="45.637" width="5" height="5" fill="#F7F086"/>
<rect x="60" y="75.637" width="5" height="5" fill="#F7F086"/>
<rect x="90" y="75.637" width="5" height="5" fill="#F7F086"/>
<rect x="65" y="45.637" width="5" height="5" fill="#F7F086"/>
<rect x="65" y="75.637" width="5" height="5" fill="#F7F086"/>
<rect x="95" y="75.637" width="5" height="5" fill="#B6C63F"/>
<rect x="70" y="45.637" width="5" height="5" fill="#F7F086"/>
<rect x="70" y="75.637" width="5" height="5" fill="#49241C"/>
<rect x="100" y="75.637" width="5" height="5" fill="#333A18"/>
<rect x="75" y="45.637" width="5" height="5" fill="#F7F086"/>
<rect x="75" y="75.637" width="5" height="5" fill="#49241C"/>
<rect x="15" y="50.637" width="5" height="5" fill="#191D0C"/>
<rect x="20" y="50.637" width="5" height="5" fill="#333A18"/>
<rect x="25" y="50.637" width="5" height="5" fill="#333A18"/>
<rect x="30" y="50.637" width="5" height="5" fill="#333A18"/>
<rect x="30" y="80.637" width="5" height="5" fill="#191D0C"/>
<rect x="35" y="50.637" width="5" height="5" fill="#B6C63F"/>
<rect x="35" y="80.637" width="5" height="5" fill="#333A18"/>
<rect x="40" y="50.637" width="5" height="5" fill="#F7F086"/>
<rect x="40" y="80.637" width="5" height="5" fill="#333A18"/>
<rect x="45" y="50.637" width="5" height="5" fill="#F7F086"/>
<rect x="45" y="80.637" width="5" height="5" fill="#333A18"/>
<rect x="50" y="50.637" width="5" height="5" fill="#F7F086"/>
<rect x="50" y="80.637" width="5" height="5" fill="#B6C63F"/>
<rect x="80" y="50.637" width="5" height="5" fill="#F7F086"/>
<rect x="80" y="80.637" width="5" height="5" fill="#F7F086"/>
<rect x="55" y="50.637" width="5" height="5" fill="#F7F086"/>
<rect x="55" y="80.637" width="5" height="5" fill="#B6C63F"/>
<rect x="85" y="50.637" width="5" height="5" fill="#B6C63F"/>
<rect x="85" y="80.637" width="5" height="5" fill="#F7F086"/>
<rect x="60" y="50.637" width="5" height="5" fill="#F7F086"/>
<rect x="60" y="80.637" width="5" height="5" fill="#F7F086"/>
<rect x="90" y="50.637" width="5" height="5" fill="#333A18"/>
<rect x="90" y="80.637" width="5" height="5" fill="#B6C63F"/>
<rect x="65" y="50.637" width="5" height="5" fill="#6D3023"/>
<rect x="65" y="80.637" width="5" height="5" fill="#F7F086"/>
<rect x="95" y="80.637" width="5" height="5" fill="#B6C63F"/>
<rect x="70" y="50.637" width="5" height="5" fill="#AE6251"/>
<rect x="70" y="80.637" width="5" height="5" fill="#F7F086"/>
<rect x="100" y="80.637" width="5" height="5" fill="#333A18"/>
<rect x="75" y="50.637" width="5" height="5" fill="#F7F086"/>
<rect x="75" y="80.637" width="5" height="5" fill="#F7F086"/>
<rect x="20" y="55.637" width="5" height="5" fill="#191D0C"/>
<rect x="25" y="55.637" width="5" height="5" fill="#333A18"/>
<rect x="30" y="55.637" width="5" height="5" fill="#333A18"/>
<rect x="35" y="55.637" width="5" height="5" fill="#333A18"/>
<rect x="35" y="85.637" width="5" height="5" fill="#191D0C"/>
<rect x="40" y="55.637" width="5" height="5" fill="#B6C63F"/>
<rect x="40" y="85.637" width="5" height="5" fill="#333A18"/>
<rect x="45" y="55.637" width="5" height="5" fill="#F7F086"/>
<rect x="45" y="85.637" width="5" height="5" fill="#333A18"/>
<rect x="50" y="55.637" width="5" height="5" fill="#F7F086"/>
<rect x="50" y="85.637" width="5" height="5" fill="#333A18"/>
<rect x="80" y="55.637" width="5" height="5" fill="#F7F086"/>
<rect x="80" y="85.637" width="5" height="5" fill="#F7F086"/>
<rect x="55" y="55.637" width="5" height="5" fill="#F7F086"/>
<rect x="55" y="85.637" width="5" height="5" fill="#B6C63F"/>
<rect x="85" y="55.637" width="5" height="5" fill="#F7F086"/>
<rect x="85" y="85.637" width="5" height="5" fill="#B6C63F"/>
<rect x="60" y="55.637" width="5" height="5" fill="#6D3023"/>
<rect x="60" y="85.637" width="5" height="5" fill="#B6C63F"/>
<rect x="90" y="55.637" width="5" height="5" fill="#B6C63F"/>
<rect x="90" y="85.637" width="5" height="5" fill="#B6C63F"/>
<rect x="65" y="55.637" width="5" height="5" fill="#6D3023"/>
<rect x="65" y="85.637" width="5" height="5" fill="#F7F086"/>
<rect x="95" y="55.637" width="5" height="5" fill="#333A18"/>
<rect x="95" y="85.637" width="5" height="5" fill="#333A18"/>
<rect x="70" y="55.637" width="5" height="5" fill="#6D3023"/>
<rect x="70" y="85.637" width="5" height="5" fill="#F7F086"/>
<rect x="75" y="55.637" width="5" height="5" fill="#AE6251"/>
<rect x="75" y="85.637" width="5" height="5" fill="#F7F086"/>
<rect x="20" y="60.637" width="5" height="5" fill="#191D0C"/>
<rect x="25" y="60.637" width="5" height="5" fill="#333A18"/>
<rect x="30" y="60.637" width="5" height="5" fill="#333A18"/>
<rect x="35" y="60.637" width="5" height="5" fill="#333A18"/>
<rect x="35" y="90.637" width="5" height="5" fill="#191D0C"/>
<rect x="40" y="60.637" width="5" height="5" fill="#B6C63F"/>
<rect x="40" y="90.637" width="5" height="5" fill="#191D0C"/>
<rect x="45" y="60.637" width="5" height="5" fill="#F7F086"/>
<rect x="45" y="90.637" width="5" height="5" fill="#333A18"/>
<rect x="50" y="60.637" width="5" height="5" fill="#F7F086"/>
<rect x="50" y="90.637" width="5" height="5" fill="#333A18"/>
<rect x="80" y="60.637" width="5" height="5" fill="#AE6251"/>
<rect x="80" y="90.637" width="5" height="5" fill="#B6C63F"/>
<rect x="55" y="60.637" width="5" height="5" fill="#F7F086"/>
<rect x="55" y="90.637" width="5" height="5" fill="#333A18"/>
<rect x="85" y="60.637" width="5" height="5" fill="#F7F086"/>
<rect x="85" y="90.637" width="5" height="5" fill="#B6C63F"/>
<rect x="60" y="60.637" width="5" height="5" fill="#6D3023"/>
<rect x="60" y="90.637" width="5" height="5" fill="#B6C63F"/>
<rect x="90" y="60.637" width="5" height="5" fill="#B6C63F"/>
<rect x="90" y="90.637" width="5" height="5" fill="#333A18"/>
<rect x="65" y="60.637" width="5" height="5" fill="#6D3023"/>
<rect x="65" y="90.637" width="5" height="5" fill="#B6C63F"/>
<rect x="95" y="60.637" width="5" height="5" fill="#333A18"/>
<rect x="70" y="60.637" width="5" height="5" fill="#6D3023"/>
<rect x="70" y="90.637" width="5" height="5" fill="#B6C63F"/>
<rect x="75" y="60.637" width="5" height="5" fill="#6D3023"/>
<rect x="75" y="90.637" width="5" height="5" fill="#B6C63F"/>
<rect x="25" y="65.637" width="5" height="5" fill="#191D0C"/>
<rect x="30" y="65.637" width="5" height="5" fill="#333A18"/>
<rect x="35" y="65.637" width="5" height="5" fill="#333A18"/>
<rect x="40" y="65.637" width="5" height="5" fill="#B6C63F"/>
<rect x="45" y="65.637" width="5" height="5" fill="#B6C63F"/>
<rect x="45" y="95.637" width="5" height="5" fill="#191D0C"/>
<rect x="50" y="65.637" width="5" height="5" fill="#F7F086"/>
<rect x="50" y="95.637" width="5" height="5" fill="#191D0C"/>
<rect x="80" y="65.637" width="5" height="5" fill="#AE6251"/>
<rect x="80" y="95.637" width="5" height="5" fill="#333A18"/>
<rect x="55" y="65.637" width="5" height="5" fill="#F7F086"/>
<rect x="55" y="95.637" width="5" height="5" fill="#333A18"/>
<rect x="85" y="65.637" width="5" height="5" fill="#F7F086"/>
<rect x="85" y="95.637" width="5" height="5" fill="#191D0C"/>
<rect x="60" y="65.637" width="5" height="5" fill="#6D3023"/>
<rect x="60" y="95.637" width="5" height="5" fill="#333A18"/>
<rect x="90" y="65.637" width="5" height="5" fill="#F7F086"/>
<rect x="65" y="65.637" width="5" height="5" fill="#6D3023"/>
<rect x="65" y="95.637" width="5" height="5" fill="#333A18"/>
<rect x="95" y="65.637" width="5" height="5" fill="#B6C63F"/>
<rect x="70" y="65.637" width="5" height="5" fill="#6D3023"/>
<rect x="70" y="95.637" width="5" height="5" fill="#333A18"/>
<rect x="100" y="65.637" width="5" height="5" fill="#333A18"/>
<rect x="75" y="65.637" width="5" height="5" fill="#6D3023"/>
<rect x="75" y="95.637" width="5" height="5" fill="#333A18"/>
<rect x="25" y="70.637" width="5" height="5" fill="#191D0C"/>
<rect x="30" y="70.637" width="5" height="5" fill="#333A18"/>
<rect x="35" y="70.637" width="5" height="5" fill="#333A18"/>
<rect x="40" y="70.637" width="5" height="5" fill="#333A18"/>
<rect x="45" y="70.637" width="5" height="5" fill="#B6C63F"/>
<rect x="50" y="70.637" width="5" height="5" fill="#F7F086"/>
<rect x="50" y="100.637" width="5" height="5" fill="#191D0C"/>
<rect x="80" y="70.637" width="5" height="5" fill="#6D3023"/>
<rect x="80" y="100.637" width="5" height="5" fill="#191D0C"/>
<rect x="55" y="70.637" width="5" height="5" fill="#F7F086"/>
<rect x="55" y="100.637" width="5" height="5" fill="#191D0C"/>
<rect x="85" y="70.637" width="5" height="5" fill="#F7F086"/>
<rect x="60" y="70.637" width="5" height="5" fill="#F7F086"/>
<rect x="60" y="100.637" width="5" height="5" fill="#191D0C"/>
<rect x="90" y="70.637" width="5" height="5" fill="#F7F086"/>
<rect x="65" y="70.637" width="5" height="5" fill="#49241C"/>
<rect x="65" y="100.637" width="5" height="5" fill="#191D0C"/>
<rect x="95" y="70.637" width="5" height="5" fill="#B6C63F"/>
<rect x="70" y="70.637" width="5" height="5" fill="#6D3023"/>
<rect x="70" y="100.637" width="5" height="5" fill="#191D0C"/>
<rect x="100" y="70.637" width="5" height="5" fill="#333A18"/>
<rect x="75" y="70.637" width="5" height="5" fill="#6D3023"/>
<rect x="75" y="100.637" width="5" height="5" fill="#191D0C"/>
</svg>
