<svg width="120" height="121" viewBox="0 0 120 121" fill="none" xmlns="http://www.w3.org/2000/svg">
<rect x="80" y="20.9746" width="5" height="5" fill="#DF742C"/>
<rect x="70" y="20.9746" width="5" height="5" fill="#DF742C"/>
<rect x="75" y="20.9746" width="5" height="5" fill="#DF742C"/>
<rect x="80" y="25.9746" width="5" height="5" fill="#FEBE5D"/>
<rect x="85" y="25.9746" width="5" height="5" fill="#DF742C"/>
<rect x="60" y="25.9746" width="5" height="5" fill="#AF4D0B"/>
<rect x="65" y="25.9746" width="5" height="5" fill="#DF742C"/>
<rect x="70" y="25.9746" width="5" height="5" fill="#FEBE5D"/>
<rect x="75" y="25.9746" width="5" height="5" fill="#DF742C"/>
<rect x="45" y="30.9746" width="5" height="5" fill="#3D1B0A"/>
<rect x="80" y="30.9746" width="5" height="5" fill="#FCDA5B"/>
<rect x="55" y="30.9746" width="5" height="5" fill="#AF4D0B"/>
<rect x="85" y="30.9746" width="5" height="5" fill="#DF742C"/>
<rect x="60" y="30.9746" width="5" height="5" fill="#FEBE5D"/>
<rect x="65" y="30.9746" width="5" height="5" fill="#FEBE5D"/>
<rect x="70" y="30.9746" width="5" height="5" fill="#DF742C"/>
<rect x="75" y="30.9746" width="5" height="5" fill="#FEBE5D"/>
<rect x="40" y="35.9746" width="5" height="5" fill="#3D1B0A"/>
<rect x="45" y="35.9746" width="5" height="5" fill="#3D1B0A"/>
<rect x="50" y="35.9746" width="5" height="5" fill="#3D1B0A"/>
<rect x="80" y="35.9746" width="5" height="5" fill="#F6A427"/>
<rect x="55" y="35.9746" width="5" height="5" fill="#F6A427"/>
<rect x="85" y="35.9746" width="5" height="5" fill="#DF742C"/>
<rect x="60" y="35.9746" width="5" height="5" fill="#FEBE5D"/>
<rect x="65" y="35.9746" width="5" height="5" fill="#FCDA5B"/>
<rect x="70" y="35.9746" width="5" height="5" fill="#FEBE5D"/>
<rect x="75" y="35.9746" width="5" height="5" fill="#DF742C"/>
<rect x="25" y="40.9746" width="5" height="5" fill="#3D1B0A"/>
<rect x="40" y="40.9746" width="5" height="5" fill="#3D1B0A"/>
<rect x="45" y="40.9746" width="5" height="5" fill="#69412D"/>
<rect x="50" y="40.9746" width="5" height="5" fill="#DF742C"/>
<rect x="80" y="40.9746" width="5" height="5" fill="#F6A427"/>
<rect x="55" y="40.9746" width="5" height="5" fill="#F6A427"/>
<rect x="85" y="40.9746" width="5" height="5" fill="#DF742C"/>
<rect x="60" y="40.9746" width="5" height="5" fill="#DF742C"/>
<rect x="65" y="40.9746" width="5" height="5" fill="#DF742C"/>
<rect x="70" y="40.9746" width="5" height="5" fill="#FEBE5D"/>
<rect x="75" y="40.9746" width="5" height="5" fill="#F6A427"/>
<rect x="30" y="45.9746" width="5" height="5" fill="#3D1B0A"/>
<rect x="40" y="45.9746" width="5" height="5" fill="#3D1B0A"/>
<rect x="45" y="45.9746" width="5" height="5" fill="#69412D"/>
<rect x="50" y="45.9746" width="5" height="5" fill="#DF742C"/>
<rect x="80" y="45.9746" width="5" height="5" fill="#FCDA5B"/>
<rect x="55" y="45.9746" width="5" height="5" fill="#F6A427"/>
<rect x="85" y="45.9746" width="5" height="5" fill="#AF4D0B"/>
<rect x="60" y="45.9746" width="5" height="5" fill="#FEBE5D"/>
<rect x="65" y="45.9746" width="5" height="5" fill="#FCDA5B"/>
<rect x="70" y="45.9746" width="5" height="5" fill="#FEBE5D"/>
<rect x="75" y="45.9746" width="5" height="5" fill="#FEBE5D"/>
<rect x="25" y="50.9746" width="5" height="5" fill="#2B8E3B"/>
<rect x="25" y="80.9746" width="5" height="5" fill="#0F5F1C"/>
<rect x="30" y="50.9746" width="5" height="5" fill="#3FB753"/>
<rect x="30" y="80.9746" width="5" height="5" fill="#2B8E3B"/>
<rect x="35" y="50.9746" width="5" height="5" fill="#3D1B0A"/>
<rect x="35" y="80.9746" width="5" height="5" fill="#77B73F"/>
<rect x="40" y="50.9746" width="5" height="5" fill="#69412D"/>
<rect x="40" y="80.9746" width="5" height="5" fill="#3D1B0A"/>
<rect x="45" y="50.9746" width="5" height="5" fill="#DF742C"/>
<rect x="45" y="80.9746" width="5" height="5" fill="#F6A427"/>
<rect x="50" y="50.9746" width="5" height="5" fill="#F6A427"/>
<rect x="50" y="80.9746" width="5" height="5" fill="#AF4D0B"/>
<rect x="80" y="50.9746" width="5" height="5" fill="#AF4D0B"/>
<rect x="80" y="80.9746" width="5" height="5" fill="#3D1B0A"/>
<rect x="55" y="50.9746" width="5" height="5" fill="#DF742C"/>
<rect x="55" y="80.9746" width="5" height="5" fill="#FEBE5D"/>
<rect x="85" y="80.9746" width="5" height="5" fill="#3D1B0A"/>
<rect x="60" y="50.9746" width="5" height="5" fill="#DF742C"/>
<rect x="60" y="80.9746" width="5" height="5" fill="#3D1B0A"/>
<rect x="90" y="80.9746" width="5" height="5" fill="#2B8E3B"/>
<rect x="65" y="50.9746" width="5" height="5" fill="#FEBE5D"/>
<rect x="65" y="80.9746" width="5" height="5" fill="#69412D"/>
<rect x="95" y="80.9746" width="5" height="5" fill="#3FB753"/>
<rect x="70" y="50.9746" width="5" height="5" fill="#FEBE5D"/>
<rect x="70" y="80.9746" width="5" height="5" fill="#2B8E3B"/>
<rect x="75" y="50.9746" width="5" height="5" fill="#FEBE5D"/>
<rect x="75" y="80.9746" width="5" height="5" fill="#2B8E3B"/>
<rect x="25" y="85.9746" width="5" height="5" fill="#0F5F1C"/>
<rect x="30" y="55.9746" width="5" height="5" fill="#2B8E3B"/>
<rect x="30" y="85.9746" width="5" height="5" fill="#229735"/>
<rect x="35" y="55.9746" width="5" height="5" fill="#3D1B0A"/>
<rect x="35" y="85.9746" width="5" height="5" fill="#3FB753"/>
<rect x="40" y="55.9746" width="5" height="5" fill="#DF742C"/>
<rect x="40" y="85.9746" width="5" height="5" fill="#3D1B0A"/>
<rect x="45" y="55.9746" width="5" height="5" fill="#F6A427"/>
<rect x="45" y="85.9746" width="5" height="5" fill="#AF4D0B"/>
<rect x="50" y="55.9746" width="5" height="5" fill="#F6A427"/>
<rect x="50" y="85.9746" width="5" height="5" fill="#77B73F"/>
<rect x="80" y="55.9746" width="5" height="5" fill="#DF742C"/>
<rect x="55" y="55.9746" width="5" height="5" fill="#FEBE5D"/>
<rect x="55" y="85.9746" width="5" height="5" fill="#3FB753"/>
<rect x="60" y="55.9746" width="5" height="5" fill="#FCDA5B"/>
<rect x="60" y="85.9746" width="5" height="5" fill="#3FB753"/>
<rect x="65" y="55.9746" width="5" height="5" fill="#DF742C"/>
<rect x="65" y="85.9746" width="5" height="5" fill="#3FB753"/>
<rect x="70" y="55.9746" width="5" height="5" fill="#FEBE5D"/>
<rect x="70" y="85.9746" width="5" height="5" fill="#3D1B0A"/>
<rect x="75" y="55.9746" width="5" height="5" fill="#DF742C"/>
<rect x="75" y="85.9746" width="5" height="5" fill="#3D1B0A"/>
<rect x="25" y="90.9746" width="5" height="5" fill="#0F5F1C"/>
<rect x="30" y="60.9746" width="5" height="5" fill="#77B73F"/>
<rect x="30" y="90.9746" width="5" height="5" fill="#229735"/>
<rect x="35" y="60.9746" width="5" height="5" fill="#3FB753"/>
<rect x="35" y="90.9746" width="5" height="5" fill="#229735"/>
<rect x="40" y="60.9746" width="5" height="5" fill="#3D1B0A"/>
<rect x="40" y="90.9746" width="5" height="5" fill="#3FB753"/>
<rect x="45" y="60.9746" width="5" height="5" fill="#F6A427"/>
<rect x="45" y="90.9746" width="5" height="5" fill="#2B8E3B"/>
<rect x="50" y="60.9746" width="5" height="5" fill="#F6A427"/>
<rect x="50" y="90.9746" width="5" height="5" fill="#2B8E3B"/>
<rect x="80" y="60.9746" width="5" height="5" fill="#3D1B0A"/>
<rect x="55" y="60.9746" width="5" height="5" fill="#DF742C"/>
<rect x="55" y="90.9746" width="5" height="5" fill="#2B8E3B"/>
<rect x="85" y="60.9746" width="5" height="5" fill="#3D1B0A"/>
<rect x="60" y="60.9746" width="5" height="5" fill="#DF742C"/>
<rect x="60" y="90.9746" width="5" height="5" fill="#2B8E3B"/>
<rect x="90" y="60.9746" width="5" height="5" fill="#69412D"/>
<rect x="65" y="60.9746" width="5" height="5" fill="#FEBE5D"/>
<rect x="65" y="90.9746" width="5" height="5" fill="#3D1B0A"/>
<rect x="70" y="60.9746" width="5" height="5" fill="#FEBE5D"/>
<rect x="75" y="60.9746" width="5" height="5" fill="#FCDA5B"/>
<rect x="25" y="95.9746" width="5" height="5" fill="#0F5F1C"/>
<rect x="30" y="65.9746" width="5" height="5" fill="#0F5F1C"/>
<rect x="30" y="95.9746" width="5" height="5" fill="#0F5F1C"/>
<rect x="35" y="65.9746" width="5" height="5" fill="#2B8E3B"/>
<rect x="35" y="95.9746" width="5" height="5" fill="#229735"/>
<rect x="40" y="65.9746" width="5" height="5" fill="#2B8E3B"/>
<rect x="40" y="95.9746" width="5" height="5" fill="#229735"/>
<rect x="45" y="65.9746" width="5" height="5" fill="#F6A427"/>
<rect x="45" y="95.9746" width="5" height="5" fill="#2B8E3B"/>
<rect x="50" y="65.9746" width="5" height="5" fill="#FEBE5D"/>
<rect x="50" y="95.9746" width="5" height="5" fill="#2B8E3B"/>
<rect x="80" y="65.9746" width="5" height="5" fill="#3D1B0A"/>
<rect x="55" y="65.9746" width="5" height="5" fill="#FEBE5D"/>
<rect x="55" y="95.9746" width="5" height="5" fill="#77B73F"/>
<rect x="85" y="65.9746" width="5" height="5" fill="#69412D"/>
<rect x="60" y="65.9746" width="5" height="5" fill="#FCDA5B"/>
<rect x="60" y="95.9746" width="5" height="5" fill="#3D1B0A"/>
<rect x="65" y="65.9746" width="5" height="5" fill="#FEBE5D"/>
<rect x="70" y="65.9746" width="5" height="5" fill="#DF742C"/>
<rect x="75" y="65.9746" width="5" height="5" fill="#DF742C"/>
<rect x="30" y="70.9746" width="5" height="5" fill="#0F5F1C"/>
<rect x="30" y="100.975" width="5" height="5" fill="#0F5F1C"/>
<rect x="35" y="70.9746" width="5" height="5" fill="#2B8E3B"/>
<rect x="35" y="100.975" width="5" height="5" fill="#0F5F1C"/>
<rect x="40" y="70.9746" width="5" height="5" fill="#77B73F"/>
<rect x="40" y="100.975" width="5" height="5" fill="#0F5F1C"/>
<rect x="45" y="70.9746" width="5" height="5" fill="#F6A427"/>
<rect x="45" y="100.975" width="5" height="5" fill="#0F5F1C"/>
<rect x="50" y="70.9746" width="5" height="5" fill="#DF742C"/>
<rect x="50" y="100.975" width="5" height="5" fill="#77B73F"/>
<rect x="80" y="70.9746" width="5" height="5" fill="#69412D"/>
<rect x="55" y="70.9746" width="5" height="5" fill="#DF742C"/>
<rect x="60" y="70.9746" width="5" height="5" fill="#FEBE5D"/>
<rect x="65" y="70.9746" width="5" height="5" fill="#F6A427"/>
<rect x="70" y="70.9746" width="5" height="5" fill="#F6A427"/>
<rect x="75" y="70.9746" width="5" height="5" fill="#3D1B0A"/>
<rect x="25" y="75.9746" width="5" height="5" fill="#0F5F1C"/>
<rect x="30" y="75.9746" width="5" height="5" fill="#2B8E3B"/>
<rect x="35" y="75.9746" width="5" height="5" fill="#77B73F"/>
<rect x="40" y="75.9746" width="5" height="5" fill="#3D1B0A"/>
<rect x="45" y="75.9746" width="5" height="5" fill="#F6A427"/>
<rect x="50" y="75.9746" width="5" height="5" fill="#F6A427"/>
<rect x="80" y="75.9746" width="5" height="5" fill="#3FB753"/>
<rect x="55" y="75.9746" width="5" height="5" fill="#F6A427"/>
<rect x="85" y="75.9746" width="5" height="5" fill="#3FB753"/>
<rect x="60" y="75.9746" width="5" height="5" fill="#FEBE5D"/>
<rect x="90" y="75.9746" width="5" height="5" fill="#2B8E3B"/>
<rect x="65" y="75.9746" width="5" height="5" fill="#F6A427"/>
<rect x="70" y="75.9746" width="5" height="5" fill="#3D1B0A"/>
<rect x="75" y="75.9746" width="5" height="5" fill="#3D1B0A"/>
</svg>
