<svg width="84" height="84" viewBox="0 0 84 84" fill="none" xmlns="http://www.w3.org/2000/svg">
<rect x="31.5" y="15.75" width="2.625" height="2.625" fill="#08070C"/>
<rect x="34.125" y="15.75" width="2.625" height="2.625" fill="#08070C"/>
<rect x="36.75" y="15.75" width="2.625" height="2.625" fill="#08070C"/>
<rect x="39.375" y="15.75" width="2.625" height="2.625" fill="#08070C"/>
<rect x="26.25" y="18.375" width="2.625" height="2.625" fill="#08070C"/>
<rect x="28.875" y="18.375" width="2.625" height="2.625" fill="#FE6307"/>
<rect x="31.5" y="18.375" width="2.625" height="2.625" fill="#FE6307"/>
<rect x="34.125" y="18.375" width="2.625" height="2.625" fill="#FE6307"/>
<rect x="36.75" y="18.375" width="2.625" height="2.625" fill="#F6B384"/>
<rect x="39.375" y="18.375" width="2.625" height="2.625" fill="#FE6307"/>
<rect x="42" y="18.375" width="2.625" height="2.625" fill="#08070C"/>
<rect x="44.625" y="18.375" width="2.625" height="2.625" fill="#08070C"/>
<rect x="15.75" y="47.25" width="2.625" height="2.625" fill="#08070C"/>
<rect x="13.125" y="47.25" width="2.625" height="2.625" fill="#FE6307"/>
<rect x="70.875" y="47.25" width="2.625" height="2.625" fill="#F6B384"/>
<rect x="73.5" y="47.25" width="2.625" height="2.625" fill="#08070C"/>
<rect x="10.5" y="47.25" width="2.625" height="2.625" fill="#F6B384"/>
<rect x="7.875" y="47.25" width="2.625" height="2.625" fill="#FE6307"/>
<rect x="5.25" y="47.25" width="2.625" height="2.625" fill="#08070C"/>
<rect x="68.25" y="47.25" width="2.625" height="2.625" fill="#F6B384"/>
<rect x="23.625" y="21" width="2.625" height="2.625" fill="#08070C"/>
<rect x="26.25" y="21" width="2.625" height="2.625" fill="#FE6307"/>
<rect x="28.875" y="21" width="2.625" height="2.625" fill="#FE6307"/>
<rect x="31.5" y="21" width="2.625" height="2.625" fill="#FE6307"/>
<rect x="34.125" y="21" width="2.625" height="2.625" fill="#FE6307"/>
<rect x="36.75" y="21" width="2.625" height="2.625" fill="#F6B384"/>
<rect x="39.375" y="21" width="2.625" height="2.625" fill="#FE6307"/>
<rect x="42" y="21" width="2.625" height="2.625" fill="#FE6307"/>
<rect x="44.625" y="21" width="2.625" height="2.625" fill="#FE6307"/>
<rect x="47.25" y="21" width="2.625" height="2.625" fill="#08070C"/>
<rect x="15.75" y="49.875" width="2.625" height="2.625" fill="white"/>
<rect x="13.125" y="49.875" width="2.625" height="2.625" fill="#08070C"/>
<rect x="70.875" y="49.875" width="2.625" height="2.625" fill="#FE6307"/>
<rect x="73.5" y="49.875" width="2.625" height="2.625" fill="#FE6307"/>
<rect x="76.125" y="49.875" width="2.625" height="2.625" fill="#08070C"/>
<rect x="10.5" y="49.875" width="2.625" height="2.625" fill="#FE6307"/>
<rect x="7.875" y="49.875" width="2.625" height="2.625" fill="#FE6307"/>
<rect x="5.25" y="49.875" width="2.625" height="2.625" fill="#08070C"/>
<rect x="68.25" y="49.875" width="2.625" height="2.625" fill="#FE6307"/>
<rect x="23.625" y="23.625" width="2.625" height="2.625" fill="#08070C"/>
<rect x="26.25" y="23.625" width="2.625" height="2.625" fill="#08070C"/>
<rect x="28.875" y="23.625" width="2.625" height="2.625" fill="#08070C"/>
<rect x="31.5" y="23.625" width="2.625" height="2.625" fill="#08070C"/>
<rect x="34.125" y="23.625" width="2.625" height="2.625" fill="#F6B384"/>
<rect x="36.75" y="23.625" width="2.625" height="2.625" fill="#FE6307"/>
<rect x="39.375" y="23.625" width="2.625" height="2.625" fill="#FE6307"/>
<rect x="42" y="23.625" width="2.625" height="2.625" fill="#FE6307"/>
<rect x="44.625" y="23.625" width="2.625" height="2.625" fill="#F6B384"/>
<rect x="47.25" y="23.625" width="2.625" height="2.625" fill="#F6B384"/>
<rect x="49.875" y="23.625" width="2.625" height="2.625" fill="#08070C"/>
<rect x="15.75" y="52.5" width="2.625" height="2.625" fill="white"/>
<rect x="13.125" y="52.5" width="2.625" height="2.625" fill="#08070C"/>
<rect x="70.875" y="52.5" width="2.625" height="2.625" fill="#FE6307"/>
<rect x="73.5" y="52.5" width="2.625" height="2.625" fill="#FE6307"/>
<rect x="76.125" y="52.5" width="2.625" height="2.625" fill="#08070C"/>
<rect x="10.5" y="52.5" width="2.625" height="2.625" fill="#08070C"/>
<rect x="7.875" y="52.5" width="2.625" height="2.625" fill="#08070C"/>
<rect x="68.25" y="52.5" width="2.625" height="2.625" fill="#FE6307"/>
<rect x="18.375" y="26.25" width="2.625" height="2.625" fill="#08070C"/>
<rect x="21" y="26.25" width="2.625" height="2.625" fill="#08070C"/>
<rect x="23.625" y="26.25" width="2.625" height="2.625" fill="#FE6307"/>
<rect x="26.25" y="26.25" width="2.625" height="2.625" fill="#FE6307"/>
<rect x="28.875" y="26.25" width="2.625" height="2.625" fill="#FE6307"/>
<rect x="31.5" y="26.25" width="2.625" height="2.625" fill="#F6B384"/>
<rect x="34.125" y="26.25" width="2.625" height="2.625" fill="#08070C"/>
<rect x="36.75" y="26.25" width="2.625" height="2.625" fill="#08070C"/>
<rect x="52.5" y="26.25" width="2.625" height="2.625" fill="#08070C"/>
<rect x="39.375" y="26.25" width="2.625" height="2.625" fill="#FE6307"/>
<rect x="42" y="26.25" width="2.625" height="2.625" fill="#F6B384"/>
<rect x="44.625" y="26.25" width="2.625" height="2.625" fill="#FE6307"/>
<rect x="47.25" y="26.25" width="2.625" height="2.625" fill="#FE6307"/>
<rect x="49.875" y="26.25" width="2.625" height="2.625" fill="#FE6307"/>
<rect x="15.75" y="28.875" width="2.625" height="2.625" fill="#08070C"/>
<rect x="15.75" y="55.125" width="2.625" height="2.625" fill="white"/>
<rect x="13.125" y="55.125" width="2.625" height="2.625" fill="#08070C"/>
<rect x="70.875" y="55.125" width="2.625" height="2.625" fill="#FE6307"/>
<rect x="73.5" y="55.125" width="2.625" height="2.625" fill="#FE6307"/>
<rect x="76.125" y="55.125" width="2.625" height="2.625" fill="#08070C"/>
<rect x="68.25" y="55.125" width="2.625" height="2.625" fill="#08070C"/>
<rect x="18.375" y="28.875" width="2.625" height="2.625" fill="#FE6307"/>
<rect x="21" y="28.875" width="2.625" height="2.625" fill="#FE6307"/>
<rect x="23.625" y="28.875" width="2.625" height="2.625" fill="#FE6307"/>
<rect x="26.25" y="28.875" width="2.625" height="2.625" fill="#FE6307"/>
<rect x="28.875" y="28.875" width="2.625" height="2.625" fill="#F6B384"/>
<rect x="31.5" y="28.875" width="2.625" height="2.625" fill="#FE6307"/>
<rect x="34.125" y="28.875" width="2.625" height="2.625" fill="#FE6307"/>
<rect x="36.75" y="28.875" width="2.625" height="2.625" fill="#FE6307"/>
<rect x="52.5" y="28.875" width="2.625" height="2.625" fill="#F6B384"/>
<rect x="39.375" y="28.875" width="2.625" height="2.625" fill="#08070C"/>
<rect x="55.125" y="28.875" width="2.625" height="2.625" fill="#08070C"/>
<rect x="42" y="28.875" width="2.625" height="2.625" fill="#08070C"/>
<rect x="44.625" y="28.875" width="2.625" height="2.625" fill="#FE6307"/>
<rect x="47.25" y="28.875" width="2.625" height="2.625" fill="#FE6307"/>
<rect x="49.875" y="28.875" width="2.625" height="2.625" fill="#FE6307"/>
<rect x="15.75" y="31.5" width="2.625" height="2.625" fill="#FE6307"/>
<rect x="13.125" y="31.5" width="2.625" height="2.625" fill="#08070C"/>
<rect x="10.5" y="31.5" width="2.625" height="2.625" fill="#08070C"/>
<rect x="15.75" y="57.75" width="2.625" height="2.625" fill="#08070C"/>
<rect x="70.875" y="57.75" width="2.625" height="2.625" fill="#08070C"/>
<rect x="73.5" y="57.75" width="2.625" height="2.625" fill="#08070C"/>
<rect x="68.25" y="57.75" width="2.625" height="2.625" fill="#FE6307"/>
<rect x="18.375" y="31.5" width="2.625" height="2.625" fill="#FE6307"/>
<rect x="18.375" y="47.25" width="2.625" height="2.625" fill="#08070C"/>
<rect x="21" y="31.5" width="2.625" height="2.625" fill="#FE6307"/>
<rect x="21" y="47.25" width="2.625" height="2.625" fill="white"/>
<rect x="23.625" y="31.5" width="2.625" height="2.625" fill="#FE6307"/>
<rect x="23.625" y="47.25" width="2.625" height="2.625" fill="white"/>
<rect x="26.25" y="31.5" width="2.625" height="2.625" fill="#FE6307"/>
<rect x="26.25" y="47.25" width="2.625" height="2.625" fill="white"/>
<rect x="28.875" y="31.5" width="2.625" height="2.625" fill="#F6B384"/>
<rect x="28.875" y="47.25" width="2.625" height="2.625" fill="white"/>
<rect x="31.5" y="31.5" width="2.625" height="2.625" fill="#FE6307"/>
<rect x="31.5" y="47.25" width="2.625" height="2.625" fill="white"/>
<rect x="34.125" y="31.5" width="2.625" height="2.625" fill="#FE6307"/>
<rect x="34.125" y="47.25" width="2.625" height="2.625" fill="white"/>
<rect x="36.75" y="31.5" width="2.625" height="2.625" fill="#FE6307"/>
<rect x="36.75" y="47.25" width="2.625" height="2.625" fill="white"/>
<rect x="52.5" y="31.5" width="2.625" height="2.625" fill="#FE6307"/>
<rect x="52.5" y="47.25" width="2.625" height="2.625" fill="#FE6307"/>
<rect x="39.375" y="31.5" width="2.625" height="2.625" fill="#F6B384"/>
<rect x="39.375" y="47.25" width="2.625" height="2.625" fill="white"/>
<rect x="55.125" y="31.5" width="2.625" height="2.625" fill="#FE6307"/>
<rect x="55.125" y="47.25" width="2.625" height="2.625" fill="#FE6307"/>
<rect x="42" y="31.5" width="2.625" height="2.625" fill="#FE6307"/>
<rect x="42" y="47.25" width="2.625" height="2.625" fill="white"/>
<rect x="57.75" y="31.5" width="2.625" height="2.625" fill="#08070C"/>
<rect x="57.75" y="47.25" width="2.625" height="2.625" fill="#FE6307"/>
<rect x="44.625" y="31.5" width="2.625" height="2.625" fill="#08070C"/>
<rect x="44.625" y="47.25" width="2.625" height="2.625" fill="#08070C"/>
<rect x="60.375" y="47.25" width="2.625" height="2.625" fill="#08070C"/>
<rect x="47.25" y="31.5" width="2.625" height="2.625" fill="#F6B384"/>
<rect x="47.25" y="47.25" width="2.625" height="2.625" fill="#F6B384"/>
<rect x="63" y="47.25" width="2.625" height="2.625" fill="#FE6307"/>
<rect x="49.875" y="31.5" width="2.625" height="2.625" fill="#F6B384"/>
<rect x="49.875" y="47.25" width="2.625" height="2.625" fill="#FE6307"/>
<rect x="65.625" y="47.25" width="2.625" height="2.625" fill="#FE6307"/>
<rect x="15.75" y="34.125" width="2.625" height="2.625" fill="#F6B384"/>
<rect x="13.125" y="34.125" width="2.625" height="2.625" fill="#F6B384"/>
<rect x="10.5" y="34.125" width="2.625" height="2.625" fill="#FE6307"/>
<rect x="7.875" y="34.125" width="2.625" height="2.625" fill="#08070C"/>
<rect x="70.875" y="60.375" width="2.625" height="2.625" fill="#08070C"/>
<rect x="68.25" y="60.375" width="2.625" height="2.625" fill="#FE6307"/>
<rect x="70.875" y="63" width="2.625" height="2.625" fill="#08070C"/>
<rect x="68.25" y="63" width="2.625" height="2.625" fill="#FE6307"/>
<rect x="18.375" y="34.125" width="2.625" height="2.625" fill="#FE6307"/>
<rect x="18.375" y="49.875" width="2.625" height="2.625" fill="white"/>
<rect x="21" y="34.125" width="2.625" height="2.625" fill="#FE6307"/>
<rect x="21" y="49.875" width="2.625" height="2.625" fill="white"/>
<rect x="23.625" y="34.125" width="2.625" height="2.625" fill="#FE6307"/>
<rect x="23.625" y="49.875" width="2.625" height="2.625" fill="white"/>
<rect x="26.25" y="34.125" width="2.625" height="2.625" fill="#FE6307"/>
<rect x="26.25" y="49.875" width="2.625" height="2.625" fill="#08070C"/>
<rect x="28.875" y="34.125" width="2.625" height="2.625" fill="#F6B384"/>
<rect x="28.875" y="49.875" width="2.625" height="2.625" fill="white"/>
<rect x="31.5" y="34.125" width="2.625" height="2.625" fill="#FE6307"/>
<rect x="31.5" y="49.875" width="2.625" height="2.625" fill="white"/>
<rect x="34.125" y="34.125" width="2.625" height="2.625" fill="#FE6307"/>
<rect x="34.125" y="49.875" width="2.625" height="2.625" fill="white"/>
<rect x="36.75" y="34.125" width="2.625" height="2.625" fill="#F6B384"/>
<rect x="36.75" y="49.875" width="2.625" height="2.625" fill="#08070C"/>
<rect x="52.5" y="34.125" width="2.625" height="2.625" fill="#FE6307"/>
<rect x="52.5" y="49.875" width="2.625" height="2.625" fill="#FE6307"/>
<rect x="39.375" y="34.125" width="2.625" height="2.625" fill="#FE6307"/>
<rect x="39.375" y="49.875" width="2.625" height="2.625" fill="white"/>
<rect x="55.125" y="34.125" width="2.625" height="2.625" fill="#FE6307"/>
<rect x="55.125" y="49.875" width="2.625" height="2.625" fill="#F6B384"/>
<rect x="42" y="34.125" width="2.625" height="2.625" fill="#FE6307"/>
<rect x="42" y="49.875" width="2.625" height="2.625" fill="white"/>
<rect x="57.75" y="34.125" width="2.625" height="2.625" fill="#F6B384"/>
<rect x="57.75" y="49.875" width="2.625" height="2.625" fill="#F6B384"/>
<rect x="44.625" y="34.125" width="2.625" height="2.625" fill="#FE6307"/>
<rect x="44.625" y="49.875" width="2.625" height="2.625" fill="white"/>
<rect x="60.375" y="34.125" width="2.625" height="2.625" fill="#08070C"/>
<rect x="60.375" y="49.875" width="2.625" height="2.625" fill="#FE6307"/>
<rect x="47.25" y="34.125" width="2.625" height="2.625" fill="#08070C"/>
<rect x="47.25" y="49.875" width="2.625" height="2.625" fill="#08070C"/>
<rect x="63" y="49.875" width="2.625" height="2.625" fill="#08070C"/>
<rect x="49.875" y="34.125" width="2.625" height="2.625" fill="#FE6307"/>
<rect x="49.875" y="49.875" width="2.625" height="2.625" fill="#FE6307"/>
<rect x="65.625" y="49.875" width="2.625" height="2.625" fill="#F6B384"/>
<rect x="15.75" y="36.75" width="2.625" height="2.625" fill="#F6B384"/>
<rect x="13.125" y="36.75" width="2.625" height="2.625" fill="#FE6307"/>
<rect x="10.5" y="36.75" width="2.625" height="2.625" fill="#FE6307"/>
<rect x="7.875" y="36.75" width="2.625" height="2.625" fill="#FE6307"/>
<rect x="5.25" y="36.75" width="2.625" height="2.625" fill="#08070C"/>
<rect x="18.375" y="36.75" width="2.625" height="2.625" fill="#FE6307"/>
<rect x="18.375" y="52.5" width="2.625" height="2.625" fill="white"/>
<rect x="21" y="36.75" width="2.625" height="2.625" fill="#FE6307"/>
<rect x="21" y="52.5" width="2.625" height="2.625" fill="white"/>
<rect x="23.625" y="36.75" width="2.625" height="2.625" fill="#FE6307"/>
<rect x="23.625" y="52.5" width="2.625" height="2.625" fill="white"/>
<rect x="26.25" y="36.75" width="2.625" height="2.625" fill="#F6B384"/>
<rect x="26.25" y="52.5" width="2.625" height="2.625" fill="white"/>
<rect x="28.875" y="36.75" width="2.625" height="2.625" fill="#FE6307"/>
<rect x="28.875" y="52.5" width="2.625" height="2.625" fill="white"/>
<rect x="31.5" y="36.75" width="2.625" height="2.625" fill="#FE6307"/>
<rect x="31.5" y="52.5" width="2.625" height="2.625" fill="white"/>
<rect x="34.125" y="36.75" width="2.625" height="2.625" fill="#F6B384"/>
<rect x="34.125" y="52.5" width="2.625" height="2.625" fill="white"/>
<rect x="36.75" y="36.75" width="2.625" height="2.625" fill="#FE6307"/>
<rect x="36.75" y="52.5" width="2.625" height="2.625" fill="white"/>
<rect x="52.5" y="36.75" width="2.625" height="2.625" fill="#FE6307"/>
<rect x="52.5" y="52.5" width="2.625" height="2.625" fill="#08070C"/>
<rect x="39.375" y="36.75" width="2.625" height="2.625" fill="#FE6307"/>
<rect x="39.375" y="52.5" width="2.625" height="2.625" fill="white"/>
<rect x="55.125" y="36.75" width="2.625" height="2.625" fill="#F6B384"/>
<rect x="55.125" y="52.5" width="2.625" height="2.625" fill="#FE6307"/>
<rect x="42" y="36.75" width="2.625" height="2.625" fill="#FE6307"/>
<rect x="42" y="52.5" width="2.625" height="2.625" fill="white"/>
<rect x="57.75" y="36.75" width="2.625" height="2.625" fill="#F6B384"/>
<rect x="57.75" y="52.5" width="2.625" height="2.625" fill="#FE6307"/>
<rect x="44.625" y="36.75" width="2.625" height="2.625" fill="#FE6307"/>
<rect x="44.625" y="52.5" width="2.625" height="2.625" fill="white"/>
<rect x="60.375" y="36.75" width="2.625" height="2.625" fill="#FE6307"/>
<rect x="60.375" y="52.5" width="2.625" height="2.625" fill="#FE6307"/>
<rect x="47.25" y="36.75" width="2.625" height="2.625" fill="#F6B384"/>
<rect x="47.25" y="52.5" width="2.625" height="2.625" fill="white"/>
<rect x="63" y="36.75" width="2.625" height="2.625" fill="#08070C"/>
<rect x="63" y="52.5" width="2.625" height="2.625" fill="#FE6307"/>
<rect x="49.875" y="36.75" width="2.625" height="2.625" fill="#08070C"/>
<rect x="49.875" y="52.5" width="2.625" height="2.625" fill="#08070C"/>
<rect x="65.625" y="36.75" width="2.625" height="2.625" fill="#08070C"/>
<rect x="65.625" y="52.5" width="2.625" height="2.625" fill="#08070C"/>
<rect x="15.75" y="39.375" width="2.625" height="2.625" fill="#FE6307"/>
<rect x="13.125" y="39.375" width="2.625" height="2.625" fill="#FE6307"/>
<rect x="10.5" y="39.375" width="2.625" height="2.625" fill="#FE6307"/>
<rect x="7.875" y="39.375" width="2.625" height="2.625" fill="#FE6307"/>
<rect x="5.25" y="39.375" width="2.625" height="2.625" fill="#08070C"/>
<rect x="68.25" y="39.375" width="2.625" height="2.625" fill="#08070C"/>
<rect x="18.375" y="39.375" width="2.625" height="2.625" fill="#F6B384"/>
<rect x="18.375" y="55.125" width="2.625" height="2.625" fill="white"/>
<rect x="21" y="39.375" width="2.625" height="2.625" fill="#FE6307"/>
<rect x="21" y="55.125" width="2.625" height="2.625" fill="white"/>
<rect x="23.625" y="39.375" width="2.625" height="2.625" fill="#FE6307"/>
<rect x="23.625" y="55.125" width="2.625" height="2.625" fill="white"/>
<rect x="26.25" y="39.375" width="2.625" height="2.625" fill="#F6B384"/>
<rect x="26.25" y="55.125" width="2.625" height="2.625" fill="white"/>
<rect x="28.875" y="39.375" width="2.625" height="2.625" fill="#FE6307"/>
<rect x="28.875" y="55.125" width="2.625" height="2.625" fill="#08070C"/>
<rect x="31.5" y="39.375" width="2.625" height="2.625" fill="#F6B384"/>
<rect x="31.5" y="55.125" width="2.625" height="2.625" fill="#08070C"/>
<rect x="34.125" y="39.375" width="2.625" height="2.625" fill="#FE6307"/>
<rect x="34.125" y="55.125" width="2.625" height="2.625" fill="white"/>
<rect x="36.75" y="39.375" width="2.625" height="2.625" fill="#FE6307"/>
<rect x="36.75" y="55.125" width="2.625" height="2.625" fill="white"/>
<rect x="52.5" y="39.375" width="2.625" height="2.625" fill="#08070C"/>
<rect x="52.5" y="55.125" width="2.625" height="2.625" fill="white"/>
<rect x="39.375" y="39.375" width="2.625" height="2.625" fill="#FE6307"/>
<rect x="39.375" y="55.125" width="2.625" height="2.625" fill="white"/>
<rect x="55.125" y="39.375" width="2.625" height="2.625" fill="#F6B384"/>
<rect x="55.125" y="55.125" width="2.625" height="2.625" fill="#08070C"/>
<rect x="42" y="39.375" width="2.625" height="2.625" fill="#F6B384"/>
<rect x="42" y="55.125" width="2.625" height="2.625" fill="white"/>
<rect x="57.75" y="39.375" width="2.625" height="2.625" fill="#FE6307"/>
<rect x="57.75" y="55.125" width="2.625" height="2.625" fill="#FE6307"/>
<rect x="44.625" y="39.375" width="2.625" height="2.625" fill="#F6B384"/>
<rect x="44.625" y="55.125" width="2.625" height="2.625" fill="white"/>
<rect x="60.375" y="39.375" width="2.625" height="2.625" fill="#FE6307"/>
<rect x="60.375" y="55.125" width="2.625" height="2.625" fill="#FE6307"/>
<rect x="47.25" y="39.375" width="2.625" height="2.625" fill="#FE6307"/>
<rect x="47.25" y="55.125" width="2.625" height="2.625" fill="white"/>
<rect x="63" y="39.375" width="2.625" height="2.625" fill="#FE6307"/>
<rect x="63" y="55.125" width="2.625" height="2.625" fill="#FE6307"/>
<rect x="49.875" y="39.375" width="2.625" height="2.625" fill="#FE6307"/>
<rect x="49.875" y="55.125" width="2.625" height="2.625" fill="white"/>
<rect x="65.625" y="39.375" width="2.625" height="2.625" fill="#F6B384"/>
<rect x="65.625" y="55.125" width="2.625" height="2.625" fill="#F6B384"/>
<rect x="15.75" y="42" width="2.625" height="2.625" fill="#FE6307"/>
<rect x="13.125" y="42" width="2.625" height="2.625" fill="#FE6307"/>
<rect x="70.875" y="42" width="2.625" height="2.625" fill="#08070C"/>
<rect x="10.5" y="42" width="2.625" height="2.625" fill="#FE6307"/>
<rect x="7.875" y="42" width="2.625" height="2.625" fill="#FE6307"/>
<rect x="5.25" y="42" width="2.625" height="2.625" fill="#FE6307"/>
<rect x="2.625" y="42" width="2.625" height="2.625" fill="#08070C"/>
<rect x="68.25" y="42" width="2.625" height="2.625" fill="#FE6307"/>
<rect x="18.375" y="42" width="2.625" height="2.625" fill="#F6B384"/>
<rect x="18.375" y="57.75" width="2.625" height="2.625" fill="white"/>
<rect x="21" y="42" width="2.625" height="2.625" fill="#FE6307"/>
<rect x="21" y="57.75" width="2.625" height="2.625" fill="white"/>
<rect x="23.625" y="42" width="2.625" height="2.625" fill="#FE6307"/>
<rect x="23.625" y="57.75" width="2.625" height="2.625" fill="white"/>
<rect x="26.25" y="42" width="2.625" height="2.625" fill="#08070C"/>
<rect x="26.25" y="57.75" width="2.625" height="2.625" fill="white"/>
<rect x="28.875" y="42" width="2.625" height="2.625" fill="#08070C"/>
<rect x="28.875" y="57.75" width="2.625" height="2.625" fill="white"/>
<rect x="31.5" y="42" width="2.625" height="2.625" fill="#08070C"/>
<rect x="31.5" y="57.75" width="2.625" height="2.625" fill="white"/>
<rect x="34.125" y="42" width="2.625" height="2.625" fill="#08070C"/>
<rect x="34.125" y="57.75" width="2.625" height="2.625" fill="white"/>
<rect x="36.75" y="42" width="2.625" height="2.625" fill="#08070C"/>
<rect x="36.75" y="57.75" width="2.625" height="2.625" fill="white"/>
<rect x="52.5" y="42" width="2.625" height="2.625" fill="#FE6307"/>
<rect x="52.5" y="57.75" width="2.625" height="2.625" fill="#F1EEDB"/>
<rect x="39.375" y="42" width="2.625" height="2.625" fill="#FE6307"/>
<rect x="39.375" y="57.75" width="2.625" height="2.625" fill="white"/>
<rect x="55.125" y="42" width="2.625" height="2.625" fill="#08070C"/>
<rect x="55.125" y="57.75" width="2.625" height="2.625" fill="#C1BAA7"/>
<rect x="42" y="42" width="2.625" height="2.625" fill="#FE6307"/>
<rect x="42" y="57.75" width="2.625" height="2.625" fill="white"/>
<rect x="57.75" y="42" width="2.625" height="2.625" fill="#FE6307"/>
<rect x="57.75" y="57.75" width="2.625" height="2.625" fill="#08070C"/>
<rect x="44.625" y="42" width="2.625" height="2.625" fill="#FE6307"/>
<rect x="44.625" y="57.75" width="2.625" height="2.625" fill="#F1EEDB"/>
<rect x="60.375" y="42" width="2.625" height="2.625" fill="#F6B384"/>
<rect x="60.375" y="57.75" width="2.625" height="2.625" fill="#FE6307"/>
<rect x="47.25" y="42" width="2.625" height="2.625" fill="#FE6307"/>
<rect x="47.25" y="57.75" width="2.625" height="2.625" fill="white"/>
<rect x="63" y="42" width="2.625" height="2.625" fill="#F6B384"/>
<rect x="63" y="57.75" width="2.625" height="2.625" fill="#F6B384"/>
<rect x="49.875" y="42" width="2.625" height="2.625" fill="#FE6307"/>
<rect x="49.875" y="57.75" width="2.625" height="2.625" fill="#F1EEDB"/>
<rect x="65.625" y="42" width="2.625" height="2.625" fill="#FE6307"/>
<rect x="65.625" y="57.75" width="2.625" height="2.625" fill="#FE6307"/>
<rect x="15.75" y="44.625" width="2.625" height="2.625" fill="#FE6307"/>
<rect x="13.125" y="44.625" width="2.625" height="2.625" fill="#FE6307"/>
<rect x="70.875" y="44.625" width="2.625" height="2.625" fill="#FE6307"/>
<rect x="73.5" y="44.625" width="2.625" height="2.625" fill="#08070C"/>
<rect x="10.5" y="44.625" width="2.625" height="2.625" fill="#FE6307"/>
<rect x="7.875" y="44.625" width="2.625" height="2.625" fill="#F6B384"/>
<rect x="5.25" y="44.625" width="2.625" height="2.625" fill="#FE6307"/>
<rect x="2.625" y="44.625" width="2.625" height="2.625" fill="#08070C"/>
<rect x="68.25" y="44.625" width="2.625" height="2.625" fill="#FE6307"/>
<rect x="18.375" y="44.625" width="2.625" height="2.625" fill="#FE6307"/>
<rect x="18.375" y="60.375" width="2.625" height="2.625" fill="#08070C"/>
<rect x="21" y="44.625" width="2.625" height="2.625" fill="#08070C"/>
<rect x="21" y="60.375" width="2.625" height="2.625" fill="#08070C"/>
<rect x="23.625" y="44.625" width="2.625" height="2.625" fill="white"/>
<rect x="23.625" y="60.375" width="2.625" height="2.625" fill="#F1EEDB"/>
<rect x="23.625" y="63" width="2.625" height="2.625" fill="#08070C"/>
<rect x="26.25" y="44.625" width="2.625" height="2.625" fill="white"/>
<rect x="26.25" y="60.375" width="2.625" height="2.625" fill="#F1EEDB"/>
<rect x="26.25" y="63" width="2.625" height="2.625" fill="#08070C"/>
<rect x="28.875" y="44.625" width="2.625" height="2.625" fill="white"/>
<rect x="28.875" y="60.375" width="2.625" height="2.625" fill="white"/>
<rect x="28.875" y="63" width="2.625" height="2.625" fill="#08070C"/>
<rect x="31.5" y="44.625" width="2.625" height="2.625" fill="white"/>
<rect x="31.5" y="60.375" width="2.625" height="2.625" fill="white"/>
<rect x="31.5" y="63" width="2.625" height="2.625" fill="#08070C"/>
<rect x="34.125" y="44.625" width="2.625" height="2.625" fill="white"/>
<rect x="34.125" y="60.375" width="2.625" height="2.625" fill="white"/>
<rect x="34.125" y="63" width="2.625" height="2.625" fill="#08070C"/>
<rect x="36.75" y="44.625" width="2.625" height="2.625" fill="white"/>
<rect x="36.75" y="60.375" width="2.625" height="2.625" fill="white"/>
<rect x="36.75" y="63" width="2.625" height="2.625" fill="#08070C"/>
<rect x="52.5" y="44.625" width="2.625" height="2.625" fill="#FE6307"/>
<rect x="52.5" y="60.375" width="2.625" height="2.625" fill="#08070C"/>
<rect x="39.375" y="44.625" width="2.625" height="2.625" fill="white"/>
<rect x="39.375" y="60.375" width="2.625" height="2.625" fill="#F1EEDB"/>
<rect x="39.375" y="63" width="2.625" height="2.625" fill="#08070C"/>
<rect x="55.125" y="44.625" width="2.625" height="2.625" fill="#FE6307"/>
<rect x="55.125" y="60.375" width="2.625" height="2.625" fill="#08070C"/>
<rect x="42" y="44.625" width="2.625" height="2.625" fill="#08070C"/>
<rect x="42" y="60.375" width="2.625" height="2.625" fill="#F1EEDB"/>
<rect x="42" y="63" width="2.625" height="2.625" fill="#08070C"/>
<rect x="57.75" y="44.625" width="2.625" height="2.625" fill="#08070C"/>
<rect x="57.75" y="60.375" width="2.625" height="2.625" fill="#08070C"/>
<rect x="44.625" y="44.625" width="2.625" height="2.625" fill="#FE6307"/>
<rect x="44.625" y="60.375" width="2.625" height="2.625" fill="#F1EEDB"/>
<rect x="44.625" y="63" width="2.625" height="2.625" fill="#08070C"/>
<rect x="60.375" y="44.625" width="2.625" height="2.625" fill="#FE6307"/>
<rect x="60.375" y="60.375" width="2.625" height="2.625" fill="#08070C"/>
<rect x="47.25" y="44.625" width="2.625" height="2.625" fill="#FE6307"/>
<rect x="47.25" y="60.375" width="2.625" height="2.625" fill="#C1BAA7"/>
<rect x="47.25" y="63" width="2.625" height="2.625" fill="#08070C"/>
<rect x="63" y="44.625" width="2.625" height="2.625" fill="#FE6307"/>
<rect x="63" y="60.375" width="2.625" height="2.625" fill="#FE6307"/>
<rect x="63" y="63" width="2.625" height="2.625" fill="#FE6307"/>
<rect x="63" y="65.625" width="2.625" height="2.625" fill="#08070C"/>
<rect x="49.875" y="44.625" width="2.625" height="2.625" fill="#F6B384"/>
<rect x="49.875" y="60.375" width="2.625" height="2.625" fill="#08070C"/>
<rect x="65.625" y="44.625" width="2.625" height="2.625" fill="#FE6307"/>
<rect x="65.625" y="60.375" width="2.625" height="2.625" fill="#FE6307"/>
<rect x="65.625" y="63" width="2.625" height="2.625" fill="#FE6307"/>
<rect x="65.625" y="65.625" width="2.625" height="2.625" fill="#08070C"/>
</svg>
