<svg width="16" height="16" viewBox="0 0 16 16" fill="none" xmlns="http://www.w3.org/2000/svg">
<path d="M7.33335 8.66683H4.00001C3.81112 8.66683 3.6529 8.60283 3.52535 8.47483C3.39779 8.34683 3.33379 8.18861 3.33335 8.00016C3.3329 7.81172 3.3969 7.6535 3.52535 7.5255C3.65379 7.3975 3.81201 7.3335 4.00001 7.3335H7.33335V4.00017C7.33335 3.81128 7.39735 3.65305 7.52535 3.5255C7.65335 3.39794 7.81157 3.33394 8.00001 3.3335C8.18846 3.33305 8.3469 3.39705 8.47535 3.5255C8.60379 3.65394 8.66757 3.81217 8.66668 4.00017V7.3335H12C12.1889 7.3335 12.3473 7.3975 12.4753 7.5255C12.6033 7.6535 12.6671 7.81172 12.6667 8.00016C12.6662 8.18861 12.6022 8.34705 12.4747 8.4755C12.3471 8.60394 12.1889 8.66772 12 8.66683H8.66668V12.0002C8.66668 12.1891 8.60268 12.3475 8.47468 12.4755C8.34668 12.6035 8.18846 12.6673 8.00001 12.6668C7.81157 12.6664 7.65335 12.6024 7.52535 12.4748C7.39735 12.3473 7.33335 12.1891 7.33335 12.0002V8.66683Z" fill="white"/>
</svg>
