<svg width="16" height="16" viewBox="0 0 16 16" fill="none" xmlns="http://www.w3.org/2000/svg">
<path d="M7.33301 8.66634H3.99968C3.81079 8.66634 3.65257 8.60234 3.52501 8.47434C3.39745 8.34634 3.33345 8.18812 3.33301 7.99968C3.33257 7.81123 3.39657 7.65301 3.52501 7.52501C3.65345 7.39701 3.81168 7.33301 3.99968 7.33301H7.33301V3.99968C7.33301 3.81079 7.39701 3.65257 7.52501 3.52501C7.65301 3.39745 7.81123 3.33345 7.99968 3.33301C8.18812 3.33257 8.34657 3.39657 8.47501 3.52501C8.60346 3.65345 8.66723 3.81168 8.66634 3.99968V7.33301H11.9997C12.1886 7.33301 12.347 7.39701 12.475 7.52501C12.603 7.65301 12.6668 7.81123 12.6663 7.99968C12.6659 8.18812 12.6019 8.34657 12.4743 8.47501C12.3468 8.60346 12.1886 8.66723 11.9997 8.66634H8.66634V11.9997C8.66634 12.1886 8.60234 12.347 8.47434 12.475C8.34634 12.603 8.18812 12.6668 7.99968 12.6663C7.81123 12.6659 7.65301 12.6019 7.52501 12.4743C7.39701 12.3468 7.33301 12.1886 7.33301 11.9997V8.66634Z" fill="#22221B"/>
</svg>
