<svg width="24" height="24" viewBox="0 0 24 24" fill="none" xmlns="http://www.w3.org/2000/svg">
<path d="M14.875 2.9001L23.3 11.3001C23.4 11.4001 23.4706 11.5084 23.512 11.6251C23.554 11.7418 23.575 11.8668 23.575 12.0001C23.575 12.1334 23.554 12.2584 23.512 12.3751C23.4706 12.4918 23.4 12.6001 23.3 12.7001L14.875 21.1251C14.6416 21.3584 14.35 21.4751 14 21.4751C13.65 21.4751 13.35 21.3501 13.1 21.1001C12.85 20.8501 12.725 20.5584 12.725 20.2251C12.725 19.8918 12.85 19.6001 13.1 19.3501L20.45 12.0001L13.1 4.6501C12.8666 4.41676 12.75 4.12943 12.75 3.7881C12.75 3.4461 12.875 3.1501 13.125 2.9001C13.375 2.6501 13.6666 2.5251 14 2.5251C14.3333 2.5251 14.625 2.6501 14.875 2.9001Z" fill="#22221B" fill-opacity="0.6"/>
</svg>
