<svg text-rendering="optimizeLegibility" image-rendering="crisp-edges" shape-rendering="crispEdges" width="327" height="176" viewBox="0 0 327 176" fill="none" xmlns="http://www.w3.org/2000/svg"><g ><g clip-path="url(#clip0_1503_3784)"><rect width="327" height="172" rx="24" fill="#A9C971"/><path d="M21.194 31.14C19.682 31.14 18.5247 30.734 17.722 29.922C16.9193 29.1007 16.518 27.9853 16.518 26.576C16.518 25.0827 16.9053 23.9207 17.68 23.09C18.464 22.2593 19.6307 21.844 21.18 21.844C21.7213 21.844 22.2067 21.886 22.636 21.97C23.0747 22.0447 23.4853 22.152 23.868 22.292V23.944C23.0747 23.6173 22.2253 23.454 21.32 23.454C20.2933 23.454 19.556 23.7107 19.108 24.224C18.66 24.7373 18.436 25.5213 18.436 26.576C18.436 28.5547 19.4067 29.544 21.348 29.544C21.7867 29.544 22.2207 29.5067 22.65 29.432C23.0793 29.348 23.49 29.2267 23.882 29.068V30.734C23.4993 30.8553 23.0887 30.9533 22.65 31.028C22.2207 31.1027 21.7353 31.14 21.194 31.14ZM28.5105 31.14C27.2692 31.14 26.3592 30.8413 25.7805 30.244C25.2019 29.6373 24.9125 28.7833 24.9125 27.682C24.9125 26.5807 25.2019 25.7313 25.7805 25.134C26.3685 24.5273 27.2785 24.224 28.5105 24.224C29.7519 24.224 30.6619 24.5273 31.2405 25.134C31.8285 25.7313 32.1225 26.5807 32.1225 27.682C32.1225 28.7833 31.8332 29.6373 31.2545 30.244C30.6759 30.8413 29.7612 31.14 28.5105 31.14ZM28.5105 29.53C29.1172 29.53 29.5512 29.3947 29.8125 29.124C30.0739 28.844 30.2045 28.3633 30.2045 27.682C30.2045 27.0007 30.0739 26.5247 29.8125 26.254C29.5512 25.974 29.1172 25.834 28.5105 25.834C27.9132 25.834 27.4839 25.974 27.2225 26.254C26.9612 26.5247 26.8305 27.0007 26.8305 27.682C26.8305 28.3633 26.9612 28.844 27.2225 29.124C27.4839 29.3947 27.9132 29.53 28.5105 29.53ZM35.2847 31.14C34.6407 31.14 34.1693 30.9907 33.8707 30.692C33.5813 30.3933 33.4367 29.9173 33.4367 29.264V21.564H35.3267V29.11C35.3267 29.3433 35.3733 29.5067 35.4667 29.6C35.56 29.684 35.6953 29.726 35.8727 29.726C36.1153 29.726 36.3347 29.6933 36.5307 29.628V30.93C36.176 31.07 35.7607 31.14 35.2847 31.14ZM39.0991 31.14C38.4551 31.14 37.9838 30.9907 37.6851 30.692C37.3958 30.3933 37.2511 29.9173 37.2511 29.264V21.564H39.1411V29.11C39.1411 29.3433 39.1878 29.5067 39.2811 29.6C39.3745 29.684 39.5098 29.726 39.6871 29.726C39.9298 29.726 40.1491 29.6933 40.3451 29.628V30.93C39.9905 31.07 39.5751 31.14 39.0991 31.14ZM44.879 31.14C43.731 31.14 42.821 30.8553 42.149 30.286C41.477 29.7073 41.141 28.8347 41.141 27.668C41.141 26.6133 41.421 25.778 41.981 25.162C42.5504 24.5367 43.395 24.224 44.515 24.224C45.5417 24.224 46.3257 24.4947 46.867 25.036C47.4177 25.568 47.693 26.268 47.693 27.136V28.34H42.891C42.9937 28.872 43.2364 29.236 43.619 29.432C44.011 29.628 44.5617 29.726 45.271 29.726C45.6257 29.726 45.985 29.6933 46.349 29.628C46.7224 29.5627 47.0397 29.4787 47.301 29.376V30.72C46.993 30.86 46.6337 30.9627 46.223 31.028C45.8124 31.1027 45.3644 31.14 44.879 31.14ZM42.891 27.178H46.041V26.814C46.041 26.4313 45.929 26.1327 45.705 25.918C45.481 25.694 45.103 25.582 44.571 25.582C43.9457 25.582 43.507 25.708 43.255 25.96C43.0124 26.212 42.891 26.618 42.891 27.178ZM52.3969 31.14C51.2116 31.14 50.3016 30.846 49.6669 30.258C49.0416 29.67 48.7289 28.8113 48.7289 27.682C48.7289 26.5153 49.0649 25.6473 49.7369 25.078C50.4183 24.5087 51.3236 24.224 52.4529 24.224C52.9196 24.224 53.3209 24.2567 53.6569 24.322C53.9929 24.3873 54.3196 24.4947 54.6369 24.644V26.002C54.4036 25.89 54.1329 25.8013 53.8249 25.736C53.5169 25.6707 53.1856 25.638 52.8309 25.638C52.1216 25.638 51.5803 25.7873 51.2069 26.086C50.8336 26.3753 50.6469 26.9073 50.6469 27.682C50.6469 28.3913 50.8149 28.9093 51.1509 29.236C51.4963 29.5627 52.0516 29.726 52.8169 29.726C53.1436 29.726 53.4609 29.6933 53.7689 29.628C54.0863 29.5627 54.3803 29.4647 54.6509 29.334V30.734C54.0256 31.0047 53.2743 31.14 52.3969 31.14ZM58.4769 31.14C57.7115 31.14 57.1422 30.9393 56.7689 30.538C56.4049 30.1367 56.2229 29.5907 56.2229 28.9V25.82H55.2849V24.364H56.2229V22.936L58.1129 22.376V24.364H59.7929L59.6809 25.82H58.1129V28.774C58.1129 29.138 58.1969 29.39 58.3649 29.53C58.5329 29.6607 58.7942 29.726 59.1489 29.726C59.4102 29.726 59.6809 29.6793 59.9609 29.586V30.888C59.7555 30.972 59.5315 31.0327 59.2889 31.07C59.0462 31.1167 58.7755 31.14 58.4769 31.14ZM61.3928 23.146V21.662H63.4508V23.146H61.3928ZM61.5468 31V25.764H60.5528L60.7208 24.364H63.4368V31H61.5468ZM68.364 31.14C67.1227 31.14 66.2127 30.8413 65.634 30.244C65.0554 29.6373 64.766 28.7833 64.766 27.682C64.766 26.5807 65.0554 25.7313 65.634 25.134C66.222 24.5273 67.132 24.224 68.364 24.224C69.6054 24.224 70.5154 24.5273 71.094 25.134C71.682 25.7313 71.976 26.5807 71.976 27.682C71.976 28.7833 71.6867 29.6373 71.108 30.244C70.5294 30.8413 69.6147 31.14 68.364 31.14ZM68.364 29.53C68.9707 29.53 69.4047 29.3947 69.666 29.124C69.9274 28.844 70.058 28.3633 70.058 27.682C70.058 27.0007 69.9274 26.5247 69.666 26.254C69.4047 25.974 68.9707 25.834 68.364 25.834C67.7667 25.834 67.3374 25.974 67.076 26.254C66.8147 26.5247 66.684 27.0007 66.684 27.682C66.684 28.3633 66.8147 28.844 67.076 29.124C67.3374 29.3947 67.7667 29.53 68.364 29.53ZM73.2902 31V24.364H75.0402L75.1102 24.994C75.3809 24.7887 75.7215 24.6113 76.1322 24.462C76.5522 24.3033 76.9909 24.224 77.4482 24.224C78.3255 24.224 78.9649 24.4293 79.3662 24.84C79.7675 25.2507 79.9682 25.8853 79.9682 26.744V31H78.0782V26.842C78.0782 26.394 77.9849 26.0767 77.7982 25.89C77.6209 25.7033 77.2849 25.61 76.7902 25.61C76.5009 25.61 76.2069 25.6753 75.9082 25.806C75.6189 25.9367 75.3762 26.1 75.1802 26.296V31H73.2902Z" fill="#22221B"/><path d="M255.901 31.14C254.771 31.14 253.917 30.86 253.339 30.3C252.769 29.74 252.485 28.858 252.485 27.654V25.624C252.485 24.8773 252.639 24.2193 252.947 23.65C253.255 23.0807 253.693 22.6373 254.263 22.32C254.832 22.0027 255.509 21.844 256.293 21.844C256.75 21.844 257.147 21.872 257.483 21.928C257.828 21.984 258.145 22.0633 258.435 22.166V23.468C258.145 23.3653 257.833 23.286 257.497 23.23C257.17 23.174 256.801 23.146 256.391 23.146C255.551 23.146 254.93 23.3467 254.529 23.748C254.127 24.14 253.927 24.6673 253.927 25.33V25.89C254.253 25.6473 254.627 25.47 255.047 25.358C255.476 25.2367 255.863 25.176 256.209 25.176C257.263 25.176 258.043 25.4327 258.547 25.946C259.051 26.4593 259.303 27.1873 259.303 28.13C259.303 29.026 259.027 29.754 258.477 30.314C257.926 30.8647 257.067 31.14 255.901 31.14ZM255.915 29.992C256.587 29.992 257.091 29.8287 257.427 29.502C257.763 29.1753 257.931 28.7367 257.931 28.186C257.931 27.6073 257.791 27.1593 257.511 26.842C257.24 26.5153 256.731 26.352 255.985 26.352C255.611 26.352 255.243 26.4173 254.879 26.548C254.524 26.6693 254.207 26.8327 253.927 27.038V28.004C253.927 29.3293 254.589 29.992 255.915 29.992ZM264.017 31V21.984H268.035C268.725 21.984 269.295 22.1147 269.743 22.376C270.191 22.6373 270.522 22.9967 270.737 23.454C270.951 23.902 271.059 24.4153 271.059 24.994C271.059 25.89 270.779 26.6087 270.219 27.15C269.668 27.6913 268.921 27.962 267.979 27.962H265.543V31H264.017ZM265.543 26.758H267.699C268.305 26.758 268.763 26.5993 269.071 26.282C269.379 25.9647 269.533 25.5353 269.533 24.994C269.533 24.4153 269.383 23.9673 269.085 23.65C268.795 23.3327 268.357 23.174 267.769 23.174H265.543V26.758ZM274.669 31.14C273.875 31.14 273.264 30.9207 272.835 30.482C272.415 30.0433 272.205 29.3993 272.205 28.55V24.364H273.731V28.55C273.731 29.0447 273.852 29.4087 274.095 29.642C274.337 29.8753 274.711 29.992 275.215 29.992C275.588 29.992 275.933 29.922 276.251 29.782C276.568 29.642 276.843 29.4553 277.077 29.222V24.364H278.589V31H277.203L277.133 30.314C276.834 30.5473 276.479 30.7433 276.069 30.902C275.658 31.0607 275.191 31.14 274.669 31.14ZM280.088 31V30.202L283.714 25.61H280.256V24.364H285.59V25.302L282.034 29.824H285.688V31H280.088ZM286.911 31V30.202L290.537 25.61H287.079V24.364H292.413V25.302L288.857 29.824H292.511V31H286.911ZM295.665 31.14C295.124 31.14 294.713 31.0093 294.433 30.748C294.153 30.4773 294.013 30.034 294.013 29.418V21.564H295.539V29.278C295.539 29.5393 295.586 29.7167 295.679 29.81C295.772 29.9033 295.912 29.95 296.099 29.95C296.323 29.95 296.538 29.922 296.743 29.866V30.972C296.566 31.0373 296.393 31.0793 296.225 31.098C296.066 31.126 295.88 31.14 295.665 31.14ZM301.297 31.14C300.139 31.14 299.243 30.8553 298.609 30.286C297.974 29.7167 297.657 28.844 297.657 27.668C297.657 26.604 297.927 25.764 298.469 25.148C299.01 24.532 299.831 24.224 300.933 24.224C301.941 24.224 302.697 24.49 303.201 25.022C303.714 25.5447 303.971 26.2213 303.971 27.052V28.284H299.113C299.187 28.928 299.421 29.3713 299.813 29.614C300.205 29.8567 300.802 29.978 301.605 29.978C301.941 29.978 302.286 29.9453 302.641 29.88C302.995 29.8147 303.303 29.7307 303.565 29.628V30.748C303.266 30.8787 302.921 30.9767 302.529 31.042C302.146 31.1073 301.735 31.14 301.297 31.14ZM299.113 27.29H302.627V26.828C302.627 26.3707 302.501 26.016 302.249 25.764C301.997 25.5027 301.572 25.372 300.975 25.372C300.265 25.372 299.775 25.526 299.505 25.834C299.243 26.142 299.113 26.6273 299.113 27.29ZM307.6 31.14C307.143 31.14 306.704 31.1073 306.284 31.042C305.873 30.9767 305.533 30.8973 305.262 30.804V29.516C305.579 29.6373 305.929 29.7307 306.312 29.796C306.695 29.8613 307.059 29.894 307.404 29.894C307.927 29.894 308.3 29.8473 308.524 29.754C308.748 29.6607 308.86 29.4787 308.86 29.208C308.86 29.012 308.79 28.858 308.65 28.746C308.519 28.634 308.319 28.5313 308.048 28.438C307.787 28.3447 307.451 28.2327 307.04 28.102C306.648 27.9713 306.307 27.8313 306.018 27.682C305.729 27.5233 305.505 27.3227 305.346 27.08C305.187 26.8373 305.108 26.52 305.108 26.128C305.108 25.5213 305.327 25.0547 305.766 24.728C306.205 24.392 306.909 24.224 307.88 24.224C308.263 24.224 308.627 24.252 308.972 24.308C309.317 24.364 309.611 24.434 309.854 24.518V25.792C309.593 25.6893 309.303 25.61 308.986 25.554C308.678 25.498 308.389 25.47 308.118 25.47C307.633 25.47 307.264 25.512 307.012 25.596C306.769 25.68 306.648 25.848 306.648 26.1C306.648 26.3613 306.774 26.548 307.026 26.66C307.287 26.7627 307.703 26.9073 308.272 27.094C308.795 27.2527 309.21 27.4207 309.518 27.598C309.826 27.7753 310.045 27.99 310.176 28.242C310.316 28.4847 310.386 28.802 310.386 29.194C310.386 29.8473 310.148 30.3373 309.672 30.664C309.196 30.9813 308.505 31.14 307.6 31.14Z" fill="#22221B"/><path d="M17.026 69V57.408H19.474L22.876 64.374L26.278 57.408H28.708V69H26.278V61.458L23.578 67.002H22.174L19.456 61.458V69H17.026ZM33.4365 69.18C32.8965 69.18 32.3925 69.084 31.9245 68.892C31.4685 68.688 31.0965 68.394 30.8085 68.01C30.5325 67.614 30.3945 67.122 30.3945 66.534C30.3945 65.694 30.6885 65.022 31.2765 64.518C31.8765 64.014 32.7585 63.762 33.9225 63.762H36.4425V63.528C36.4425 63 36.2925 62.628 35.9925 62.412C35.7045 62.196 35.1165 62.088 34.2285 62.088C33.2565 62.088 32.3205 62.238 31.4205 62.538V60.828C31.8165 60.672 32.2965 60.546 32.8605 60.45C33.4365 60.342 34.0605 60.288 34.7325 60.288C36.0165 60.288 37.0065 60.552 37.7025 61.08C38.4105 61.596 38.7645 62.43 38.7645 63.582V69H36.6585L36.5325 68.226C36.1965 68.526 35.7825 68.76 35.2905 68.928C34.7985 69.096 34.1805 69.18 33.4365 69.18ZM34.1025 67.578C34.6425 67.578 35.1105 67.488 35.5065 67.308C35.9025 67.128 36.2145 66.9 36.4425 66.624V65.274H33.9765C33.0285 65.274 32.5545 65.664 32.5545 66.444C32.5545 67.2 33.0705 67.578 34.1025 67.578ZM44.3213 72.168C43.6853 72.168 43.0313 72.126 42.3593 72.042C41.6993 71.958 41.1413 71.838 40.6853 71.682V69.864C41.1653 70.02 41.7293 70.14 42.3773 70.224C43.0253 70.32 43.6313 70.368 44.1953 70.368C45.0233 70.368 45.6233 70.32 45.9953 70.224C46.3673 70.14 46.5533 69.984 46.5533 69.756C46.5533 69.564 46.4693 69.432 46.3013 69.36C46.1453 69.288 45.8093 69.252 45.2933 69.252H42.9713C41.4473 69.252 40.6853 68.688 40.6853 67.56C40.6853 67.212 40.7813 66.894 40.9733 66.606C41.1653 66.318 41.4713 66.09 41.8913 65.922C40.9193 65.43 40.4333 64.602 40.4333 63.438C40.4333 62.334 40.7753 61.536 41.4593 61.044C42.1433 60.54 43.1573 60.288 44.5013 60.288C44.7773 60.288 45.0773 60.312 45.4013 60.36C45.7373 60.396 45.9893 60.432 46.1573 60.468H49.3613L49.3073 61.998H47.9573C48.3293 62.346 48.5153 62.832 48.5153 63.456C48.5153 64.332 48.2393 65.034 47.6873 65.562C47.1353 66.078 46.3193 66.336 45.2393 66.336C45.0473 66.336 44.8613 66.33 44.6813 66.318C44.5133 66.294 44.3393 66.27 44.1593 66.246C43.7993 66.294 43.4933 66.378 43.2413 66.498C43.0013 66.618 42.8813 66.78 42.8813 66.984C42.8813 67.26 43.1273 67.398 43.6193 67.398H46.0313C46.8953 67.398 47.5613 67.596 48.0293 67.992C48.4973 68.376 48.7313 68.94 48.7313 69.684C48.7313 70.524 48.3533 71.148 47.5973 71.556C46.8413 71.964 45.7493 72.168 44.3213 72.168ZM44.5193 64.968C45.2393 64.968 45.7373 64.848 46.0133 64.608C46.3013 64.356 46.4453 63.936 46.4453 63.348C46.4453 62.76 46.3013 62.334 46.0133 62.07C45.7373 61.806 45.2393 61.674 44.5193 61.674C43.8353 61.674 43.3433 61.806 43.0433 62.07C42.7433 62.322 42.5933 62.748 42.5933 63.348C42.5933 63.9 42.7313 64.308 43.0073 64.572C43.2953 64.836 43.7993 64.968 44.5193 64.968ZM50.9657 58.902V56.994H53.6117V58.902H50.9657ZM51.1637 69V62.268H49.8857L50.1017 60.468H53.5937V69H51.1637ZM60.0187 69.18C58.4947 69.18 57.3247 68.802 56.5087 68.046C55.7047 67.29 55.3027 66.186 55.3027 64.734C55.3027 63.234 55.7347 62.118 56.5987 61.386C57.4747 60.654 58.6387 60.288 60.0907 60.288C60.6907 60.288 61.2067 60.33 61.6387 60.414C62.0707 60.498 62.4907 60.636 62.8987 60.828V62.574C62.5987 62.43 62.2507 62.316 61.8547 62.232C61.4587 62.148 61.0327 62.106 60.5767 62.106C59.6647 62.106 58.9687 62.298 58.4887 62.682C58.0087 63.054 57.7687 63.738 57.7687 64.734C57.7687 65.646 57.9847 66.312 58.4167 66.732C58.8607 67.152 59.5747 67.362 60.5587 67.362C60.9787 67.362 61.3867 67.32 61.7827 67.236C62.1907 67.152 62.5687 67.026 62.9167 66.858V68.658C62.1127 69.006 61.1467 69.18 60.0187 69.18ZM73.9869 69.18C72.0429 69.18 70.5669 68.67 69.5589 67.65C68.5509 66.63 68.0469 65.214 68.0469 63.402C68.0469 61.482 68.5569 59.976 69.5769 58.884C70.5969 57.78 72.1149 57.228 74.1309 57.228C74.8269 57.228 75.4569 57.27 76.0209 57.354C76.5849 57.426 77.1189 57.546 77.6229 57.714V59.802C77.1189 59.622 76.5849 59.496 76.0209 59.424C75.4689 59.34 74.8989 59.298 74.3109 59.298C72.9309 59.298 71.9529 59.64 71.3769 60.324C70.8009 60.996 70.5129 62.022 70.5129 63.402C70.5129 65.886 71.6829 67.128 74.0229 67.128C74.4309 67.128 74.8269 67.098 75.2109 67.038C75.6069 66.966 75.9549 66.876 76.2549 66.768V64.068H73.5549V62.52H78.3069V68.19C77.9109 68.442 77.3589 68.67 76.6509 68.874C75.9429 69.078 75.0549 69.18 73.9869 69.18ZM82.6728 69.18C82.1328 69.18 81.6288 69.084 81.1608 68.892C80.7048 68.688 80.3328 68.394 80.0448 68.01C79.7688 67.614 79.6308 67.122 79.6308 66.534C79.6308 65.694 79.9248 65.022 80.5128 64.518C81.1128 64.014 81.9948 63.762 83.1588 63.762H85.6788V63.528C85.6788 63 85.5288 62.628 85.2288 62.412C84.9408 62.196 84.3528 62.088 83.4648 62.088C82.4928 62.088 81.5568 62.238 80.6568 62.538V60.828C81.0528 60.672 81.5328 60.546 82.0968 60.45C82.6728 60.342 83.2968 60.288 83.9688 60.288C85.2528 60.288 86.2428 60.552 86.9388 61.08C87.6468 61.596 88.0008 62.43 88.0008 63.582V69H85.8948L85.7688 68.226C85.4328 68.526 85.0188 68.76 84.5268 68.928C84.0348 69.096 83.4168 69.18 82.6728 69.18ZM83.3388 67.578C83.8788 67.578 84.3468 67.488 84.7428 67.308C85.1388 67.128 85.4508 66.9 85.6788 66.624V65.274H83.2128C82.2648 65.274 81.7908 65.664 81.7908 66.444C81.7908 67.2 82.3068 67.578 83.3388 67.578ZM89.9576 69V60.468H92.2076L92.3156 61.35C92.6996 61.11 93.1736 60.894 93.7376 60.702C94.3136 60.498 94.8776 60.36 95.4296 60.288V62.124C95.1056 62.172 94.7516 62.244 94.3676 62.34C93.9836 62.436 93.6176 62.544 93.2696 62.664C92.9216 62.784 92.6276 62.91 92.3876 63.042V69H89.9576ZM99.8849 69.18C99.1289 69.18 98.4509 69.048 97.8509 68.784C97.2629 68.508 96.8009 68.064 96.4649 67.452C96.1289 66.828 95.9609 66.006 95.9609 64.986C95.9609 63.966 96.1469 63.108 96.5189 62.412C96.8909 61.716 97.3889 61.188 98.0129 60.828C98.6369 60.468 99.3209 60.288 100.065 60.288C101.001 60.288 101.799 60.504 102.459 60.936V56.868H104.889V69H102.801L102.657 68.208C102.285 68.532 101.877 68.778 101.433 68.946C101.001 69.102 100.485 69.18 99.8849 69.18ZM100.551 67.398C101.307 67.398 101.943 67.14 102.459 66.624V62.736C101.955 62.292 101.367 62.07 100.695 62.07C99.1829 62.07 98.4269 63.042 98.4269 64.986C98.4269 65.898 98.6129 66.528 98.9849 66.876C99.3569 67.224 99.8789 67.398 100.551 67.398ZM111.208 69.18C109.732 69.18 108.562 68.814 107.698 68.082C106.834 67.338 106.402 66.216 106.402 64.716C106.402 63.36 106.762 62.286 107.482 61.494C108.214 60.69 109.3 60.288 110.74 60.288C112.06 60.288 113.068 60.636 113.764 61.332C114.472 62.016 114.826 62.916 114.826 64.032V65.58H108.652C108.784 66.264 109.096 66.732 109.588 66.984C110.092 67.236 110.8 67.362 111.712 67.362C112.168 67.362 112.63 67.32 113.098 67.236C113.578 67.152 113.986 67.044 114.322 66.912V68.64C113.926 68.82 113.464 68.952 112.936 69.036C112.408 69.132 111.832 69.18 111.208 69.18ZM108.652 64.086H112.702V63.618C112.702 63.126 112.558 62.742 112.27 62.466C111.982 62.178 111.496 62.034 110.812 62.034C110.008 62.034 109.444 62.196 109.12 62.52C108.808 62.844 108.652 63.366 108.652 64.086ZM116.518 69V60.468H118.768L118.858 61.278C119.206 61.014 119.644 60.786 120.172 60.594C120.712 60.39 121.276 60.288 121.864 60.288C122.992 60.288 123.814 60.552 124.33 61.08C124.846 61.608 125.104 62.424 125.104 63.528V69H122.674V63.654C122.674 63.078 122.554 62.67 122.314 62.43C122.086 62.19 121.654 62.07 121.018 62.07C120.646 62.07 120.268 62.154 119.884 62.322C119.512 62.49 119.2 62.7 118.948 62.952V69H116.518Z" fill="#22221B"/><rect x="24.5" y="92.5" width="63" height="63" rx="15.5" fill="#FFB279"/><rect x="24.5" y="92.5" width="63" height="63" rx="15.5" stroke="#22221B"/><rect x="64" y="106" width="2.00001" height="1.99999" fill="#3B0E09"/><rect x="65.9999" y="106" width="2.00001" height="1.99999" fill="#3B0E09"/><rect x="56.0001" y="106" width="2.00001" height="1.99999" fill="#3B0E09"/><rect x="58" y="106" width="2.00001" height="1.99999" fill="#3B0E09"/><rect x="70" y="106" width="2.00001" height="1.99999" fill="#3B0E09"/><rect x="64" y="108" width="2.00001" height="1.99999" fill="#60BF32"/><rect x="54.001" y="108" width="2.00001" height="1.99999" fill="#3B0E09"/><rect x="66" y="108" width="2.00001" height="1.99999" fill="#60BF32"/><rect x="56" y="108" width="2.00001" height="1.99999" fill="#60BF32"/><rect x="68.001" y="108" width="2.00001" height="1.99999" fill="#3B0E09"/><rect x="58" y="108" width="2.00001" height="1.99999" fill="#60BF32"/><rect x="70" y="108" width="2.00001" height="1.99999" fill="#98E673"/><rect x="60.001" y="108" width="2.00001" height="1.99999" fill="#3B0E09"/><rect x="72" y="108" width="2.00001" height="1.99999" fill="#3B0E09"/><rect x="62.001" y="108" width="2.00001" height="1.99999" fill="#3B0E09"/><rect x="64" y="110.001" width="2.00001" height="1.99999" fill="#60BF32"/><rect x="66" y="110.001" width="2.00001" height="1.99999" fill="#1D793B"/><rect x="56" y="110.001" width="2.00001" height="1.99999" fill="#3B0E09"/><rect x="68.001" y="110.001" width="2.00001" height="1.99999" fill="#0FA23A"/><rect x="58" y="110.001" width="2.00001" height="1.99999" fill="#1D793B"/><rect x="70" y="110.001" width="2.00001" height="1.99999" fill="#60BF32"/><rect x="60.001" y="110.001" width="2.00001" height="1.99999" fill="#0FA23A"/><rect x="72" y="110.001" width="2.00001" height="1.99999" fill="#3B0E09"/><rect x="62.001" y="110.001" width="2.00001" height="1.99999" fill="#60BF32"/><rect x="64" y="112" width="2.00001" height="1.99999" fill="#60BF32"/><rect x="65.9999" y="112" width="2.00001" height="1.99999" fill="#0FA23A"/><rect x="68.0009" y="112" width="2.00001" height="1.99999" fill="#1D793B"/><rect x="58" y="112" width="2.00001" height="1.99999" fill="#3B0E09"/><rect x="70" y="112" width="2.00001" height="1.99999" fill="#3B0E09"/><rect x="60.001" y="112" width="2.00001" height="1.99999" fill="#1D793B"/><rect x="62.0009" y="112" width="2.00001" height="1.99999" fill="#0FA23A"/><rect x="64" y="114" width="2.00001" height="1.99999" fill="#0FA23A"/><rect x="54.001" y="114" width="2.00001" height="1.99999" fill="#3B0E09"/><rect x="66" y="114" width="2.00001" height="1.99999" fill="#1D793B"/><rect x="56" y="114" width="2.00001" height="1.99999" fill="#3B0E09"/><rect x="68.001" y="114" width="2.00001" height="1.99999" fill="#1D793B"/><rect x="58" y="114" width="2.00001" height="1.99999" fill="#1D793B"/><rect x="70" y="114" width="2.00001" height="1.99999" fill="#60BF32"/><rect x="60.001" y="114" width="2.00001" height="1.99999" fill="#1D793B"/><rect x="72" y="114" width="2.00001" height="1.99999" fill="#3B0E09"/><rect x="62.001" y="114" width="2.00001" height="1.99999" fill="#1D793B"/><rect x="52" y="116" width="2.00001" height="1.99999" fill="#3B0E09"/><rect x="64" y="116" width="2.00001" height="1.99999" fill="#0FA23A"/><rect x="54.001" y="116" width="2.00001" height="1.99999" fill="#FF9F58"/><rect x="65.9999" y="116" width="2.00001" height="1.99999" fill="#1D793B"/><rect x="56.0001" y="116" width="2.00001" height="1.99999" fill="#FB6D03"/><rect x="68.0009" y="116" width="2.00001" height="1.99999" fill="#3B0E09"/><rect x="58" y="116" width="2.00001" height="1.99999" fill="#FB3503"/><rect x="70" y="116" width="2.00001" height="1.99999" fill="#1D793B"/><rect x="60.001" y="116" width="2.00001" height="1.99999" fill="#FB3503"/><rect x="72" y="116" width="2.00001" height="1.99999" fill="#60BF32"/><rect x="62.0009" y="116" width="2.00001" height="1.99999" fill="#1D793B"/><rect x="74.0009" y="116" width="2.00001" height="1.99999" fill="#3B0E09"/><rect x="50.0001" y="118" width="2.00001" height="1.99999" fill="#3B0E09"/><rect x="52" y="118" width="2.00001" height="1.99999" fill="#FF9F58"/><rect x="64" y="118" width="2.00001" height="1.99999" fill="#B92F17"/><rect x="54.001" y="118" width="2.00001" height="1.99999" fill="#FF9F58"/><rect x="65.9999" y="118" width="2.00001" height="1.99999" fill="#1D793B"/><rect x="56.0001" y="118" width="2.00001" height="1.99999" fill="#FB6D03"/><rect x="58" y="118" width="2.00001" height="1.99999" fill="#FB6D03"/><rect x="70" y="118" width="2.00001" height="1.99999" fill="#3B0E09"/><rect x="60.001" y="118" width="2.00001" height="1.99999" fill="#FB3503"/><rect x="72" y="118" width="2.00001" height="1.99999" fill="#3B0E09"/><rect x="62.0009" y="118" width="2.00001" height="1.99999" fill="#FB3503"/><rect x="74.0009" y="118" width="2.00001" height="1.99999" fill="#3B0E09"/><rect x="40.001" y="132" width="2.00001" height="1.99999" fill="#3B0E09"/><rect x="42" y="132" width="2.00001" height="1.99999" fill="#FB6D03"/><rect x="44" y="132" width="2.00001" height="1.99999" fill="#FB6D03"/><rect x="46" y="132" width="2.00001" height="1.99999" fill="#FB3503"/><rect x="48.001" y="120" width="2.00001" height="1.99999" fill="#3B0E09"/><rect x="48.001" y="132" width="2.00001" height="1.99999" fill="#FB3503"/><rect x="50" y="120" width="2.00001" height="1.99999" fill="#B92F17"/><rect x="50" y="132" width="2.00001" height="1.99999" fill="#B92F17"/><rect x="52" y="120" width="2.00001" height="1.99999" fill="#B92F17"/><rect x="52" y="132" width="2.00001" height="1.99999" fill="#B92F17"/><rect x="64" y="120" width="2.00001" height="1.99999" fill="#B92F17"/><rect x="54.001" y="120" width="2.00001" height="1.99999" fill="#FB6D03"/><rect x="54.001" y="132" width="2.00001" height="1.99999" fill="#3B0E09"/><rect x="66" y="120" width="2.00001" height="1.99999" fill="#3B0E09"/><rect x="56" y="120" width="2.00001" height="1.99999" fill="#FB6D03"/><rect x="58" y="120" width="2.00001" height="1.99999" fill="#FB6D03"/><rect x="60.001" y="120" width="2.00001" height="1.99999" fill="#FB3503"/><rect x="62.001" y="120" width="2.00001" height="1.99999" fill="#B92F17"/><rect x="74.001" y="120" width="2.00001" height="1.99999" fill="#3B0E09"/><rect x="40.001" y="134.001" width="2.00001" height="1.99999" fill="#3B0E09"/><rect x="42.001" y="134.001" width="2.00001" height="1.99999" fill="#FB6D03"/><rect x="44" y="134.001" width="2.00001" height="1.99999" fill="#FB3503"/><rect x="46" y="134.001" width="2.00001" height="1.99999" fill="#B92F17"/><rect x="48.001" y="122" width="2.00001" height="1.99999" fill="#FF9F58"/><rect x="48.001" y="134.001" width="2.00001" height="1.99999" fill="#B92F17"/><rect x="50.0001" y="122" width="2.00001" height="1.99999" fill="#FB3503"/><rect x="50" y="134.001" width="2.00001" height="1.99999" fill="#3B0E09"/><rect x="52" y="122" width="2.00001" height="1.99999" fill="#FB3503"/><rect x="64" y="122" width="2.00001" height="1.99999" fill="#B92F17"/><rect x="54.001" y="122" width="2.00001" height="1.99999" fill="#FB6D03"/><rect x="65.9999" y="122" width="2.00001" height="1.99999" fill="#3B0E09"/><rect x="56.0001" y="122" width="2.00001" height="1.99999" fill="#FB6D03"/><rect x="58" y="122" width="2.00001" height="1.99999" fill="#FB3503"/><rect x="60.001" y="122" width="2.00001" height="1.99999" fill="#FB3503"/><rect x="62.0009" y="122" width="2.00001" height="1.99999" fill="#B92F17"/><rect x="38" y="136" width="2.00001" height="1.99999" fill="#3B0E09"/><rect x="40.001" y="136" width="2.00001" height="1.99999" fill="#FB6D03"/><rect x="41.9998" y="136" width="2.00001" height="1.99999" fill="#B92F17"/><rect x="44.0001" y="136" width="2.00001" height="1.99999" fill="#B92F17"/><rect x="46" y="124" width="2.00001" height="1.99999" fill="#3B0E09"/><rect x="46" y="136" width="2.00001" height="1.99999" fill="#B92F17"/><rect x="48.001" y="124" width="2.00001" height="1.99999" fill="#FF9F58"/><rect x="48.001" y="136" width="2.00001" height="1.99999" fill="#3B0E09"/><rect x="50.0001" y="124" width="2.00001" height="1.99999" fill="#FB6D03"/><rect x="52" y="124" width="2.00001" height="1.99999" fill="#FB3503"/><rect x="64" y="124" width="2.00001" height="1.99999" fill="#3B0E09"/><rect x="54.001" y="124" width="2.00001" height="1.99999" fill="#FB3503"/><rect x="56.0001" y="124" width="2.00001" height="1.99999" fill="#FB3503"/><rect x="58" y="124" width="2.00001" height="1.99999" fill="#FB3503"/><rect x="60.001" y="124" width="2.00001" height="1.99999" fill="#B92F17"/><rect x="62.0009" y="124" width="2.00001" height="1.99999" fill="#B92F17"/><rect x="38" y="138" width="2.00001" height="1.99999" fill="#B92F17"/><rect x="40.001" y="138" width="2.00001" height="1.99999" fill="#B92F17"/><rect x="42" y="138" width="2.00001" height="1.99999" fill="#3B0E09"/><rect x="44" y="126" width="2.00001" height="1.99999" fill="#3B0E09"/><rect x="44" y="138" width="2.00001" height="1.99999" fill="#3B0E09"/><rect x="46" y="126" width="2.00001" height="1.99999" fill="#FF9F58"/><rect x="48.001" y="126" width="2.00001" height="1.99999" fill="#FB6D03"/><rect x="50" y="126" width="2.00001" height="1.99999" fill="#FB6D03"/><rect x="52" y="126" width="2.00001" height="1.99999" fill="#FB6D03"/><rect x="54.001" y="126" width="2.00001" height="1.99999" fill="#FB3503"/><rect x="56" y="126" width="2.00001" height="1.99999" fill="#B92F17"/><rect x="58" y="126" width="2.00001" height="1.99999" fill="#B92F17"/><rect x="60.001" y="126" width="2.00001" height="1.99999" fill="#B92F17"/><rect x="62.001" y="126" width="2.00001" height="1.99999" fill="#3B0E09"/><rect x="38" y="140.001" width="2.00001" height="1.99999" fill="#3B0E09"/><rect x="40.001" y="140.001" width="2.00001" height="1.99999" fill="#3B0E09"/><rect x="44.0001" y="128" width="2.00001" height="1.99999" fill="#FB6D03"/><rect x="46" y="128" width="2.00001" height="1.99999" fill="#FB6D03"/><rect x="48.001" y="128" width="2.00001" height="1.99999" fill="#FB6D03"/><rect x="50.0001" y="128" width="2.00001" height="1.99999" fill="#FB6D03"/><rect x="52" y="128" width="2.00001" height="1.99999" fill="#FB3503"/><rect x="54.001" y="128" width="2.00001" height="1.99999" fill="#B92F17"/><rect x="56.0001" y="128" width="2.00001" height="1.99999" fill="#B92F17"/><rect x="58" y="128" width="2.00001" height="1.99999" fill="#B92F17"/><rect x="60.001" y="128" width="2.00001" height="1.99999" fill="#3B0E09"/><rect x="42.001" y="130" width="2.00001" height="1.99999" fill="#3B0E09"/><rect x="44.0001" y="130" width="2.00001" height="1.99999" fill="#FB6D03"/><rect x="46" y="130" width="2.00001" height="1.99999" fill="#FB6D03"/><rect x="48.001" y="130" width="2.00001" height="1.99999" fill="#FB3503"/><rect x="50.0001" y="130" width="2.00001" height="1.99999" fill="#FB3503"/><rect x="52" y="130" width="2.00001" height="1.99999" fill="#B92F17"/><rect x="54.001" y="130" width="2.00001" height="1.99999" fill="#B92F17"/><rect x="56.0001" y="130" width="2.00001" height="1.99999" fill="#B92F17"/><rect x="58" y="130" width="2.00001" height="1.99999" fill="#3B0E09"/><rect x="96.5" y="92.5" width="63" height="63" rx="15.5" fill="#9ED987"/><rect x="96.5" y="92.5" width="63" height="63" rx="15.5" stroke="#22221B"/><rect x="116" y="106" width="2" height="2" fill="#333A18"/><rect x="118" y="106" width="2" height="2" fill="#333A18"/><rect x="120" y="106" width="2" height="2" fill="#333A18"/><rect x="114" y="108" width="2" height="2" fill="#333A18"/><rect x="116" y="108" width="2" height="2" fill="#B6C63F"/><rect x="118" y="108" width="2" height="2" fill="#B6C63F"/><rect x="120" y="108" width="2" height="2" fill="#B6C63F"/><rect x="122" y="108" width="2" height="2" fill="#333A18"/><rect x="112" y="110" width="2" height="2" fill="#333A18"/><rect x="114" y="110" width="2" height="2" fill="#333A18"/><rect x="116" y="110" width="2" height="2" fill="#B6C63F"/><rect x="118" y="110" width="2" height="2" fill="#F7F086"/><rect x="120" y="110" width="2" height="2" fill="#F7F086"/><rect x="122" y="110" width="2" height="2" fill="#B6C63F"/><rect x="124" y="110" width="2" height="2" fill="#333A18"/><rect x="126" y="110" width="2" height="2" fill="#333A18"/><rect x="112" y="112" width="2" height="2" fill="#333A18"/><rect x="114" y="112" width="2" height="2" fill="#333A18"/><rect x="116" y="112" width="2" height="2" fill="#B6C63F"/><rect x="118" y="112" width="2" height="2" fill="#F7F086"/><rect x="120" y="112" width="2" height="2" fill="#F7F086"/><rect x="122" y="112" width="2" height="2" fill="#F7F086"/><rect x="124" y="112" width="2" height="2" fill="#B6C63F"/><rect x="126" y="112" width="2" height="2" fill="#B6C63F"/><rect x="128" y="112" width="2" height="2" fill="#333A18"/><rect x="130" y="112" width="2" height="2" fill="#333A18"/><rect x="110" y="114" width="2" height="2" fill="#333A18"/><rect x="112" y="114" width="2" height="2" fill="#333A18"/><rect x="114" y="114" width="2" height="2" fill="#333A18"/><rect x="116" y="114" width="2" height="2" fill="#B6C63F"/><rect x="118" y="114" width="2" height="2" fill="#F7F086"/><rect x="120" y="114" width="2" height="2" fill="#F7F086"/><rect x="122" y="114" width="2" height="2" fill="#F7F086"/><rect x="124" y="114" width="2" height="2" fill="#F7F086"/><rect x="126" y="114" width="2" height="2" fill="#F7F086"/><rect x="128" y="114" width="2" height="2" fill="#B6C63F"/><rect x="130" y="114" width="2" height="2" fill="#B6C63F"/><rect x="132" y="114" width="2" height="2" fill="#333A18"/><rect x="134" y="114" width="2" height="2" fill="#333A18"/><rect x="110" y="116" width="2" height="2" fill="#333A18"/><rect x="112" y="116" width="2" height="2" fill="#333A18"/><rect x="114" y="116" width="2" height="2" fill="#333A18"/><rect x="116" y="116" width="2" height="2" fill="#B6C63F"/><rect x="118" y="116" width="2" height="2" fill="#F7F086"/><rect x="120" y="116" width="2" height="2" fill="#F7F086"/><rect x="122" y="116" width="2" height="2" fill="#F7F086"/><rect x="124" y="116" width="2" height="2" fill="#F7F086"/><rect x="136" y="116" width="2" height="2" fill="#333A18"/><rect x="126" y="116" width="2" height="2" fill="#F7F086"/><rect x="128" y="116" width="2" height="2" fill="#F7F086"/><rect x="130" y="116" width="2" height="2" fill="#F7F086"/><rect x="132" y="116" width="2" height="2" fill="#B6C63F"/><rect x="134" y="116" width="2" height="2" fill="#B6C63F"/><rect x="110" y="118" width="2" height="2" fill="#191D0C"/><rect x="112" y="118" width="2" height="2" fill="#333A18"/><rect x="114" y="118" width="2" height="2" fill="#333A18"/><rect x="114" y="130" width="2" height="2" fill="#191D0C"/><rect x="116" y="118" width="2" height="2" fill="#333A18"/><rect x="116" y="130" width="2" height="2" fill="#333A18"/><rect x="118" y="118" width="2" height="2" fill="#B6C63F"/><rect x="118" y="130" width="2" height="2" fill="#333A18"/><rect x="120" y="118" width="2" height="2" fill="#F7F086"/><rect x="120" y="130" width="2" height="2" fill="#333A18"/><rect x="122" y="118" width="2" height="2" fill="#F7F086"/><rect x="122" y="130" width="2" height="2" fill="#B6C63F"/><rect x="124" y="118" width="2" height="2" fill="#F7F086"/><rect x="124" y="130" width="2" height="2" fill="#B6C63F"/><rect x="136" y="118" width="2" height="2" fill="#B6C63F"/><rect x="136" y="130" width="2" height="2" fill="#F7F086"/><rect x="126" y="118" width="2" height="2" fill="#F7F086"/><rect x="126" y="130" width="2" height="2" fill="#F7F086"/><rect x="138" y="118" width="2" height="2" fill="#333A18"/><rect x="138" y="130" width="2" height="2" fill="#F7F086"/><rect x="128" y="118" width="2" height="2" fill="#F7F086"/><rect x="128" y="130" width="2" height="2" fill="#F7F086"/><rect x="140" y="130" width="2" height="2" fill="#F7F086"/><rect x="130" y="118" width="2" height="2" fill="#F7F086"/><rect x="130" y="130" width="2" height="2" fill="#F7F086"/><rect x="142" y="130" width="2" height="2" fill="#B6C63F"/><rect x="132" y="118" width="2" height="2" fill="#F7F086"/><rect x="132" y="130" width="2" height="2" fill="#49241C"/><rect x="144" y="130" width="2" height="2" fill="#333A18"/><rect x="134" y="118" width="2" height="2" fill="#F7F086"/><rect x="134" y="130" width="2" height="2" fill="#49241C"/><rect x="110" y="120" width="2" height="2" fill="#191D0C"/><rect x="112" y="120" width="2" height="2" fill="#333A18"/><rect x="114" y="120" width="2" height="2" fill="#333A18"/><rect x="116" y="120" width="2" height="2" fill="#333A18"/><rect x="116" y="132" width="2" height="2" fill="#191D0C"/><rect x="118" y="120" width="2" height="2" fill="#B6C63F"/><rect x="118" y="132" width="2" height="2" fill="#333A18"/><rect x="120" y="120" width="2" height="2" fill="#F7F086"/><rect x="120" y="132" width="2" height="2" fill="#333A18"/><rect x="122" y="120" width="2" height="2" fill="#F7F086"/><rect x="122" y="132" width="2" height="2" fill="#333A18"/><rect x="124" y="120" width="2" height="2" fill="#F7F086"/><rect x="124" y="132" width="2" height="2" fill="#B6C63F"/><rect x="136" y="120" width="2" height="2" fill="#F7F086"/><rect x="136" y="132" width="2" height="2" fill="#F7F086"/><rect x="126" y="120" width="2" height="2" fill="#F7F086"/><rect x="126" y="132" width="2" height="2" fill="#B6C63F"/><rect x="138" y="120" width="2" height="2" fill="#B6C63F"/><rect x="138" y="132" width="2" height="2" fill="#F7F086"/><rect x="128" y="120" width="2" height="2" fill="#F7F086"/><rect x="128" y="132" width="2" height="2" fill="#F7F086"/><rect x="140" y="120" width="2" height="2" fill="#333A18"/><rect x="140" y="132" width="2" height="2" fill="#B6C63F"/><rect x="130" y="120" width="2" height="2" fill="#6D3023"/><rect x="130" y="132" width="2" height="2" fill="#F7F086"/><rect x="142" y="132" width="2" height="2" fill="#B6C63F"/><rect x="132" y="120" width="2" height="2" fill="#AE6251"/><rect x="132" y="132" width="2" height="2" fill="#F7F086"/><rect x="144" y="132" width="2" height="2" fill="#333A18"/><rect x="134" y="120" width="2" height="2" fill="#F7F086"/><rect x="134" y="132" width="2" height="2" fill="#F7F086"/><rect x="112" y="122" width="2" height="2" fill="#191D0C"/><rect x="114" y="122" width="2" height="2" fill="#333A18"/><rect x="116" y="122" width="2" height="2" fill="#333A18"/><rect x="118" y="122" width="2" height="2" fill="#333A18"/><rect x="118" y="134" width="2" height="2" fill="#191D0C"/><rect x="120" y="122" width="2" height="2" fill="#B6C63F"/><rect x="120" y="134" width="2" height="2" fill="#333A18"/><rect x="122" y="122" width="2" height="2" fill="#F7F086"/><rect x="122" y="134" width="2" height="2" fill="#333A18"/><rect x="124" y="122" width="2" height="2" fill="#F7F086"/><rect x="124" y="134" width="2" height="2" fill="#333A18"/><rect x="136" y="122" width="2" height="2" fill="#F7F086"/><rect x="136" y="134" width="2" height="2" fill="#F7F086"/><rect x="126" y="122" width="2" height="2" fill="#F7F086"/><rect x="126" y="134" width="2" height="2" fill="#B6C63F"/><rect x="138" y="122" width="2" height="2" fill="#F7F086"/><rect x="138" y="134" width="2" height="2" fill="#B6C63F"/><rect x="128" y="122" width="2" height="2" fill="#6D3023"/><rect x="128" y="134" width="2" height="2" fill="#B6C63F"/><rect x="140" y="122" width="2" height="2" fill="#B6C63F"/><rect x="140" y="134" width="2" height="2" fill="#B6C63F"/><rect x="130" y="122" width="2" height="2" fill="#6D3023"/><rect x="130" y="134" width="2" height="2" fill="#F7F086"/><rect x="142" y="122" width="2" height="2" fill="#333A18"/><rect x="142" y="134" width="2" height="2" fill="#333A18"/><rect x="132" y="122" width="2" height="2" fill="#6D3023"/><rect x="132" y="134" width="2" height="2" fill="#F7F086"/><rect x="134" y="122" width="2" height="2" fill="#AE6251"/><rect x="134" y="134" width="2" height="2" fill="#F7F086"/><rect x="112" y="124" width="2" height="2" fill="#191D0C"/><rect x="114" y="124" width="2" height="2" fill="#333A18"/><rect x="116" y="124" width="2" height="2" fill="#333A18"/><rect x="118" y="124" width="2" height="2" fill="#333A18"/><rect x="118" y="136" width="2" height="2" fill="#191D0C"/><rect x="120" y="124" width="2" height="2" fill="#B6C63F"/><rect x="120" y="136" width="2" height="2" fill="#191D0C"/><rect x="122" y="124" width="2" height="2" fill="#F7F086"/><rect x="122" y="136" width="2" height="2" fill="#333A18"/><rect x="124" y="124" width="2" height="2" fill="#F7F086"/><rect x="124" y="136" width="2" height="2" fill="#333A18"/><rect x="136" y="124" width="2" height="2" fill="#AE6251"/><rect x="136" y="136" width="2" height="2" fill="#B6C63F"/><rect x="126" y="124" width="2" height="2" fill="#F7F086"/><rect x="126" y="136" width="2" height="2" fill="#333A18"/><rect x="138" y="124" width="2" height="2" fill="#F7F086"/><rect x="138" y="136" width="2" height="2" fill="#B6C63F"/><rect x="128" y="124" width="2" height="2" fill="#6D3023"/><rect x="128" y="136" width="2" height="2" fill="#B6C63F"/><rect x="140" y="124" width="2" height="2" fill="#B6C63F"/><rect x="140" y="136" width="2" height="2" fill="#333A18"/><rect x="130" y="124" width="2" height="2" fill="#6D3023"/><rect x="130" y="136" width="2" height="2" fill="#B6C63F"/><rect x="142" y="124" width="2" height="2" fill="#333A18"/><rect x="132" y="124" width="2" height="2" fill="#6D3023"/><rect x="132" y="136" width="2" height="2" fill="#B6C63F"/><rect x="134" y="124" width="2" height="2" fill="#6D3023"/><rect x="134" y="136" width="2" height="2" fill="#B6C63F"/><rect x="114" y="126" width="2" height="2" fill="#191D0C"/><rect x="116" y="126" width="2" height="2" fill="#333A18"/><rect x="118" y="126" width="2" height="2" fill="#333A18"/><rect x="120" y="126" width="2" height="2" fill="#B6C63F"/><rect x="122" y="126" width="2" height="2" fill="#B6C63F"/><rect x="122" y="138" width="2" height="2" fill="#191D0C"/><rect x="124" y="126" width="2" height="2" fill="#F7F086"/><rect x="124" y="138" width="2" height="2" fill="#191D0C"/><rect x="136" y="126" width="2" height="2" fill="#AE6251"/><rect x="136" y="138" width="2" height="2" fill="#333A18"/><rect x="126" y="126" width="2" height="2" fill="#F7F086"/><rect x="126" y="138" width="2" height="2" fill="#333A18"/><rect x="138" y="126" width="2" height="2" fill="#F7F086"/><rect x="138" y="138" width="2" height="2" fill="#191D0C"/><rect x="128" y="126" width="2" height="2" fill="#6D3023"/><rect x="128" y="138" width="2" height="2" fill="#333A18"/><rect x="140" y="126" width="2" height="2" fill="#F7F086"/><rect x="130" y="126" width="2" height="2" fill="#6D3023"/><rect x="130" y="138" width="2" height="2" fill="#333A18"/><rect x="142" y="126" width="2" height="2" fill="#B6C63F"/><rect x="132" y="126" width="2" height="2" fill="#6D3023"/><rect x="132" y="138" width="2" height="2" fill="#333A18"/><rect x="144" y="126" width="2" height="2" fill="#333A18"/><rect x="134" y="126" width="2" height="2" fill="#6D3023"/><rect x="134" y="138" width="2" height="2" fill="#333A18"/><rect x="114" y="128" width="2" height="2" fill="#191D0C"/><rect x="116" y="128" width="2" height="2" fill="#333A18"/><rect x="118" y="128" width="2" height="2" fill="#333A18"/><rect x="120" y="128" width="2" height="2" fill="#333A18"/><rect x="122" y="128" width="2" height="2" fill="#B6C63F"/><rect x="124" y="128" width="2" height="2" fill="#F7F086"/><rect x="124" y="140" width="2" height="2" fill="#191D0C"/><rect x="136" y="128" width="2" height="2" fill="#6D3023"/><rect x="136" y="140" width="2" height="2" fill="#191D0C"/><rect x="126" y="128" width="2" height="2" fill="#F7F086"/><rect x="126" y="140" width="2" height="2" fill="#191D0C"/><rect x="138" y="128" width="2" height="2" fill="#F7F086"/><rect x="128" y="128" width="2" height="2" fill="#F7F086"/><rect x="128" y="140" width="2" height="2" fill="#191D0C"/><rect x="140" y="128" width="2" height="2" fill="#F7F086"/><rect x="130" y="128" width="2" height="2" fill="#49241C"/><rect x="130" y="140" width="2" height="2" fill="#191D0C"/><rect x="142" y="128" width="2" height="2" fill="#B6C63F"/><rect x="132" y="128" width="2" height="2" fill="#6D3023"/><rect x="132" y="140" width="2" height="2" fill="#191D0C"/><rect x="144" y="128" width="2" height="2" fill="#333A18"/><rect x="134" y="128" width="2" height="2" fill="#6D3023"/><rect x="134" y="140" width="2" height="2" fill="#191D0C"/><rect x="168.5" y="92.5" width="63" height="63" rx="15.5" fill="#FFCBC5"/><rect x="168.5" y="92.5" width="63" height="63" rx="15.5" stroke="#22221B"/><rect x="198" y="106" width="2" height="2" fill="#1A5F20"/><rect x="200" y="108" width="2" height="2" fill="#1A5F20"/><rect x="206" y="108" width="2" height="2" fill="#1A5F20"/><rect x="188" y="110" width="2" height="2" fill="#1A5F20"/><rect x="190" y="110" width="2" height="2" fill="#4AA152"/><rect x="192" y="110" width="2" height="2" fill="#4AA152"/><rect x="194" y="110" width="2" height="2" fill="#1A5F20"/><rect x="208" y="110" width="2" height="2" fill="#1A5F20"/><rect x="198" y="110" width="2" height="2" fill="#1A5F20"/><rect x="200" y="110" width="2" height="2" fill="#4AA152"/><rect x="204" y="110" width="2" height="2" fill="#1A5F20"/><rect x="206" y="110" width="2" height="2" fill="#4AA152"/><rect x="186" y="112" width="2" height="2" fill="#09360D"/><rect x="188" y="112" width="2" height="2" fill="#09360D"/><rect x="190" y="112" width="2" height="2" fill="#09360D"/><rect x="192" y="112" width="2" height="2" fill="#1A5F20"/><rect x="194" y="112" width="2" height="2" fill="#4AA152"/><rect x="196" y="112" width="2" height="2" fill="#189A24"/><rect x="208" y="112" width="2" height="2" fill="#09360D"/><rect x="198" y="112" width="2" height="2" fill="#189A24"/><rect x="210" y="112" width="2" height="2" fill="#1A5F20"/><rect x="200" y="112" width="2" height="2" fill="#1A5F20"/><rect x="202" y="112" width="2" height="2" fill="#1A5F20"/><rect x="204" y="112" width="2" height="2" fill="#4AA152"/><rect x="206" y="112" width="2" height="2" fill="#1A5F20"/><rect x="184" y="114" width="2" height="2" fill="#1A5F20"/><rect x="194" y="114" width="2" height="2" fill="#1A5F20"/><rect x="196" y="114" width="2" height="2" fill="#4AA152"/><rect x="198" y="114" width="2" height="2" fill="#1A5F20"/><rect x="200" y="114" width="2" height="2" fill="#4AA152"/><rect x="202" y="114" width="2" height="2" fill="#189A24"/><rect x="204" y="114" width="2" height="2" fill="#1A5F20"/><rect x="206" y="114" width="2" height="2" fill="#09360D"/><rect x="190" y="116" width="2" height="2" fill="#5D1024"/><rect x="192" y="116" width="2" height="2" fill="#1A5F20"/><rect x="194" y="116" width="2" height="2" fill="#1A5F20"/><rect x="196" y="116" width="2" height="2" fill="#4AA152"/><rect x="198" y="116" width="2" height="2" fill="#821E38"/><rect x="200" y="116" width="2" height="2" fill="#821E38"/><rect x="202" y="116" width="2" height="2" fill="#09360D"/><rect x="204" y="116" width="2" height="2" fill="#4AA152"/><rect x="206" y="116" width="2" height="2" fill="#1A5F20"/><rect x="184" y="130" width="2" height="2" fill="#2D0711"/><rect x="186" y="130" width="2" height="2" fill="#5D1024"/><rect x="188" y="118" width="2" height="2" fill="#2D0711"/><rect x="188" y="130" width="2" height="2" fill="#5D1024"/><rect x="190" y="118" width="2" height="2" fill="#821E38"/><rect x="190" y="130" width="2" height="2" fill="#821E38"/><rect x="192" y="118" width="2" height="2" fill="#AF203E"/><rect x="192" y="130" width="2" height="2" fill="#821E38"/><rect x="194" y="118" width="2" height="2" fill="#09360D"/><rect x="194" y="130" width="2" height="2" fill="#821E38"/><rect x="196" y="118" width="2" height="2" fill="#AF203E"/><rect x="196" y="130" width="2" height="2" fill="#AF203E"/><rect x="208" y="118" width="2" height="2" fill="#2D0711"/><rect x="208" y="130" width="2" height="2" fill="#D64042"/><rect x="198" y="118" width="2" height="2" fill="#AF203E"/><rect x="198" y="130" width="2" height="2" fill="#D64042"/><rect x="210" y="118" width="2" height="2" fill="#2D0711"/><rect x="210" y="130" width="2" height="2" fill="#D64042"/><rect x="200" y="118" width="2" height="2" fill="#AF203E"/><rect x="200" y="130" width="2" height="2" fill="#D64042"/><rect x="212" y="130" width="2" height="2" fill="#D64042"/><rect x="202" y="118" width="2" height="2" fill="#821E38"/><rect x="202" y="130" width="2" height="2" fill="#D64042"/><rect x="214" y="130" width="2" height="2" fill="#D64042"/><rect x="204" y="118" width="2" height="2" fill="#821E38"/><rect x="204" y="130" width="2" height="2" fill="#D64042"/><rect x="206" y="118" width="2" height="2" fill="#821E38"/><rect x="206" y="130" width="2" height="2" fill="#D64042"/><rect x="184" y="132" width="2" height="2" fill="#2D0711"/><rect x="186" y="120" width="2" height="2" fill="#2D0711"/><rect x="186" y="132" width="2" height="2" fill="#5D1024"/><rect x="188" y="120" width="2" height="2" fill="#821E38"/><rect x="188" y="132" width="2" height="2" fill="#5D1024"/><rect x="190" y="120" width="2" height="2" fill="#821E38"/><rect x="190" y="132" width="2" height="2" fill="#5D1024"/><rect x="192" y="120" width="2" height="2" fill="#AF203E"/><rect x="192" y="132" width="2" height="2" fill="#821E38"/><rect x="194" y="120" width="2" height="2" fill="#AF203E"/><rect x="194" y="132" width="2" height="2" fill="#821E38"/><rect x="196" y="120" width="2" height="2" fill="#D64042"/><rect x="196" y="132" width="2" height="2" fill="#821E38"/><rect x="208" y="120" width="2" height="2" fill="#D64042"/><rect x="208" y="132" width="2" height="2" fill="#AF203E"/><rect x="198" y="120" width="2" height="2" fill="#D64042"/><rect x="198" y="132" width="2" height="2" fill="#AF203E"/><rect x="210" y="120" width="2" height="2" fill="#D64042"/><rect x="210" y="132" width="2" height="2" fill="#D64042"/><rect x="200" y="120" width="2" height="2" fill="#D64042"/><rect x="200" y="132" width="2" height="2" fill="#AF203E"/><rect x="212" y="120" width="2" height="2" fill="#2D0711"/><rect x="212" y="132" width="2" height="2" fill="#D64042"/><rect x="202" y="120" width="2" height="2" fill="#AF203E"/><rect x="202" y="132" width="2" height="2" fill="#AF203E"/><rect x="214" y="132" width="2" height="2" fill="#D64042"/><rect x="204" y="120" width="2" height="2" fill="#AF203E"/><rect x="204" y="132" width="2" height="2" fill="#AF203E"/><rect x="206" y="120" width="2" height="2" fill="#AF203E"/><rect x="206" y="132" width="2" height="2" fill="#AF203E"/><rect x="184" y="122" width="2" height="2" fill="#5D1024"/><rect x="186" y="122" width="2" height="2" fill="#5D1024"/><rect x="186" y="134" width="2" height="2" fill="#2D0711"/><rect x="188" y="122" width="2" height="2" fill="#821E38"/><rect x="188" y="134" width="2" height="2" fill="#821E38"/><rect x="190" y="122" width="2" height="2" fill="#821E38"/><rect x="190" y="134" width="2" height="2" fill="#5D1024"/><rect x="192" y="122" width="2" height="2" fill="#AF203E"/><rect x="192" y="134" width="2" height="2" fill="#5D1024"/><rect x="194" y="122" width="2" height="2" fill="#D64042"/><rect x="194" y="134" width="2" height="2" fill="#821E38"/><rect x="196" y="122" width="2" height="2" fill="#D64042"/><rect x="196" y="134" width="2" height="2" fill="#821E38"/><rect x="208" y="122" width="2" height="2" fill="#D64042"/><rect x="208" y="134" width="2" height="2" fill="#821E38"/><rect x="198" y="122" width="2" height="2" fill="#D64042"/><rect x="198" y="134" width="2" height="2" fill="#821E38"/><rect x="210" y="122" width="2" height="2" fill="#D64042"/><rect x="210" y="134" width="2" height="2" fill="#AF203E"/><rect x="200" y="122" width="2" height="2" fill="#D64042"/><rect x="200" y="134" width="2" height="2" fill="#821E38"/><rect x="212" y="122" width="2" height="2" fill="#EC6F46"/><rect x="212" y="134" width="2" height="2" fill="#AF203E"/><rect x="202" y="122" width="2" height="2" fill="#D64042"/><rect x="202" y="134" width="2" height="2" fill="#821E38"/><rect x="214" y="122" width="2" height="2" fill="#D64042"/><rect x="204" y="122" width="2" height="2" fill="#D64042"/><rect x="204" y="134" width="2" height="2" fill="#821E38"/><rect x="206" y="122" width="2" height="2" fill="#D64042"/><rect x="206" y="134" width="2" height="2" fill="#821E38"/><rect x="184" y="124" width="2" height="2" fill="#2D0711"/><rect x="186" y="124" width="2" height="2" fill="#5D1024"/><rect x="188" y="124" width="2" height="2" fill="#821E38"/><rect x="188" y="136" width="2" height="2" fill="#2D0711"/><rect x="190" y="124" width="2" height="2" fill="#821E38"/><rect x="190" y="136" width="2" height="2" fill="#821E38"/><rect x="192" y="124" width="2" height="2" fill="#AF203E"/><rect x="192" y="136" width="2" height="2" fill="#5D1024"/><rect x="194" y="124" width="2" height="2" fill="#D64042"/><rect x="194" y="136" width="2" height="2" fill="#5D1024"/><rect x="196" y="124" width="2" height="2" fill="#D64042"/><rect x="196" y="136" width="2" height="2" fill="#5D1024"/><rect x="208" y="124" width="2" height="2" fill="#D64042"/><rect x="208" y="136" width="2" height="2" fill="#821E38"/><rect x="198" y="124" width="2" height="2" fill="#D64042"/><rect x="198" y="136" width="2" height="2" fill="#821E38"/><rect x="210" y="124" width="2" height="2" fill="#ECB77B"/><rect x="210" y="136" width="2" height="2" fill="#821E38"/><rect x="200" y="124" width="2" height="2" fill="#D64042"/><rect x="200" y="136" width="2" height="2" fill="#821E38"/><rect x="212" y="124" width="2" height="2" fill="#D64042"/><rect x="202" y="124" width="2" height="2" fill="#D64042"/><rect x="202" y="136" width="2" height="2" fill="#821E38"/><rect x="214" y="124" width="2" height="2" fill="#D64042"/><rect x="204" y="124" width="2" height="2" fill="#D64042"/><rect x="204" y="136" width="2" height="2" fill="#821E38"/><rect x="206" y="124" width="2" height="2" fill="#D64042"/><rect x="206" y="136" width="2" height="2" fill="#821E38"/><rect x="184" y="126" width="2" height="2" fill="#2D0711"/><rect x="186" y="126" width="2" height="2" fill="#5D1024"/><rect x="188" y="126" width="2" height="2" fill="#821E38"/><rect x="190" y="126" width="2" height="2" fill="#821E38"/><rect x="190" y="138" width="2" height="2" fill="#2D0711"/><rect x="192" y="126" width="2" height="2" fill="#AF203E"/><rect x="192" y="138" width="2" height="2" fill="#821E38"/><rect x="194" y="126" width="2" height="2" fill="#D64042"/><rect x="194" y="138" width="2" height="2" fill="#2D0711"/><rect x="196" y="126" width="2" height="2" fill="#D64042"/><rect x="196" y="138" width="2" height="2" fill="#2D0711"/><rect x="208" y="126" width="2" height="2" fill="#EC6F46"/><rect x="208" y="138" width="2" height="2" fill="#2D0711"/><rect x="198" y="126" width="2" height="2" fill="#D64042"/><rect x="198" y="138" width="2" height="2" fill="#2D0711"/><rect x="210" y="126" width="2" height="2" fill="#EC6F46"/><rect x="200" y="126" width="2" height="2" fill="#D64042"/><rect x="200" y="138" width="2" height="2" fill="#5D1024"/><rect x="212" y="126" width="2" height="2" fill="#D64042"/><rect x="202" y="126" width="2" height="2" fill="#D64042"/><rect x="202" y="138" width="2" height="2" fill="#2D0711"/><rect x="214" y="126" width="2" height="2" fill="#D64042"/><rect x="204" y="126" width="2" height="2" fill="#EC6F46"/><rect x="204" y="138" width="2" height="2" fill="#821E38"/><rect x="206" y="126" width="2" height="2" fill="#D64042"/><rect x="206" y="138" width="2" height="2" fill="#2D0711"/><rect x="184" y="128" width="2" height="2" fill="#2D0711"/><rect x="186" y="128" width="2" height="2" fill="#5D1024"/><rect x="188" y="128" width="2" height="2" fill="#821E38"/><rect x="190" y="128" width="2" height="2" fill="#821E38"/><rect x="192" y="128" width="2" height="2" fill="#821E38"/><rect x="194" y="128" width="2" height="2" fill="#AF203E"/><rect x="196" y="128" width="2" height="2" fill="#D64042"/><rect x="208" y="128" width="2" height="2" fill="#D64042"/><rect x="198" y="128" width="2" height="2" fill="#D64042"/><rect x="210" y="128" width="2" height="2" fill="#D64042"/><rect x="200" y="128" width="2" height="2" fill="#D64042"/><rect x="212" y="128" width="2" height="2" fill="#D64042"/><rect x="202" y="128" width="2" height="2" fill="#D64042"/><rect x="214" y="128" width="2" height="2" fill="#D64042"/><rect x="204" y="128" width="2" height="2" fill="#D64042"/><rect x="206" y="128" width="2" height="2" fill="#D64042"/><rect x="240.5" y="92.5" width="63" height="63" rx="15.5" fill="#F6E78C"/><rect x="240.5" y="92.5" width="63" height="63" rx="15.5" stroke="#22221B"/><rect x="280" y="108" width="2" height="2" fill="#DF742C"/><rect x="276" y="108" width="2" height="2" fill="#DF742C"/><rect x="278" y="108" width="2" height="2" fill="#DF742C"/><rect x="280" y="110" width="2" height="2" fill="#FEBE5D"/><rect x="282" y="110" width="2" height="2" fill="#DF742C"/><rect x="272" y="110" width="2" height="2" fill="#AF4D0B"/><rect x="274" y="110" width="2" height="2" fill="#DF742C"/><rect x="276" y="110" width="2" height="2" fill="#FEBE5D"/><rect x="278" y="110" width="2" height="2" fill="#DF742C"/><rect x="266" y="112" width="2" height="2" fill="#3D1B0A"/><rect x="280" y="112" width="2" height="2" fill="#FCDA5B"/><rect x="270" y="112" width="2" height="2" fill="#AF4D0B"/><rect x="282" y="112" width="2" height="2" fill="#DF742C"/><rect x="272" y="112" width="2" height="2" fill="#FEBE5D"/><rect x="274" y="112" width="2" height="2" fill="#FEBE5D"/><rect x="276" y="112" width="2" height="2" fill="#DF742C"/><rect x="278" y="112" width="2" height="2" fill="#FEBE5D"/><rect x="264" y="114" width="2" height="2" fill="#3D1B0A"/><rect x="266" y="114" width="2" height="2" fill="#3D1B0A"/><rect x="268" y="114" width="2" height="2" fill="#3D1B0A"/><rect x="280" y="114" width="2" height="2" fill="#F6A427"/><rect x="270" y="114" width="2" height="2" fill="#F6A427"/><rect x="282" y="114" width="2" height="2" fill="#DF742C"/><rect x="272" y="114" width="2" height="2" fill="#FEBE5D"/><rect x="274" y="114" width="2" height="2" fill="#FCDA5B"/><rect x="276" y="114" width="2" height="2" fill="#FEBE5D"/><rect x="278" y="114" width="2" height="2" fill="#DF742C"/><rect x="258" y="116" width="2" height="2" fill="#3D1B0A"/><rect x="264" y="116" width="2" height="2" fill="#3D1B0A"/><rect x="266" y="116" width="2" height="2" fill="#69412D"/><rect x="268" y="116" width="2" height="2" fill="#DF742C"/><rect x="280" y="116" width="2" height="2" fill="#F6A427"/><rect x="270" y="116" width="2" height="2" fill="#F6A427"/><rect x="282" y="116" width="2" height="2" fill="#DF742C"/><rect x="272" y="116" width="2" height="2" fill="#DF742C"/><rect x="274" y="116" width="2" height="2" fill="#DF742C"/><rect x="276" y="116" width="2" height="2" fill="#FEBE5D"/><rect x="278" y="116" width="2" height="2" fill="#F6A427"/><rect x="260" y="118" width="2" height="2" fill="#3D1B0A"/><rect x="264" y="118" width="2" height="2" fill="#3D1B0A"/><rect x="266" y="118" width="2" height="2" fill="#69412D"/><rect x="268" y="118" width="2" height="2" fill="#DF742C"/><rect x="280" y="118" width="2" height="2" fill="#FCDA5B"/><rect x="270" y="118" width="2" height="2" fill="#F6A427"/><rect x="282" y="118" width="2" height="2" fill="#AF4D0B"/><rect x="272" y="118" width="2" height="2" fill="#FEBE5D"/><rect x="274" y="118" width="2" height="2" fill="#FCDA5B"/><rect x="276" y="118" width="2" height="2" fill="#FEBE5D"/><rect x="278" y="118" width="2" height="2" fill="#FEBE5D"/><rect x="258" y="120" width="2" height="2" fill="#2B8E3B"/><rect x="258" y="132" width="2" height="2" fill="#0F5F1C"/><rect x="260" y="120" width="2" height="2" fill="#3FB753"/><rect x="260" y="132" width="2" height="2" fill="#2B8E3B"/><rect x="262" y="120" width="2" height="2" fill="#3D1B0A"/><rect x="262" y="132" width="2" height="2" fill="#77B73F"/><rect x="264" y="120" width="2" height="2" fill="#69412D"/><rect x="264" y="132" width="2" height="2" fill="#3D1B0A"/><rect x="266" y="120" width="2" height="2" fill="#DF742C"/><rect x="266" y="132" width="2" height="2" fill="#F6A427"/><rect x="268" y="120" width="2" height="2" fill="#F6A427"/><rect x="268" y="132" width="2" height="2" fill="#AF4D0B"/><rect x="280" y="120" width="2" height="2" fill="#AF4D0B"/><rect x="280" y="132" width="2" height="2" fill="#3D1B0A"/><rect x="270" y="120" width="2" height="2" fill="#DF742C"/><rect x="270" y="132" width="2" height="2" fill="#FEBE5D"/><rect x="282" y="132" width="2" height="2" fill="#3D1B0A"/><rect x="272" y="120" width="2" height="2" fill="#DF742C"/><rect x="272" y="132" width="2" height="2" fill="#3D1B0A"/><rect x="284" y="132" width="2" height="2" fill="#2B8E3B"/><rect x="274" y="120" width="2" height="2" fill="#FEBE5D"/><rect x="274" y="132" width="2" height="2" fill="#69412D"/><rect x="286" y="132" width="2" height="2" fill="#3FB753"/><rect x="276" y="120" width="2" height="2" fill="#FEBE5D"/><rect x="276" y="132" width="2" height="2" fill="#2B8E3B"/><rect x="278" y="120" width="2" height="2" fill="#FEBE5D"/><rect x="278" y="132" width="2" height="2" fill="#2B8E3B"/><rect x="258" y="134" width="2" height="2" fill="#0F5F1C"/><rect x="260" y="122" width="2" height="2" fill="#2B8E3B"/><rect x="260" y="134" width="2" height="2" fill="#229735"/><rect x="262" y="122" width="2" height="2" fill="#3D1B0A"/><rect x="262" y="134" width="2" height="2" fill="#3FB753"/><rect x="264" y="122" width="2" height="2" fill="#DF742C"/><rect x="264" y="134" width="2" height="2" fill="#3D1B0A"/><rect x="266" y="122" width="2" height="2" fill="#F6A427"/><rect x="266" y="134" width="2" height="2" fill="#AF4D0B"/><rect x="268" y="122" width="2" height="2" fill="#F6A427"/><rect x="268" y="134" width="2" height="2" fill="#77B73F"/><rect x="280" y="122" width="2" height="2" fill="#DF742C"/><rect x="270" y="122" width="2" height="2" fill="#FEBE5D"/><rect x="270" y="134" width="2" height="2" fill="#3FB753"/><rect x="272" y="122" width="2" height="2" fill="#FCDA5B"/><rect x="272" y="134" width="2" height="2" fill="#3FB753"/><rect x="274" y="122" width="2" height="2" fill="#DF742C"/><rect x="274" y="134" width="2" height="2" fill="#3FB753"/><rect x="276" y="122" width="2" height="2" fill="#FEBE5D"/><rect x="276" y="134" width="2" height="2" fill="#3D1B0A"/><rect x="278" y="122" width="2" height="2" fill="#DF742C"/><rect x="278" y="134" width="2" height="2" fill="#3D1B0A"/><rect x="258" y="136" width="2" height="2" fill="#0F5F1C"/><rect x="260" y="124" width="2" height="2" fill="#77B73F"/><rect x="260" y="136" width="2" height="2" fill="#229735"/><rect x="262" y="124" width="2" height="2" fill="#3FB753"/><rect x="262" y="136" width="2" height="2" fill="#229735"/><rect x="264" y="124" width="2" height="2" fill="#3D1B0A"/><rect x="264" y="136" width="2" height="2" fill="#3FB753"/><rect x="266" y="124" width="2" height="2" fill="#F6A427"/><rect x="266" y="136" width="2" height="2" fill="#2B8E3B"/><rect x="268" y="124" width="2" height="2" fill="#F6A427"/><rect x="268" y="136" width="2" height="2" fill="#2B8E3B"/><rect x="280" y="124" width="2" height="2" fill="#3D1B0A"/><rect x="270" y="124" width="2" height="2" fill="#DF742C"/><rect x="270" y="136" width="2" height="2" fill="#2B8E3B"/><rect x="282" y="124" width="2" height="2" fill="#3D1B0A"/><rect x="272" y="124" width="2" height="2" fill="#DF742C"/><rect x="272" y="136" width="2" height="2" fill="#2B8E3B"/><rect x="284" y="124" width="2" height="2" fill="#69412D"/><rect x="274" y="124" width="2" height="2" fill="#FEBE5D"/><rect x="274" y="136" width="2" height="2" fill="#3D1B0A"/><rect x="276" y="124" width="2" height="2" fill="#FEBE5D"/><rect x="278" y="124" width="2" height="2" fill="#FCDA5B"/><rect x="258" y="138" width="2" height="2" fill="#0F5F1C"/><rect x="260" y="126" width="2" height="2" fill="#0F5F1C"/><rect x="260" y="138" width="2" height="2" fill="#0F5F1C"/><rect x="262" y="126" width="2" height="2" fill="#2B8E3B"/><rect x="262" y="138" width="2" height="2" fill="#229735"/><rect x="264" y="126" width="2" height="2" fill="#2B8E3B"/><rect x="264" y="138" width="2" height="2" fill="#229735"/><rect x="266" y="126" width="2" height="2" fill="#F6A427"/><rect x="266" y="138" width="2" height="2" fill="#2B8E3B"/><rect x="268" y="126" width="2" height="2" fill="#FEBE5D"/><rect x="268" y="138" width="2" height="2" fill="#2B8E3B"/><rect x="280" y="126" width="2" height="2" fill="#3D1B0A"/><rect x="270" y="126" width="2" height="2" fill="#FEBE5D"/><rect x="270" y="138" width="2" height="2" fill="#77B73F"/><rect x="282" y="126" width="2" height="2" fill="#69412D"/><rect x="272" y="126" width="2" height="2" fill="#FCDA5B"/><rect x="272" y="138" width="2" height="2" fill="#3D1B0A"/><rect x="274" y="126" width="2" height="2" fill="#FEBE5D"/><rect x="276" y="126" width="2" height="2" fill="#DF742C"/><rect x="278" y="126" width="2" height="2" fill="#DF742C"/><rect x="260" y="128" width="2" height="2" fill="#0F5F1C"/><rect x="260" y="140" width="2" height="2" fill="#0F5F1C"/><rect x="262" y="128" width="2" height="2" fill="#2B8E3B"/><rect x="262" y="140" width="2" height="2" fill="#0F5F1C"/><rect x="264" y="128" width="2" height="2" fill="#77B73F"/><rect x="264" y="140" width="2" height="2" fill="#0F5F1C"/><rect x="266" y="128" width="2" height="2" fill="#F6A427"/><rect x="266" y="140" width="2" height="2" fill="#0F5F1C"/><rect x="268" y="128" width="2" height="2" fill="#DF742C"/><rect x="268" y="140" width="2" height="2" fill="#77B73F"/><rect x="280" y="128" width="2" height="2" fill="#69412D"/><rect x="270" y="128" width="2" height="2" fill="#DF742C"/><rect x="272" y="128" width="2" height="2" fill="#FEBE5D"/><rect x="274" y="128" width="2" height="2" fill="#F6A427"/><rect x="276" y="128" width="2" height="2" fill="#F6A427"/><rect x="278" y="128" width="2" height="2" fill="#3D1B0A"/><rect x="258" y="130" width="2" height="2" fill="#0F5F1C"/><rect x="260" y="130" width="2" height="2" fill="#2B8E3B"/><rect x="262" y="130" width="2" height="2" fill="#77B73F"/><rect x="264" y="130" width="2" height="2" fill="#3D1B0A"/><rect x="266" y="130" width="2" height="2" fill="#F6A427"/><rect x="268" y="130" width="2" height="2" fill="#F6A427"/><rect x="280" y="130" width="2" height="2" fill="#3FB753"/><rect x="270" y="130" width="2" height="2" fill="#F6A427"/><rect x="282" y="130" width="2" height="2" fill="#3FB753"/><rect x="272" y="130" width="2" height="2" fill="#FEBE5D"/><rect x="284" y="130" width="2" height="2" fill="#2B8E3B"/><rect x="274" y="130" width="2" height="2" fill="#F6A427"/><rect x="276" y="130" width="2" height="2" fill="#3D1B0A"/><rect x="278" y="130" width="2" height="2" fill="#3D1B0A"/><rect x="312.5" y="92.5" width="63" height="63" rx="15.5" fill="#C7F58C"/><rect x="312.5" y="92.5" width="63" height="63" rx="15.5" stroke="#22221B"/></g><rect x="0.5" y="0.5" width="326" height="171" rx="23.5" stroke="#22221B"/></g><defs><filter id="filter0_d_1503_3784" x="0" y="0" width="327" height="176" filterUnits="userSpaceOnUse" color-interpolation-filters="sRGB"><feFlood flood-opacity="0" result="BackgroundImageFix"/><feColorMatrix in="SourceAlpha" type="matrix" values="0 0 0 0 0 0 0 0 0 0 0 0 0 0 0 0 0 0 127 0" result="hardAlpha"/><feOffset dy="4"/><feComposite in2="hardAlpha" operator="out"/><feColorMatrix type="matrix" values="0 0 0 0 0.133333 0 0 0 0 0.133333 0 0 0 0 0.105882 0 0 0 1 0"/><feBlend mode="normal" in2="BackgroundImageFix" result="effect1_dropShadow_1503_3784"/><feBlend mode="normal" in="SourceGraphic" in2="effect1_dropShadow_1503_3784" result="shape"/></filter><clipPath id="clip0_1503_3784"><rect width="327" height="172" rx="24" fill="white"/></clipPath></defs></svg>
