<svg width="327" height="176" viewBox="0 0 327 176" fill="none" xmlns="http://www.w3.org/2000/svg">
<g filter="url(#filter0_d_1503_6681)">
<rect width="327" height="172" rx="24" fill="#FBBC91"/>
<rect x="0.5" y="0.5" width="326" height="171" rx="23.5" stroke="#22221B"/>
<path d="M16.798 31V21.984H21.124C22.16 21.984 22.9207 22.2593 23.406 22.81C23.8913 23.3513 24.134 24.084 24.134 25.008C24.134 25.6147 23.9753 26.1373 23.658 26.576C23.35 27.0147 22.9113 27.332 22.342 27.528C22.4913 27.6493 22.608 27.78 22.692 27.92C22.7853 28.06 22.8787 28.2467 22.972 28.48L24.064 31H22.104L21.04 28.578C20.9467 28.3727 20.844 28.228 20.732 28.144C20.62 28.06 20.4333 28.018 20.172 28.018H18.688V31H16.798ZM18.688 26.45H20.634C21.1287 26.45 21.516 26.3427 21.796 26.128C22.076 25.904 22.216 25.5307 22.216 25.008C22.216 24.504 22.0947 24.1353 21.852 23.902C21.6093 23.6687 21.2407 23.552 20.746 23.552H18.688V26.45ZM28.7052 31.14C27.5572 31.14 26.6472 30.8553 25.9752 30.286C25.3032 29.7073 24.9672 28.8347 24.9672 27.668C24.9672 26.6133 25.2472 25.778 25.8072 25.162C26.3766 24.5367 27.2212 24.224 28.3412 24.224C29.3679 24.224 30.1519 24.4947 30.6932 25.036C31.2439 25.568 31.5192 26.268 31.5192 27.136V28.34H26.7172C26.8199 28.872 27.0626 29.236 27.4452 29.432C27.8372 29.628 28.3879 29.726 29.0972 29.726C29.4519 29.726 29.8112 29.6933 30.1752 29.628C30.5486 29.5627 30.8659 29.4787 31.1272 29.376V30.72C30.8192 30.86 30.4599 30.9627 30.0492 31.028C29.6386 31.1027 29.1906 31.14 28.7052 31.14ZM26.7172 27.178H29.8672V26.814C29.8672 26.4313 29.7552 26.1327 29.5312 25.918C29.3072 25.694 28.9292 25.582 28.3972 25.582C27.7719 25.582 27.3332 25.708 27.0812 25.96C26.8386 26.212 26.7172 26.618 26.7172 27.178ZM36.2231 31.14C35.0378 31.14 34.1278 30.846 33.4931 30.258C32.8678 29.67 32.5551 28.8113 32.5551 27.682C32.5551 26.5153 32.8911 25.6473 33.5631 25.078C34.2444 24.5087 35.1498 24.224 36.2791 24.224C36.7458 24.224 37.1471 24.2567 37.4831 24.322C37.8191 24.3873 38.1458 24.4947 38.4631 24.644V26.002C38.2298 25.89 37.9591 25.8013 37.6511 25.736C37.3431 25.6707 37.0118 25.638 36.6571 25.638C35.9478 25.638 35.4064 25.7873 35.0331 26.086C34.6598 26.3753 34.4731 26.9073 34.4731 27.682C34.4731 28.3913 34.6411 28.9093 34.9771 29.236C35.3224 29.5627 35.8778 29.726 36.6431 29.726C36.9698 29.726 37.2871 29.6933 37.5951 29.628C37.9124 29.5627 38.2064 29.4647 38.4771 29.334V30.734C37.8518 31.0047 37.1004 31.14 36.2231 31.14ZM40.133 23.146V21.662H42.191V23.146H40.133ZM40.287 31V25.764H39.293L39.461 24.364H42.177V31H40.287ZM43.7863 34.024V24.364H45.4243L45.5223 24.98C45.8116 24.7373 46.1289 24.5507 46.4743 24.42C46.8196 24.2893 47.2256 24.224 47.6923 24.224C48.6629 24.224 49.4096 24.49 49.9323 25.022C50.4643 25.5447 50.7303 26.4033 50.7303 27.598C50.7303 28.7927 50.4456 29.684 49.8763 30.272C49.3163 30.8507 48.5509 31.14 47.5803 31.14C46.8336 31.14 46.1989 30.972 45.6763 30.636V34.024H43.7863ZM47.1043 29.754C47.6643 29.754 48.0889 29.5813 48.3783 29.236C48.6676 28.8907 48.8123 28.3493 48.8123 27.612C48.8123 26.9027 48.6816 26.394 48.4203 26.086C48.1589 25.7687 47.7389 25.61 47.1603 25.61C46.5816 25.61 46.0869 25.8107 45.6763 26.212V29.25C45.8723 29.3993 46.0776 29.5207 46.2923 29.614C46.5163 29.7073 46.7869 29.754 47.1043 29.754ZM55.5021 31.14C54.3541 31.14 53.4441 30.8553 52.7721 30.286C52.1001 29.7073 51.7641 28.8347 51.7641 27.668C51.7641 26.6133 52.0441 25.778 52.6041 25.162C53.1734 24.5367 54.0181 24.224 55.1381 24.224C56.1648 24.224 56.9488 24.4947 57.4901 25.036C58.0408 25.568 58.3161 26.268 58.3161 27.136V28.34H53.5141C53.6168 28.872 53.8594 29.236 54.2421 29.432C54.6341 29.628 55.1848 29.726 55.8941 29.726C56.2488 29.726 56.6081 29.6933 56.9721 29.628C57.3454 29.5627 57.6628 29.4787 57.9241 29.376V30.72C57.6161 30.86 57.2568 30.9627 56.8461 31.028C56.4354 31.1027 55.9874 31.14 55.5021 31.14ZM53.5141 27.178H56.6641V26.814C56.6641 26.4313 56.5521 26.1327 56.3281 25.918C56.1041 25.694 55.7261 25.582 55.1941 25.582C54.5688 25.582 54.1301 25.708 53.8781 25.96C53.6354 26.212 53.5141 26.618 53.5141 27.178Z" fill="#22221B"/>
<path d="M253.387 31V30.244C253.63 29.6747 253.966 29.1613 254.395 28.704C254.834 28.2467 255.3 27.8033 255.795 27.374C256.168 27.0473 256.476 26.772 256.719 26.548C256.971 26.3147 257.167 26.1047 257.307 25.918C257.447 25.7313 257.545 25.54 257.601 25.344C257.657 25.1387 257.685 24.9007 257.685 24.63C257.685 24.1447 257.545 23.776 257.265 23.524C256.985 23.272 256.518 23.146 255.865 23.146C255.51 23.146 255.146 23.1833 254.773 23.258C254.409 23.3327 254.059 23.4353 253.723 23.566V22.222C254.05 22.11 254.437 22.0213 254.885 21.956C255.333 21.8813 255.758 21.844 256.159 21.844C257.167 21.844 257.928 22.0913 258.441 22.586C258.954 23.0807 259.211 23.7573 259.211 24.616C259.211 25.0453 259.136 25.428 258.987 25.764C258.838 26.0907 258.632 26.4033 258.371 26.702C258.11 26.9913 257.806 27.29 257.461 27.598C257.032 27.9713 256.626 28.3353 256.243 28.69C255.87 29.0353 255.566 29.4133 255.333 29.824H259.309V31H253.387ZM264.017 31V21.984H268.035C268.725 21.984 269.295 22.1147 269.743 22.376C270.191 22.6373 270.522 22.9967 270.737 23.454C270.951 23.902 271.059 24.4153 271.059 24.994C271.059 25.89 270.779 26.6087 270.219 27.15C269.668 27.6913 268.921 27.962 267.979 27.962H265.543V31H264.017ZM265.543 26.758H267.699C268.305 26.758 268.763 26.5993 269.071 26.282C269.379 25.9647 269.533 25.5353 269.533 24.994C269.533 24.4153 269.383 23.9673 269.085 23.65C268.795 23.3327 268.357 23.174 267.769 23.174H265.543V26.758ZM274.669 31.14C273.875 31.14 273.264 30.9207 272.835 30.482C272.415 30.0433 272.205 29.3993 272.205 28.55V24.364H273.731V28.55C273.731 29.0447 273.852 29.4087 274.095 29.642C274.337 29.8753 274.711 29.992 275.215 29.992C275.588 29.992 275.933 29.922 276.251 29.782C276.568 29.642 276.843 29.4553 277.077 29.222V24.364H278.589V31H277.203L277.133 30.314C276.834 30.5473 276.479 30.7433 276.069 30.902C275.658 31.0607 275.191 31.14 274.669 31.14ZM280.088 31V30.202L283.714 25.61H280.256V24.364H285.59V25.302L282.034 29.824H285.688V31H280.088ZM286.911 31V30.202L290.537 25.61H287.079V24.364H292.413V25.302L288.857 29.824H292.511V31H286.911ZM295.665 31.14C295.124 31.14 294.713 31.0093 294.433 30.748C294.153 30.4773 294.013 30.034 294.013 29.418V21.564H295.539V29.278C295.539 29.5393 295.586 29.7167 295.679 29.81C295.772 29.9033 295.912 29.95 296.099 29.95C296.323 29.95 296.538 29.922 296.743 29.866V30.972C296.566 31.0373 296.393 31.0793 296.225 31.098C296.066 31.126 295.88 31.14 295.665 31.14ZM301.297 31.14C300.139 31.14 299.243 30.8553 298.609 30.286C297.974 29.7167 297.657 28.844 297.657 27.668C297.657 26.604 297.927 25.764 298.469 25.148C299.01 24.532 299.831 24.224 300.933 24.224C301.941 24.224 302.697 24.49 303.201 25.022C303.714 25.5447 303.971 26.2213 303.971 27.052V28.284H299.113C299.187 28.928 299.421 29.3713 299.813 29.614C300.205 29.8567 300.802 29.978 301.605 29.978C301.941 29.978 302.286 29.9453 302.641 29.88C302.995 29.8147 303.303 29.7307 303.565 29.628V30.748C303.266 30.8787 302.921 30.9767 302.529 31.042C302.146 31.1073 301.735 31.14 301.297 31.14ZM299.113 27.29H302.627V26.828C302.627 26.3707 302.501 26.016 302.249 25.764C301.997 25.5027 301.572 25.372 300.975 25.372C300.265 25.372 299.775 25.526 299.505 25.834C299.243 26.142 299.113 26.6273 299.113 27.29ZM307.6 31.14C307.143 31.14 306.704 31.1073 306.284 31.042C305.873 30.9767 305.533 30.8973 305.262 30.804V29.516C305.579 29.6373 305.929 29.7307 306.312 29.796C306.695 29.8613 307.059 29.894 307.404 29.894C307.927 29.894 308.3 29.8473 308.524 29.754C308.748 29.6607 308.86 29.4787 308.86 29.208C308.86 29.012 308.79 28.858 308.65 28.746C308.519 28.634 308.319 28.5313 308.048 28.438C307.787 28.3447 307.451 28.2327 307.04 28.102C306.648 27.9713 306.307 27.8313 306.018 27.682C305.729 27.5233 305.505 27.3227 305.346 27.08C305.187 26.8373 305.108 26.52 305.108 26.128C305.108 25.5213 305.327 25.0547 305.766 24.728C306.205 24.392 306.909 24.224 307.88 24.224C308.263 24.224 308.627 24.252 308.972 24.308C309.317 24.364 309.611 24.434 309.854 24.518V25.792C309.593 25.6893 309.303 25.61 308.986 25.554C308.678 25.498 308.389 25.47 308.118 25.47C307.633 25.47 307.264 25.512 307.012 25.596C306.769 25.68 306.648 25.848 306.648 26.1C306.648 26.3613 306.774 26.548 307.026 26.66C307.287 26.7627 307.703 26.9073 308.272 27.094C308.795 27.2527 309.21 27.4207 309.518 27.598C309.826 27.7753 310.045 27.99 310.176 28.242C310.316 28.4847 310.386 28.802 310.386 29.194C310.386 29.8473 310.148 30.3373 309.672 30.664C309.196 30.9813 308.505 31.14 307.6 31.14Z" fill="#22221B"/>
<path d="M20.626 69.18C19.882 69.18 19.186 69.126 18.538 69.018C17.902 68.91 17.35 68.754 16.882 68.55V66.408C17.41 66.624 17.98 66.798 18.592 66.93C19.204 67.062 19.804 67.128 20.392 67.128C21.232 67.128 21.85 67.05 22.246 66.894C22.642 66.738 22.84 66.384 22.84 65.832C22.84 65.484 22.756 65.208 22.588 65.004C22.42 64.8 22.126 64.62 21.706 64.464C21.298 64.296 20.716 64.11 19.96 63.906C18.748 63.57 17.896 63.15 17.404 62.646C16.912 62.142 16.666 61.446 16.666 60.558C16.666 59.49 17.056 58.668 17.836 58.092C18.616 57.516 19.75 57.228 21.238 57.228C21.934 57.228 22.582 57.276 23.182 57.372C23.782 57.468 24.268 57.582 24.64 57.714V59.856C23.656 59.484 22.63 59.298 21.562 59.298C20.806 59.298 20.212 59.382 19.78 59.55C19.348 59.706 19.132 60.042 19.132 60.558C19.132 60.858 19.21 61.098 19.366 61.278C19.522 61.458 19.786 61.62 20.158 61.764C20.542 61.908 21.076 62.07 21.76 62.25C22.708 62.502 23.44 62.802 23.956 63.15C24.472 63.498 24.826 63.894 25.018 64.338C25.222 64.782 25.324 65.28 25.324 65.832C25.324 66.84 24.94 67.65 24.172 68.262C23.404 68.874 22.222 69.18 20.626 69.18ZM29.4287 69.18C28.8887 69.18 28.3847 69.084 27.9167 68.892C27.4607 68.688 27.0887 68.394 26.8007 68.01C26.5247 67.614 26.3867 67.122 26.3867 66.534C26.3867 65.694 26.6807 65.022 27.2687 64.518C27.8687 64.014 28.7507 63.762 29.9147 63.762H32.4347V63.528C32.4347 63 32.2847 62.628 31.9847 62.412C31.6967 62.196 31.1087 62.088 30.2207 62.088C29.2487 62.088 28.3127 62.238 27.4127 62.538V60.828C27.8087 60.672 28.2887 60.546 28.8527 60.45C29.4287 60.342 30.0527 60.288 30.7247 60.288C32.0087 60.288 32.9987 60.552 33.6947 61.08C34.4027 61.596 34.7567 62.43 34.7567 63.582V69H32.6507L32.5247 68.226C32.1887 68.526 31.7747 68.76 31.2827 68.928C30.7907 69.096 30.1727 69.18 29.4287 69.18ZM30.0947 67.578C30.6347 67.578 31.1027 67.488 31.4987 67.308C31.8947 67.128 32.2067 66.9 32.4347 66.624V65.274H29.9687C29.0207 65.274 28.5467 65.664 28.5467 66.444C28.5467 67.2 29.0627 67.578 30.0947 67.578ZM39.0895 69.18C38.2615 69.18 37.6555 68.988 37.2715 68.604C36.8995 68.22 36.7135 67.608 36.7135 66.768V56.868H39.1435V66.57C39.1435 66.87 39.2035 67.08 39.3235 67.2C39.4435 67.308 39.6175 67.362 39.8455 67.362C40.1575 67.362 40.4395 67.32 40.6915 67.236V68.91C40.2355 69.09 39.7015 69.18 39.0895 69.18ZM42.0748 69V60.468H44.3248L44.4148 61.296C44.8228 60.984 45.2668 60.738 45.7468 60.558C46.2388 60.378 46.7668 60.288 47.3308 60.288C47.9308 60.288 48.3928 60.378 48.7168 60.558C49.0528 60.738 49.3108 60.996 49.4908 61.332C49.8868 61.02 50.3368 60.768 50.8408 60.576C51.3568 60.384 51.9628 60.288 52.6588 60.288C53.6428 60.288 54.3688 60.546 54.8368 61.062C55.3048 61.566 55.5388 62.34 55.5388 63.384V69H53.1448V63.654C53.1448 63.09 53.0248 62.688 52.7848 62.448C52.5448 62.196 52.1608 62.07 51.6328 62.07C50.9128 62.07 50.3128 62.328 49.8328 62.844C49.8928 63.048 49.9228 63.294 49.9228 63.582V69H47.6548V63.654C47.6548 63.126 47.5648 62.73 47.3848 62.466C47.2048 62.202 46.8568 62.07 46.3408 62.07C45.9808 62.07 45.6388 62.166 45.3148 62.358C45.0028 62.538 44.7208 62.748 44.4688 62.988V69H42.0748ZM61.5107 69.18C59.9148 69.18 58.7448 68.796 58.0008 68.028C57.2568 67.248 56.8848 66.15 56.8848 64.734C56.8848 63.318 57.2568 62.226 58.0008 61.458C58.7568 60.678 59.9268 60.288 61.5107 60.288C63.1068 60.288 64.2768 60.678 65.0208 61.458C65.7768 62.226 66.1548 63.318 66.1548 64.734C66.1548 66.15 65.7828 67.248 65.0388 68.028C64.2948 68.796 63.1188 69.18 61.5107 69.18ZM61.5107 67.11C62.2908 67.11 62.8488 66.936 63.1848 66.588C63.5208 66.228 63.6888 65.61 63.6888 64.734C63.6888 63.858 63.5208 63.246 63.1848 62.898C62.8488 62.538 62.2908 62.358 61.5107 62.358C60.7428 62.358 60.1908 62.538 59.8548 62.898C59.5188 63.246 59.3508 63.858 59.3508 64.734C59.3508 65.61 59.5188 66.228 59.8548 66.588C60.1908 66.936 60.7428 67.11 61.5107 67.11ZM67.8444 69V60.468H70.0944L70.1844 61.278C70.5324 61.014 70.9704 60.786 71.4984 60.594C72.0384 60.39 72.6024 60.288 73.1904 60.288C74.3184 60.288 75.1404 60.552 75.6564 61.08C76.1724 61.608 76.4304 62.424 76.4304 63.528V69H74.0004V63.654C74.0004 63.078 73.8804 62.67 73.6404 62.43C73.4124 62.19 72.9804 62.07 72.3444 62.07C71.9724 62.07 71.5944 62.154 71.2104 62.322C70.8384 62.49 70.5264 62.7 70.2744 62.952V69H67.8444ZM82.3639 69V57.408H84.4699L89.9599 65.13V57.408H92.3899V69H90.2839L84.7939 61.278V69H82.3639ZM94.577 58.902V56.994H97.223V58.902H94.577ZM94.775 69V62.268H93.497L93.713 60.468H97.205V69H94.775ZM102.874 72.168C102.238 72.168 101.584 72.126 100.912 72.042C100.252 71.958 99.694 71.838 99.238 71.682V69.864C99.718 70.02 100.282 70.14 100.93 70.224C101.578 70.32 102.184 70.368 102.748 70.368C103.576 70.368 104.176 70.32 104.548 70.224C104.92 70.14 105.106 69.984 105.106 69.756C105.106 69.564 105.022 69.432 104.854 69.36C104.698 69.288 104.362 69.252 103.846 69.252H101.524C100 69.252 99.238 68.688 99.238 67.56C99.238 67.212 99.334 66.894 99.526 66.606C99.718 66.318 100.024 66.09 100.444 65.922C99.472 65.43 98.986 64.602 98.986 63.438C98.986 62.334 99.328 61.536 100.012 61.044C100.696 60.54 101.71 60.288 103.054 60.288C103.33 60.288 103.63 60.312 103.954 60.36C104.29 60.396 104.542 60.432 104.71 60.468H107.914L107.86 61.998H106.51C106.882 62.346 107.068 62.832 107.068 63.456C107.068 64.332 106.792 65.034 106.24 65.562C105.688 66.078 104.872 66.336 103.792 66.336C103.6 66.336 103.414 66.33 103.234 66.318C103.066 66.294 102.892 66.27 102.712 66.246C102.352 66.294 102.046 66.378 101.794 66.498C101.554 66.618 101.434 66.78 101.434 66.984C101.434 67.26 101.68 67.398 102.172 67.398H104.584C105.448 67.398 106.114 67.596 106.582 67.992C107.05 68.376 107.284 68.94 107.284 69.684C107.284 70.524 106.906 71.148 106.15 71.556C105.394 71.964 104.302 72.168 102.874 72.168ZM103.072 64.968C103.792 64.968 104.29 64.848 104.566 64.608C104.854 64.356 104.998 63.936 104.998 63.348C104.998 62.76 104.854 62.334 104.566 62.07C104.29 61.806 103.792 61.674 103.072 61.674C102.388 61.674 101.896 61.806 101.596 62.07C101.296 62.322 101.146 62.748 101.146 63.348C101.146 63.9 101.284 64.308 101.56 64.572C101.848 64.836 102.352 64.968 103.072 64.968ZM109.518 58.902V56.994H112.164V58.902H109.518ZM109.716 69V62.268H108.438L108.654 60.468H112.146V69H109.716ZM114.215 69V60.468H116.465L116.573 61.35C116.957 61.11 117.431 60.894 117.995 60.702C118.571 60.498 119.135 60.36 119.687 60.288V62.124C119.363 62.172 119.009 62.244 118.625 62.34C118.241 62.436 117.875 62.544 117.527 62.664C117.179 62.784 116.885 62.91 116.645 63.042V69H114.215ZM121.524 58.902V56.994H124.17V58.902H121.524ZM121.722 69V62.268H120.444L120.66 60.468H124.152V69H121.722ZM130.176 69V57.408H136.044C137.208 57.408 138.072 57.684 138.636 58.236C139.212 58.776 139.5 59.544 139.5 60.54C139.5 61.164 139.38 61.686 139.14 62.106C138.9 62.514 138.576 62.832 138.168 63.06C138.708 63.228 139.134 63.51 139.446 63.906C139.77 64.29 139.932 64.86 139.932 65.616C139.932 66.732 139.614 67.578 138.978 68.154C138.354 68.718 137.448 69 136.26 69H130.176ZM132.606 62.214H135.594C136.182 62.214 136.602 62.088 136.854 61.836C137.106 61.572 137.232 61.206 137.232 60.738C137.232 60.222 137.1 59.838 136.836 59.586C136.584 59.334 136.11 59.208 135.414 59.208H132.606V62.214ZM132.606 67.218H135.684C136.296 67.218 136.746 67.092 137.034 66.84C137.322 66.588 137.466 66.144 137.466 65.508C137.466 64.992 137.322 64.608 137.034 64.356C136.758 64.104 136.254 63.978 135.522 63.978H132.606V67.218ZM145.886 69.18C144.29 69.18 143.12 68.796 142.376 68.028C141.632 67.248 141.26 66.15 141.26 64.734C141.26 63.318 141.632 62.226 142.376 61.458C143.132 60.678 144.302 60.288 145.886 60.288C147.482 60.288 148.652 60.678 149.396 61.458C150.152 62.226 150.53 63.318 150.53 64.734C150.53 66.15 150.158 67.248 149.414 68.028C148.67 68.796 147.494 69.18 145.886 69.18ZM145.886 67.11C146.666 67.11 147.224 66.936 147.56 66.588C147.896 66.228 148.064 65.61 148.064 64.734C148.064 63.858 147.896 63.246 147.56 62.898C147.224 62.538 146.666 62.358 145.886 62.358C145.118 62.358 144.566 62.538 144.23 62.898C143.894 63.246 143.726 63.858 143.726 64.734C143.726 65.61 143.894 66.228 144.23 66.588C144.566 66.936 145.118 67.11 145.886 67.11ZM153.467 72.168C153.095 72.168 152.765 72.144 152.477 72.096C152.189 72.06 151.907 71.988 151.631 71.88V70.17C151.835 70.242 152.021 70.29 152.189 70.314C152.369 70.338 152.549 70.35 152.729 70.35C153.221 70.35 153.599 70.236 153.863 70.008C154.139 69.78 154.415 69.396 154.691 68.856L150.875 60.468H153.413L155.915 66.264L158.399 60.468H160.919L157.553 68.406C157.241 69.15 156.899 69.804 156.527 70.368C156.167 70.944 155.741 71.388 155.249 71.7C154.757 72.012 154.163 72.168 153.467 72.168Z" fill="#22221B"/>
<rect x="24.5" y="92.5" width="63" height="63" rx="15.5" fill="#FBD891"/>
<rect x="24.5" y="92.5" width="63" height="63" rx="15.5" stroke="#22221B"/>
<rect x="58" y="106" width="2" height="2" fill="#08070C"/>
<rect x="60" y="106" width="2" height="2" fill="#08070C"/>
<rect x="62" y="106" width="2" height="2" fill="#08070C"/>
<rect x="64" y="108" width="2" height="2" fill="#08070C"/>
<rect x="54" y="108" width="2" height="2" fill="#08070C"/>
<rect x="56" y="108" width="2" height="2" fill="#08070C"/>
<rect x="58" y="108" width="2" height="2" fill="#FFCAAC"/>
<rect x="60" y="108" width="2" height="2" fill="#FFCAAC"/>
<rect x="62" y="108" width="2" height="2" fill="#E74B18"/>
<rect x="50" y="110" width="2" height="2" fill="#08070C"/>
<rect x="52" y="110" width="2" height="2" fill="#08070C"/>
<rect x="64" y="110" width="2" height="2" fill="#FFCAAC"/>
<rect x="54" y="110" width="2" height="2" fill="#FFCAAC"/>
<rect x="66" y="110" width="2" height="2" fill="#08070C"/>
<rect x="56" y="110" width="2" height="2" fill="#F96D33"/>
<rect x="58" y="110" width="2" height="2" fill="#F96D33"/>
<rect x="60" y="110" width="2" height="2" fill="#E74B18"/>
<rect x="62" y="110" width="2" height="2" fill="#FFCAAC"/>
<rect x="48" y="112" width="2" height="2" fill="#08070C"/>
<rect x="50" y="112" width="2" height="2" fill="#FFCAAC"/>
<rect x="52" y="112" width="2" height="2" fill="#F96D33"/>
<rect x="64" y="112" width="2" height="2" fill="#F96D33"/>
<rect x="54" y="112" width="2" height="2" fill="#F96D33"/>
<rect x="66" y="112" width="2" height="2" fill="#FFCAAC"/>
<rect x="56" y="112" width="2" height="2" fill="#F96D33"/>
<rect x="68" y="112" width="2" height="2" fill="#08070C"/>
<rect x="58" y="112" width="2" height="2" fill="#F96D33"/>
<rect x="60" y="112" width="2" height="2" fill="#FFCAAC"/>
<rect x="62" y="112" width="2" height="2" fill="#F96D33"/>
<rect x="46" y="114" width="2" height="2" fill="#08070C"/>
<rect x="48" y="114" width="2" height="2" fill="#FFCAAC"/>
<rect x="50" y="114" width="2" height="2" fill="#F96D33"/>
<rect x="52" y="114" width="2" height="2" fill="#F96D33"/>
<rect x="64" y="114" width="2" height="2" fill="#F96D33"/>
<rect x="54" y="114" width="2" height="2" fill="#F96D33"/>
<rect x="66" y="114" width="2" height="2" fill="#FFCAAC"/>
<rect x="56" y="114" width="2" height="2" fill="#F96D33"/>
<rect x="68" y="114" width="2" height="2" fill="#08070C"/>
<rect x="58" y="114" width="2" height="2" fill="#FFCAAC"/>
<rect x="60" y="114" width="2" height="2" fill="#F96D33"/>
<rect x="62" y="114" width="2" height="2" fill="#F96D33"/>
<rect x="44" y="116" width="2" height="2" fill="#08070C"/>
<rect x="46" y="116" width="2" height="2" fill="#FFCAAC"/>
<rect x="48" y="116" width="2" height="2" fill="#FFCAAC"/>
<rect x="50" y="116" width="2" height="2" fill="#F96D33"/>
<rect x="52" y="116" width="2" height="2" fill="#F96D33"/>
<rect x="64" y="116" width="2" height="2" fill="#F96D33"/>
<rect x="54" y="116" width="2" height="2" fill="#F96D33"/>
<rect x="66" y="116" width="2" height="2" fill="#FFCAAC"/>
<rect x="56" y="116" width="2" height="2" fill="#FFCAAC"/>
<rect x="68" y="116" width="2" height="2" fill="#08070C"/>
<rect x="58" y="116" width="2" height="2" fill="#F96D33"/>
<rect x="60" y="116" width="2" height="2" fill="#F96D33"/>
<rect x="62" y="116" width="2" height="2" fill="#F96D33"/>
<rect x="40" y="130" width="2" height="2" fill="#08070C"/>
<rect x="42" y="118" width="2" height="2" fill="#08070C"/>
<rect x="42" y="130" width="2" height="2" fill="#FFCAAC"/>
<rect x="44" y="118" width="2" height="2" fill="#FFCAAC"/>
<rect x="44" y="130" width="2" height="2" fill="#A51903"/>
<rect x="46" y="118" width="2" height="2" fill="#E74B18"/>
<rect x="46" y="130" width="2" height="2" fill="#A51903"/>
<rect x="48" y="118" width="2" height="2" fill="#F96D33"/>
<rect x="48" y="130" width="2" height="2" fill="#08070C"/>
<rect x="50" y="118" width="2" height="2" fill="#FFCAAC"/>
<rect x="50" y="130" width="2" height="2" fill="#F96D33"/>
<rect x="52" y="118" width="2" height="2" fill="#F96D33"/>
<rect x="52" y="130" width="2" height="2" fill="#F96D33"/>
<rect x="64" y="118" width="2" height="2" fill="#F96D33"/>
<rect x="54" y="118" width="2" height="2" fill="#FFF5DD"/>
<rect x="54" y="130" width="2" height="2" fill="#FFCAAC"/>
<rect x="66" y="118" width="2" height="2" fill="#FFCAAC"/>
<rect x="56" y="118" width="2" height="2" fill="#FFCAAC"/>
<rect x="56" y="130" width="2" height="2" fill="#648C8B"/>
<rect x="68" y="118" width="2" height="2" fill="#08070C"/>
<rect x="58" y="118" width="2" height="2" fill="#E74B18"/>
<rect x="58" y="130" width="2" height="2" fill="#648C8B"/>
<rect x="60" y="118" width="2" height="2" fill="#E74B18"/>
<rect x="60" y="130" width="2" height="2" fill="#648C8B"/>
<rect x="62" y="118" width="2" height="2" fill="#F96D33"/>
<rect x="62" y="130" width="2" height="2" fill="#08070C"/>
<rect x="40" y="132" width="2" height="2" fill="#08070C"/>
<rect x="42" y="120" width="2" height="2" fill="#08070C"/>
<rect x="42" y="132" width="2" height="2" fill="#AEC2BD"/>
<rect x="44" y="120" width="2" height="2" fill="#FFCAAC"/>
<rect x="44" y="132" width="2" height="2" fill="#A51903"/>
<rect x="46" y="120" width="2" height="2" fill="#F96D33"/>
<rect x="46" y="132" width="2" height="2" fill="#08070C"/>
<rect x="48" y="120" width="2" height="2" fill="#F96D33"/>
<rect x="48" y="132" width="2" height="2" fill="#FFCAAC"/>
<rect x="50" y="120" width="2" height="2" fill="#F96D33"/>
<rect x="50" y="132" width="2" height="2" fill="#F96D33"/>
<rect x="52" y="120" width="2" height="2" fill="#FFF5DD"/>
<rect x="52" y="132" width="2" height="2" fill="#FFCAAC"/>
<rect x="64" y="120" width="2" height="2" fill="#FFCAAC"/>
<rect x="54" y="120" width="2" height="2" fill="#FFF5DD"/>
<rect x="54" y="132" width="2" height="2" fill="#648C8B"/>
<rect x="66" y="120" width="2" height="2" fill="#648C8B"/>
<rect x="56" y="120" width="2" height="2" fill="#FFF5DD"/>
<rect x="56" y="132" width="2" height="2" fill="#648C8B"/>
<rect x="68" y="120" width="2" height="2" fill="#08070C"/>
<rect x="58" y="120" width="2" height="2" fill="#F96D33"/>
<rect x="58" y="132" width="2" height="2" fill="#08070C"/>
<rect x="60" y="120" width="2" height="2" fill="#FFCAAC"/>
<rect x="60" y="132" width="2" height="2" fill="#08070C"/>
<rect x="62" y="120" width="2" height="2" fill="#F96D33"/>
<rect x="40" y="134" width="2" height="2" fill="#08070C"/>
<rect x="42" y="122" width="2" height="2" fill="#08070C"/>
<rect x="42" y="134" width="2" height="2" fill="#648C8B"/>
<rect x="44" y="122" width="2" height="2" fill="#F96D33"/>
<rect x="44" y="134" width="2" height="2" fill="#08070C"/>
<rect x="46" y="122" width="2" height="2" fill="#F96D33"/>
<rect x="46" y="134" width="2" height="2" fill="#08070C"/>
<rect x="48" y="122" width="2" height="2" fill="#F96D33"/>
<rect x="48" y="134" width="2" height="2" fill="#FFCAAC"/>
<rect x="50" y="122" width="2" height="2" fill="#F96D33"/>
<rect x="50" y="134" width="2" height="2" fill="#FFCAAC"/>
<rect x="52" y="122" width="2" height="2" fill="#FFF5DD"/>
<rect x="52" y="134" width="2" height="2" fill="#AEC2BD"/>
<rect x="64" y="122" width="2" height="2" fill="#FFCAAC"/>
<rect x="54" y="122" width="2" height="2" fill="#FFF5DD"/>
<rect x="54" y="134" width="2" height="2" fill="#648C8B"/>
<rect x="66" y="122" width="2" height="2" fill="#648C8B"/>
<rect x="56" y="122" width="2" height="2" fill="#F96D33"/>
<rect x="56" y="134" width="2" height="2" fill="#08070C"/>
<rect x="68" y="122" width="2" height="2" fill="#08070C"/>
<rect x="58" y="122" width="2" height="2" fill="#F96D33"/>
<rect x="60" y="122" width="2" height="2" fill="#F96D33"/>
<rect x="62" y="122" width="2" height="2" fill="#FFCAAC"/>
<rect x="40" y="124" width="2" height="2" fill="#08070C"/>
<rect x="42" y="124" width="2" height="2" fill="#E74B18"/>
<rect x="42" y="136" width="2" height="2" fill="#08070C"/>
<rect x="44" y="124" width="2" height="2" fill="#E74B18"/>
<rect x="44" y="136" width="2" height="2" fill="#08070C"/>
<rect x="46" y="124" width="2" height="2" fill="#F96D33"/>
<rect x="46" y="136" width="2" height="2" fill="#08070C"/>
<rect x="48" y="124" width="2" height="2" fill="#FFCAAC"/>
<rect x="48" y="136" width="2" height="2" fill="#AEC2BD"/>
<rect x="50" y="124" width="2" height="2" fill="#A51903"/>
<rect x="50" y="136" width="2" height="2" fill="#AEC2BD"/>
<rect x="52" y="124" width="2" height="2" fill="#A51903"/>
<rect x="52" y="136" width="2" height="2" fill="#AEC2BD"/>
<rect x="64" y="124" width="2" height="2" fill="#648C8B"/>
<rect x="54" y="124" width="2" height="2" fill="#F96D33"/>
<rect x="54" y="136" width="2" height="2" fill="#08070C"/>
<rect x="66" y="124" width="2" height="2" fill="#08070C"/>
<rect x="56" y="124" width="2" height="2" fill="#FFCAAC"/>
<rect x="58" y="124" width="2" height="2" fill="#E74B18"/>
<rect x="60" y="124" width="2" height="2" fill="#E74B18"/>
<rect x="62" y="124" width="2" height="2" fill="#FFCAAC"/>
<rect x="40" y="126" width="2" height="2" fill="#08070C"/>
<rect x="42" y="126" width="2" height="2" fill="#E74B18"/>
<rect x="44" y="126" width="2" height="2" fill="#E74B18"/>
<rect x="46" y="126" width="2" height="2" fill="#FFCAAC"/>
<rect x="46" y="138" width="2" height="2" fill="#08070C"/>
<rect x="48" y="126" width="2" height="2" fill="#A51903"/>
<rect x="48" y="138" width="2" height="2" fill="#08070C"/>
<rect x="50" y="126" width="2" height="2" fill="#A51903"/>
<rect x="50" y="138" width="2" height="2" fill="#08070C"/>
<rect x="52" y="126" width="2" height="2" fill="#FFCAAC"/>
<rect x="64" y="126" width="2" height="2" fill="#648C8B"/>
<rect x="54" y="126" width="2" height="2" fill="#F96D33"/>
<rect x="66" y="126" width="2" height="2" fill="#08070C"/>
<rect x="56" y="126" width="2" height="2" fill="#F96D33"/>
<rect x="58" y="126" width="2" height="2" fill="#FFCAAC"/>
<rect x="60" y="126" width="2" height="2" fill="#FFCAAC"/>
<rect x="62" y="126" width="2" height="2" fill="#648C8B"/>
<rect x="40" y="128" width="2" height="2" fill="#08070C"/>
<rect x="42" y="128" width="2" height="2" fill="#FFCAAC"/>
<rect x="44" y="128" width="2" height="2" fill="#FFCAAC"/>
<rect x="46" y="128" width="2" height="2" fill="#A51903"/>
<rect x="48" y="128" width="2" height="2" fill="#A51903"/>
<rect x="50" y="128" width="2" height="2" fill="#FFCAAC"/>
<rect x="52" y="128" width="2" height="2" fill="#F96D33"/>
<rect x="64" y="128" width="2" height="2" fill="#08070C"/>
<rect x="54" y="128" width="2" height="2" fill="#F96D33"/>
<rect x="56" y="128" width="2" height="2" fill="#FFCAAC"/>
<rect x="58" y="128" width="2" height="2" fill="#FFCAAC"/>
<rect x="60" y="128" width="2" height="2" fill="#648C8B"/>
<rect x="62" y="128" width="2" height="2" fill="#648C8B"/>
<path d="M115 124.998H109V130.998H107V124.998H101V122.998H107V116.998H109V122.998H115V124.998Z" fill="black"/>
<rect x="128.5" y="92.5" width="63" height="63" rx="15.5" fill="#FBD891"/>
<rect x="128.5" y="92.5" width="63" height="63" rx="15.5" stroke="#22221B"/>
<rect x="152" y="110" width="2" height="2" fill="#300908"/>
<rect x="154" y="110" width="2" height="2" fill="#300908"/>
<rect x="156" y="110" width="2" height="2" fill="#300908"/>
<rect x="158" y="110" width="2" height="2" fill="#300908"/>
<rect x="160" y="110" width="2" height="2" fill="#300908"/>
<rect x="162" y="110" width="2" height="2" fill="#300908"/>
<rect x="164" y="110" width="2" height="2" fill="#300908"/>
<rect x="166" y="110" width="2" height="2" fill="#300908"/>
<rect x="148" y="112" width="2" height="2" fill="#300908"/>
<rect x="150" y="112" width="2" height="2" fill="#300908"/>
<rect x="152" y="112" width="2" height="2" fill="#5F1C1A"/>
<rect x="154" y="112" width="2" height="2" fill="#5F1C1A"/>
<rect x="156" y="112" width="2" height="2" fill="#5F1C1A"/>
<rect x="168" y="112" width="2" height="2" fill="#5F1C1A"/>
<rect x="158" y="112" width="2" height="2" fill="#5F1C1A"/>
<rect x="170" y="112" width="2" height="2" fill="#300908"/>
<rect x="160" y="112" width="2" height="2" fill="#5F1C1A"/>
<rect x="162" y="112" width="2" height="2" fill="#5F1C1A"/>
<rect x="164" y="112" width="2" height="2" fill="#5F1C1A"/>
<rect x="166" y="112" width="2" height="2" fill="#5F1C1A"/>
<rect x="146" y="114" width="2" height="2" fill="#300908"/>
<rect x="148" y="114" width="2" height="2" fill="#8C3C39"/>
<rect x="150" y="114" width="2" height="2" fill="#5F1C1A"/>
<rect x="152" y="114" width="2" height="2" fill="#5F1C1A"/>
<rect x="154" y="114" width="2" height="2" fill="#5F1C1A"/>
<rect x="156" y="114" width="2" height="2" fill="#5F1C1A"/>
<rect x="168" y="114" width="2" height="2" fill="#5F1C1A"/>
<rect x="158" y="114" width="2" height="2" fill="#5F1C1A"/>
<rect x="170" y="114" width="2" height="2" fill="#8C3C39"/>
<rect x="160" y="114" width="2" height="2" fill="#5F1C1A"/>
<rect x="172" y="114" width="2" height="2" fill="#300908"/>
<rect x="162" y="114" width="2" height="2" fill="#5F1C1A"/>
<rect x="164" y="114" width="2" height="2" fill="#5F1C1A"/>
<rect x="166" y="114" width="2" height="2" fill="#5F1C1A"/>
<rect x="144" y="116" width="2" height="2" fill="#300908"/>
<rect x="146" y="116" width="2" height="2" fill="#8C3C39"/>
<rect x="148" y="116" width="2" height="2" fill="#5F1C1A"/>
<rect x="150" y="116" width="2" height="2" fill="#5F1C1A"/>
<rect x="152" y="116" width="2" height="2" fill="#5F1C1A"/>
<rect x="154" y="116" width="2" height="2" fill="white"/>
<rect x="156" y="116" width="2" height="2" fill="#5F1C1A"/>
<rect x="168" y="116" width="2" height="2" fill="#5F1C1A"/>
<rect x="158" y="116" width="2" height="2" fill="white"/>
<rect x="170" y="116" width="2" height="2" fill="#5F1C1A"/>
<rect x="160" y="116" width="2" height="2" fill="#5F1C1A"/>
<rect x="172" y="116" width="2" height="2" fill="#8C3C39"/>
<rect x="162" y="116" width="2" height="2" fill="#5F1C1A"/>
<rect x="174" y="116" width="2" height="2" fill="#300908"/>
<rect x="164" y="116" width="2" height="2" fill="#5F1C1A"/>
<rect x="166" y="116" width="2" height="2" fill="white"/>
<rect x="144" y="118" width="2" height="2" fill="#300908"/>
<rect x="144" y="130" width="2" height="2" fill="#300908"/>
<rect x="146" y="118" width="2" height="2" fill="#8C3C39"/>
<rect x="146" y="130" width="2" height="2" fill="#5F1C1A"/>
<rect x="148" y="118" width="2" height="2" fill="#5F1C1A"/>
<rect x="148" y="130" width="2" height="2" fill="#5F1C1A"/>
<rect x="150" y="118" width="2" height="2" fill="#5F1C1A"/>
<rect x="150" y="130" width="2" height="2" fill="#5F1C1A"/>
<rect x="152" y="118" width="2" height="2" fill="#F1EEDB"/>
<rect x="152" y="130" width="2" height="2" fill="#8C3C39"/>
<rect x="154" y="118" width="2" height="2" fill="#5F1C1A"/>
<rect x="154" y="130" width="2" height="2" fill="#8C3C39"/>
<rect x="156" y="118" width="2" height="2" fill="white"/>
<rect x="156" y="130" width="2" height="2" fill="#8C3C39"/>
<rect x="168" y="118" width="2" height="2" fill="#5F1C1A"/>
<rect x="168" y="130" width="2" height="2" fill="#5F1C1A"/>
<rect x="158" y="118" width="2" height="2" fill="white"/>
<rect x="158" y="130" width="2" height="2" fill="#8C3C39"/>
<rect x="170" y="118" width="2" height="2" fill="#5F1C1A"/>
<rect x="170" y="130" width="2" height="2" fill="#5F1C1A"/>
<rect x="160" y="118" width="2" height="2" fill="#5F1C1A"/>
<rect x="160" y="130" width="2" height="2" fill="#8C3C39"/>
<rect x="172" y="118" width="2" height="2" fill="#8C3C39"/>
<rect x="172" y="130" width="2" height="2" fill="#5F1C1A"/>
<rect x="162" y="118" width="2" height="2" fill="white"/>
<rect x="162" y="130" width="2" height="2" fill="#8C3C39"/>
<rect x="174" y="118" width="2" height="2" fill="#300908"/>
<rect x="174" y="130" width="2" height="2" fill="#300908"/>
<rect x="164" y="118" width="2" height="2" fill="#5F1C1A"/>
<rect x="164" y="130" width="2" height="2" fill="#8C3C39"/>
<rect x="166" y="118" width="2" height="2" fill="#5F1C1A"/>
<rect x="166" y="130" width="2" height="2" fill="#8C3C39"/>
<rect x="144" y="120" width="2" height="2" fill="#300908"/>
<rect x="144" y="132" width="2" height="2" fill="#300908"/>
<rect x="146" y="120" width="2" height="2" fill="#8C3C39"/>
<rect x="146" y="132" width="2" height="2" fill="#5F1C1A"/>
<rect x="148" y="120" width="2" height="2" fill="#5F1C1A"/>
<rect x="148" y="132" width="2" height="2" fill="#5F1C1A"/>
<rect x="150" y="120" width="2" height="2" fill="#5F1C1A"/>
<rect x="150" y="132" width="2" height="2" fill="#5F1C1A"/>
<rect x="152" y="120" width="2" height="2" fill="#5F1C1A"/>
<rect x="152" y="132" width="2" height="2" fill="#5F1C1A"/>
<rect x="154" y="120" width="2" height="2" fill="#F1EEDB"/>
<rect x="154" y="132" width="2" height="2" fill="#5F1C1A"/>
<rect x="156" y="120" width="2" height="2" fill="white"/>
<rect x="156" y="132" width="2" height="2" fill="#5F1C1A"/>
<rect x="168" y="120" width="2" height="2" fill="#5F1C1A"/>
<rect x="168" y="132" width="2" height="2" fill="#5F1C1A"/>
<rect x="158" y="120" width="2" height="2" fill="white"/>
<rect x="158" y="132" width="2" height="2" fill="#5F1C1A"/>
<rect x="170" y="120" width="2" height="2" fill="white"/>
<rect x="170" y="132" width="2" height="2" fill="#5F1C1A"/>
<rect x="160" y="120" width="2" height="2" fill="white"/>
<rect x="160" y="132" width="2" height="2" fill="#5F1C1A"/>
<rect x="172" y="120" width="2" height="2" fill="#8C3C39"/>
<rect x="172" y="132" width="2" height="2" fill="#5F1C1A"/>
<rect x="162" y="120" width="2" height="2" fill="white"/>
<rect x="162" y="132" width="2" height="2" fill="#5F1C1A"/>
<rect x="174" y="120" width="2" height="2" fill="#300908"/>
<rect x="174" y="132" width="2" height="2" fill="#300908"/>
<rect x="164" y="120" width="2" height="2" fill="white"/>
<rect x="164" y="132" width="2" height="2" fill="#5F1C1A"/>
<rect x="166" y="120" width="2" height="2" fill="#F1EEDB"/>
<rect x="166" y="132" width="2" height="2" fill="#5F1C1A"/>
<rect x="144" y="122" width="2" height="2" fill="#300908"/>
<rect x="146" y="122" width="2" height="2" fill="#8C3C39"/>
<rect x="146" y="134" width="2" height="2" fill="#300908"/>
<rect x="148" y="122" width="2" height="2" fill="#5F1C1A"/>
<rect x="148" y="134" width="2" height="2" fill="#300908"/>
<rect x="150" y="122" width="2" height="2" fill="white"/>
<rect x="150" y="134" width="2" height="2" fill="#5F1C1A"/>
<rect x="152" y="122" width="2" height="2" fill="white"/>
<rect x="152" y="134" width="2" height="2" fill="#5F1C1A"/>
<rect x="154" y="122" width="2" height="2" fill="white"/>
<rect x="154" y="134" width="2" height="2" fill="#5F1C1A"/>
<rect x="156" y="122" width="2" height="2" fill="#F1EEDB"/>
<rect x="156" y="134" width="2" height="2" fill="#5F1C1A"/>
<rect x="168" y="122" width="2" height="2" fill="white"/>
<rect x="168" y="134" width="2" height="2" fill="#5F1C1A"/>
<rect x="158" y="122" width="2" height="2" fill="white"/>
<rect x="158" y="134" width="2" height="2" fill="#5F1C1A"/>
<rect x="170" y="122" width="2" height="2" fill="#5F1C1A"/>
<rect x="170" y="134" width="2" height="2" fill="#300908"/>
<rect x="160" y="122" width="2" height="2" fill="#F1EEDB"/>
<rect x="160" y="134" width="2" height="2" fill="#5F1C1A"/>
<rect x="172" y="122" width="2" height="2" fill="#8C3C39"/>
<rect x="172" y="134" width="2" height="2" fill="#300908"/>
<rect x="162" y="122" width="2" height="2" fill="white"/>
<rect x="162" y="134" width="2" height="2" fill="#5F1C1A"/>
<rect x="174" y="122" width="2" height="2" fill="#300908"/>
<rect x="164" y="122" width="2" height="2" fill="white"/>
<rect x="164" y="134" width="2" height="2" fill="#5F1C1A"/>
<rect x="166" y="122" width="2" height="2" fill="#F1EEDB"/>
<rect x="166" y="134" width="2" height="2" fill="#5F1C1A"/>
<rect x="144" y="124" width="2" height="2" fill="#300908"/>
<rect x="146" y="124" width="2" height="2" fill="#8C3C39"/>
<rect x="148" y="124" width="2" height="2" fill="#F1EEDB"/>
<rect x="150" y="124" width="2" height="2" fill="white"/>
<rect x="150" y="136" width="2" height="2" fill="#300908"/>
<rect x="152" y="124" width="2" height="2" fill="white"/>
<rect x="152" y="136" width="2" height="2" fill="#300908"/>
<rect x="154" y="124" width="2" height="2" fill="white"/>
<rect x="154" y="136" width="2" height="2" fill="#5F1C1A"/>
<rect x="156" y="124" width="2" height="2" fill="#F1EEDB"/>
<rect x="156" y="136" width="2" height="2" fill="#5F1C1A"/>
<rect x="168" y="124" width="2" height="2" fill="white"/>
<rect x="168" y="136" width="2" height="2" fill="#300908"/>
<rect x="158" y="124" width="2" height="2" fill="#F1EEDB"/>
<rect x="158" y="136" width="2" height="2" fill="#5F1C1A"/>
<rect x="170" y="124" width="2" height="2" fill="#F1EEDB"/>
<rect x="160" y="124" width="2" height="2" fill="white"/>
<rect x="160" y="136" width="2" height="2" fill="#5F1C1A"/>
<rect x="172" y="124" width="2" height="2" fill="#8C3C39"/>
<rect x="162" y="124" width="2" height="2" fill="#F1EEDB"/>
<rect x="162" y="136" width="2" height="2" fill="#5F1C1A"/>
<rect x="174" y="124" width="2" height="2" fill="#300908"/>
<rect x="164" y="124" width="2" height="2" fill="white"/>
<rect x="164" y="136" width="2" height="2" fill="#5F1C1A"/>
<rect x="166" y="124" width="2" height="2" fill="white"/>
<rect x="166" y="136" width="2" height="2" fill="#300908"/>
<rect x="144" y="126" width="2" height="2" fill="#300908"/>
<rect x="146" y="126" width="2" height="2" fill="#5F1C1A"/>
<rect x="148" y="126" width="2" height="2" fill="#8C3C39"/>
<rect x="150" y="126" width="2" height="2" fill="#F1EEDB"/>
<rect x="152" y="126" width="2" height="2" fill="white"/>
<rect x="154" y="126" width="2" height="2" fill="white"/>
<rect x="154" y="138" width="2" height="2" fill="#300908"/>
<rect x="156" y="126" width="2" height="2" fill="white"/>
<rect x="156" y="138" width="2" height="2" fill="#300908"/>
<rect x="168" y="126" width="2" height="2" fill="#F1EEDB"/>
<rect x="158" y="126" width="2" height="2" fill="white"/>
<rect x="158" y="138" width="2" height="2" fill="#300908"/>
<rect x="170" y="126" width="2" height="2" fill="#8C3C39"/>
<rect x="160" y="126" width="2" height="2" fill="white"/>
<rect x="160" y="138" width="2" height="2" fill="#300908"/>
<rect x="172" y="126" width="2" height="2" fill="#8C3C39"/>
<rect x="162" y="126" width="2" height="2" fill="white"/>
<rect x="162" y="138" width="2" height="2" fill="#300908"/>
<rect x="174" y="126" width="2" height="2" fill="#300908"/>
<rect x="164" y="126" width="2" height="2" fill="#F1EEDB"/>
<rect x="164" y="138" width="2" height="2" fill="#300908"/>
<rect x="166" y="126" width="2" height="2" fill="white"/>
<rect x="144" y="128" width="2" height="2" fill="#300908"/>
<rect x="146" y="128" width="2" height="2" fill="#5F1C1A"/>
<rect x="148" y="128" width="2" height="2" fill="#5F1C1A"/>
<rect x="150" y="128" width="2" height="2" fill="#8C3C39"/>
<rect x="152" y="128" width="2" height="2" fill="#C1BAA7"/>
<rect x="154" y="128" width="2" height="2" fill="#C1BAA7"/>
<rect x="156" y="128" width="2" height="2" fill="white"/>
<rect x="168" y="128" width="2" height="2" fill="#8C3C39"/>
<rect x="158" y="128" width="2" height="2" fill="white"/>
<rect x="170" y="128" width="2" height="2" fill="#5F1C1A"/>
<rect x="160" y="128" width="2" height="2" fill="white"/>
<rect x="172" y="128" width="2" height="2" fill="#5F1C1A"/>
<rect x="162" y="128" width="2" height="2" fill="#F1EEDB"/>
<rect x="174" y="128" width="2" height="2" fill="#300908"/>
<rect x="164" y="128" width="2" height="2" fill="#F1EEDB"/>
<rect x="166" y="128" width="2" height="2" fill="#C1BAA7"/>
<path d="M205 128V126H219V128H205ZM205 122V120H219V122H205Z" fill="black"/>
<rect x="262.5" y="91.75" width="2.625" height="2.625" fill="#08070C"/>
<rect x="265.125" y="91.75" width="2.625" height="2.625" fill="#08070C"/>
<rect x="267.75" y="91.75" width="2.625" height="2.625" fill="#08070C"/>
<rect x="270.375" y="91.75" width="2.625" height="2.625" fill="#08070C"/>
<rect x="257.25" y="94.375" width="2.625" height="2.625" fill="#08070C"/>
<rect x="259.875" y="94.375" width="2.625" height="2.625" fill="#FE6307"/>
<rect x="262.5" y="94.375" width="2.625" height="2.625" fill="#FE6307"/>
<rect x="265.125" y="94.375" width="2.625" height="2.625" fill="#FE6307"/>
<rect x="267.75" y="94.375" width="2.625" height="2.625" fill="#F6B384"/>
<rect x="270.375" y="94.375" width="2.625" height="2.625" fill="#FE6307"/>
<rect x="273" y="94.375" width="2.625" height="2.625" fill="#08070C"/>
<rect x="275.625" y="94.375" width="2.625" height="2.625" fill="#08070C"/>
<rect x="246.75" y="123.25" width="2.625" height="2.625" fill="#08070C"/>
<rect x="244.125" y="123.25" width="2.625" height="2.625" fill="#FE6307"/>
<rect x="301.875" y="123.25" width="2.625" height="2.625" fill="#F6B384"/>
<rect x="304.5" y="123.25" width="2.625" height="2.625" fill="#08070C"/>
<rect x="241.5" y="123.25" width="2.625" height="2.625" fill="#F6B384"/>
<rect x="238.875" y="123.25" width="2.625" height="2.625" fill="#FE6307"/>
<rect x="236.25" y="123.25" width="2.625" height="2.625" fill="#08070C"/>
<rect x="299.25" y="123.25" width="2.625" height="2.625" fill="#F6B384"/>
<rect x="254.625" y="97" width="2.625" height="2.625" fill="#08070C"/>
<rect x="257.25" y="97" width="2.625" height="2.625" fill="#FE6307"/>
<rect x="259.875" y="97" width="2.625" height="2.625" fill="#FE6307"/>
<rect x="262.5" y="97" width="2.625" height="2.625" fill="#FE6307"/>
<rect x="265.125" y="97" width="2.625" height="2.625" fill="#FE6307"/>
<rect x="267.75" y="97" width="2.625" height="2.625" fill="#F6B384"/>
<rect x="270.375" y="97" width="2.625" height="2.625" fill="#FE6307"/>
<rect x="273" y="97" width="2.625" height="2.625" fill="#FE6307"/>
<rect x="275.625" y="97" width="2.625" height="2.625" fill="#FE6307"/>
<rect x="278.25" y="97" width="2.625" height="2.625" fill="#08070C"/>
<rect x="246.75" y="125.875" width="2.625" height="2.625" fill="white"/>
<rect x="244.125" y="125.875" width="2.625" height="2.625" fill="#08070C"/>
<rect x="301.875" y="125.875" width="2.625" height="2.625" fill="#FE6307"/>
<rect x="304.5" y="125.875" width="2.625" height="2.625" fill="#FE6307"/>
<rect x="307.125" y="125.875" width="2.625" height="2.625" fill="#08070C"/>
<rect x="241.5" y="125.875" width="2.625" height="2.625" fill="#FE6307"/>
<rect x="238.875" y="125.875" width="2.625" height="2.625" fill="#FE6307"/>
<rect x="236.25" y="125.875" width="2.625" height="2.625" fill="#08070C"/>
<rect x="299.25" y="125.875" width="2.625" height="2.625" fill="#FE6307"/>
<rect x="254.625" y="99.625" width="2.625" height="2.625" fill="#08070C"/>
<rect x="257.25" y="99.625" width="2.625" height="2.625" fill="#08070C"/>
<rect x="259.875" y="99.625" width="2.625" height="2.625" fill="#08070C"/>
<rect x="262.5" y="99.625" width="2.625" height="2.625" fill="#08070C"/>
<rect x="265.125" y="99.625" width="2.625" height="2.625" fill="#F6B384"/>
<rect x="267.75" y="99.625" width="2.625" height="2.625" fill="#FE6307"/>
<rect x="270.375" y="99.625" width="2.625" height="2.625" fill="#FE6307"/>
<rect x="273" y="99.625" width="2.625" height="2.625" fill="#FE6307"/>
<rect x="275.625" y="99.625" width="2.625" height="2.625" fill="#F6B384"/>
<rect x="278.25" y="99.625" width="2.625" height="2.625" fill="#F6B384"/>
<rect x="280.875" y="99.625" width="2.625" height="2.625" fill="#08070C"/>
<rect x="246.75" y="128.5" width="2.625" height="2.625" fill="white"/>
<rect x="244.125" y="128.5" width="2.625" height="2.625" fill="#08070C"/>
<rect x="301.875" y="128.5" width="2.625" height="2.625" fill="#FE6307"/>
<rect x="304.5" y="128.5" width="2.625" height="2.625" fill="#FE6307"/>
<rect x="307.125" y="128.5" width="2.625" height="2.625" fill="#08070C"/>
<rect x="241.5" y="128.5" width="2.625" height="2.625" fill="#08070C"/>
<rect x="238.875" y="128.5" width="2.625" height="2.625" fill="#08070C"/>
<rect x="299.25" y="128.5" width="2.625" height="2.625" fill="#FE6307"/>
<rect x="249.375" y="102.25" width="2.625" height="2.625" fill="#08070C"/>
<rect x="252" y="102.25" width="2.625" height="2.625" fill="#08070C"/>
<rect x="254.625" y="102.25" width="2.625" height="2.625" fill="#FE6307"/>
<rect x="257.25" y="102.25" width="2.625" height="2.625" fill="#FE6307"/>
<rect x="259.875" y="102.25" width="2.625" height="2.625" fill="#FE6307"/>
<rect x="262.5" y="102.25" width="2.625" height="2.625" fill="#F6B384"/>
<rect x="265.125" y="102.25" width="2.625" height="2.625" fill="#08070C"/>
<rect x="267.75" y="102.25" width="2.625" height="2.625" fill="#08070C"/>
<rect x="283.5" y="102.25" width="2.625" height="2.625" fill="#08070C"/>
<rect x="270.375" y="102.25" width="2.625" height="2.625" fill="#FE6307"/>
<rect x="273" y="102.25" width="2.625" height="2.625" fill="#F6B384"/>
<rect x="275.625" y="102.25" width="2.625" height="2.625" fill="#FE6307"/>
<rect x="278.25" y="102.25" width="2.625" height="2.625" fill="#FE6307"/>
<rect x="280.875" y="102.25" width="2.625" height="2.625" fill="#FE6307"/>
<rect x="246.75" y="104.875" width="2.625" height="2.625" fill="#08070C"/>
<rect x="246.75" y="131.125" width="2.625" height="2.625" fill="white"/>
<rect x="244.125" y="131.125" width="2.625" height="2.625" fill="#08070C"/>
<rect x="301.875" y="131.125" width="2.625" height="2.625" fill="#FE6307"/>
<rect x="304.5" y="131.125" width="2.625" height="2.625" fill="#FE6307"/>
<rect x="307.125" y="131.125" width="2.625" height="2.625" fill="#08070C"/>
<rect x="299.25" y="131.125" width="2.625" height="2.625" fill="#08070C"/>
<rect x="249.375" y="104.875" width="2.625" height="2.625" fill="#FE6307"/>
<rect x="252" y="104.875" width="2.625" height="2.625" fill="#FE6307"/>
<rect x="254.625" y="104.875" width="2.625" height="2.625" fill="#FE6307"/>
<rect x="257.25" y="104.875" width="2.625" height="2.625" fill="#FE6307"/>
<rect x="259.875" y="104.875" width="2.625" height="2.625" fill="#F6B384"/>
<rect x="262.5" y="104.875" width="2.625" height="2.625" fill="#FE6307"/>
<rect x="265.125" y="104.875" width="2.625" height="2.625" fill="#FE6307"/>
<rect x="267.75" y="104.875" width="2.625" height="2.625" fill="#FE6307"/>
<rect x="283.5" y="104.875" width="2.625" height="2.625" fill="#F6B384"/>
<rect x="270.375" y="104.875" width="2.625" height="2.625" fill="#08070C"/>
<rect x="286.125" y="104.875" width="2.625" height="2.625" fill="#08070C"/>
<rect x="273" y="104.875" width="2.625" height="2.625" fill="#08070C"/>
<rect x="275.625" y="104.875" width="2.625" height="2.625" fill="#FE6307"/>
<rect x="278.25" y="104.875" width="2.625" height="2.625" fill="#FE6307"/>
<rect x="280.875" y="104.875" width="2.625" height="2.625" fill="#FE6307"/>
<rect x="246.75" y="107.5" width="2.625" height="2.625" fill="#FE6307"/>
<rect x="244.125" y="107.5" width="2.625" height="2.625" fill="#08070C"/>
<rect x="241.5" y="107.5" width="2.625" height="2.625" fill="#08070C"/>
<rect x="246.75" y="133.75" width="2.625" height="2.625" fill="#08070C"/>
<rect x="301.875" y="133.75" width="2.625" height="2.625" fill="#08070C"/>
<rect x="304.5" y="133.75" width="2.625" height="2.625" fill="#08070C"/>
<rect x="299.25" y="133.75" width="2.625" height="2.625" fill="#FE6307"/>
<rect x="249.375" y="107.5" width="2.625" height="2.625" fill="#FE6307"/>
<rect x="249.375" y="123.25" width="2.625" height="2.625" fill="#08070C"/>
<rect x="252" y="107.5" width="2.625" height="2.625" fill="#FE6307"/>
<rect x="252" y="123.25" width="2.625" height="2.625" fill="white"/>
<rect x="254.625" y="107.5" width="2.625" height="2.625" fill="#FE6307"/>
<rect x="254.625" y="123.25" width="2.625" height="2.625" fill="white"/>
<rect x="257.25" y="107.5" width="2.625" height="2.625" fill="#FE6307"/>
<rect x="257.25" y="123.25" width="2.625" height="2.625" fill="white"/>
<rect x="259.875" y="107.5" width="2.625" height="2.625" fill="#F6B384"/>
<rect x="259.875" y="123.25" width="2.625" height="2.625" fill="white"/>
<rect x="262.5" y="107.5" width="2.625" height="2.625" fill="#FE6307"/>
<rect x="262.5" y="123.25" width="2.625" height="2.625" fill="white"/>
<rect x="265.125" y="107.5" width="2.625" height="2.625" fill="#FE6307"/>
<rect x="265.125" y="123.25" width="2.625" height="2.625" fill="white"/>
<rect x="267.75" y="107.5" width="2.625" height="2.625" fill="#FE6307"/>
<rect x="267.75" y="123.25" width="2.625" height="2.625" fill="white"/>
<rect x="283.5" y="107.5" width="2.625" height="2.625" fill="#FE6307"/>
<rect x="283.5" y="123.25" width="2.625" height="2.625" fill="#FE6307"/>
<rect x="270.375" y="107.5" width="2.625" height="2.625" fill="#F6B384"/>
<rect x="270.375" y="123.25" width="2.625" height="2.625" fill="white"/>
<rect x="286.125" y="107.5" width="2.625" height="2.625" fill="#FE6307"/>
<rect x="286.125" y="123.25" width="2.625" height="2.625" fill="#FE6307"/>
<rect x="273" y="107.5" width="2.625" height="2.625" fill="#FE6307"/>
<rect x="273" y="123.25" width="2.625" height="2.625" fill="white"/>
<rect x="288.75" y="107.5" width="2.625" height="2.625" fill="#08070C"/>
<rect x="288.75" y="123.25" width="2.625" height="2.625" fill="#FE6307"/>
<rect x="275.625" y="107.5" width="2.625" height="2.625" fill="#08070C"/>
<rect x="275.625" y="123.25" width="2.625" height="2.625" fill="#08070C"/>
<rect x="291.375" y="123.25" width="2.625" height="2.625" fill="#08070C"/>
<rect x="278.25" y="107.5" width="2.625" height="2.625" fill="#F6B384"/>
<rect x="278.25" y="123.25" width="2.625" height="2.625" fill="#F6B384"/>
<rect x="294" y="123.25" width="2.625" height="2.625" fill="#FE6307"/>
<rect x="280.875" y="107.5" width="2.625" height="2.625" fill="#F6B384"/>
<rect x="280.875" y="123.25" width="2.625" height="2.625" fill="#FE6307"/>
<rect x="296.625" y="123.25" width="2.625" height="2.625" fill="#FE6307"/>
<rect x="246.75" y="110.125" width="2.625" height="2.625" fill="#F6B384"/>
<rect x="244.125" y="110.125" width="2.625" height="2.625" fill="#F6B384"/>
<rect x="241.5" y="110.125" width="2.625" height="2.625" fill="#FE6307"/>
<rect x="238.875" y="110.125" width="2.625" height="2.625" fill="#08070C"/>
<rect x="301.875" y="136.375" width="2.625" height="2.625" fill="#08070C"/>
<rect x="299.25" y="136.375" width="2.625" height="2.625" fill="#FE6307"/>
<rect x="301.875" y="139" width="2.625" height="2.625" fill="#08070C"/>
<rect x="299.25" y="139" width="2.625" height="2.625" fill="#FE6307"/>
<rect x="249.375" y="110.125" width="2.625" height="2.625" fill="#FE6307"/>
<rect x="249.375" y="125.875" width="2.625" height="2.625" fill="white"/>
<rect x="252" y="110.125" width="2.625" height="2.625" fill="#FE6307"/>
<rect x="252" y="125.875" width="2.625" height="2.625" fill="white"/>
<rect x="254.625" y="110.125" width="2.625" height="2.625" fill="#FE6307"/>
<rect x="254.625" y="125.875" width="2.625" height="2.625" fill="white"/>
<rect x="257.25" y="110.125" width="2.625" height="2.625" fill="#FE6307"/>
<rect x="257.25" y="125.875" width="2.625" height="2.625" fill="#08070C"/>
<rect x="259.875" y="110.125" width="2.625" height="2.625" fill="#F6B384"/>
<rect x="259.875" y="125.875" width="2.625" height="2.625" fill="white"/>
<rect x="262.5" y="110.125" width="2.625" height="2.625" fill="#FE6307"/>
<rect x="262.5" y="125.875" width="2.625" height="2.625" fill="white"/>
<rect x="265.125" y="110.125" width="2.625" height="2.625" fill="#FE6307"/>
<rect x="265.125" y="125.875" width="2.625" height="2.625" fill="white"/>
<rect x="267.75" y="110.125" width="2.625" height="2.625" fill="#F6B384"/>
<rect x="267.75" y="125.875" width="2.625" height="2.625" fill="#08070C"/>
<rect x="283.5" y="110.125" width="2.625" height="2.625" fill="#FE6307"/>
<rect x="283.5" y="125.875" width="2.625" height="2.625" fill="#FE6307"/>
<rect x="270.375" y="110.125" width="2.625" height="2.625" fill="#FE6307"/>
<rect x="270.375" y="125.875" width="2.625" height="2.625" fill="white"/>
<rect x="286.125" y="110.125" width="2.625" height="2.625" fill="#FE6307"/>
<rect x="286.125" y="125.875" width="2.625" height="2.625" fill="#F6B384"/>
<rect x="273" y="110.125" width="2.625" height="2.625" fill="#FE6307"/>
<rect x="273" y="125.875" width="2.625" height="2.625" fill="white"/>
<rect x="288.75" y="110.125" width="2.625" height="2.625" fill="#F6B384"/>
<rect x="288.75" y="125.875" width="2.625" height="2.625" fill="#F6B384"/>
<rect x="275.625" y="110.125" width="2.625" height="2.625" fill="#FE6307"/>
<rect x="275.625" y="125.875" width="2.625" height="2.625" fill="white"/>
<rect x="291.375" y="110.125" width="2.625" height="2.625" fill="#08070C"/>
<rect x="291.375" y="125.875" width="2.625" height="2.625" fill="#FE6307"/>
<rect x="278.25" y="110.125" width="2.625" height="2.625" fill="#08070C"/>
<rect x="278.25" y="125.875" width="2.625" height="2.625" fill="#08070C"/>
<rect x="294" y="125.875" width="2.625" height="2.625" fill="#08070C"/>
<rect x="280.875" y="110.125" width="2.625" height="2.625" fill="#FE6307"/>
<rect x="280.875" y="125.875" width="2.625" height="2.625" fill="#FE6307"/>
<rect x="296.625" y="125.875" width="2.625" height="2.625" fill="#F6B384"/>
<rect x="246.75" y="112.75" width="2.625" height="2.625" fill="#F6B384"/>
<rect x="244.125" y="112.75" width="2.625" height="2.625" fill="#FE6307"/>
<rect x="241.5" y="112.75" width="2.625" height="2.625" fill="#FE6307"/>
<rect x="238.875" y="112.75" width="2.625" height="2.625" fill="#FE6307"/>
<rect x="236.25" y="112.75" width="2.625" height="2.625" fill="#08070C"/>
<rect x="249.375" y="112.75" width="2.625" height="2.625" fill="#FE6307"/>
<rect x="249.375" y="128.5" width="2.625" height="2.625" fill="white"/>
<rect x="252" y="112.75" width="2.625" height="2.625" fill="#FE6307"/>
<rect x="252" y="128.5" width="2.625" height="2.625" fill="white"/>
<rect x="254.625" y="112.75" width="2.625" height="2.625" fill="#FE6307"/>
<rect x="254.625" y="128.5" width="2.625" height="2.625" fill="white"/>
<rect x="257.25" y="112.75" width="2.625" height="2.625" fill="#F6B384"/>
<rect x="257.25" y="128.5" width="2.625" height="2.625" fill="white"/>
<rect x="259.875" y="112.75" width="2.625" height="2.625" fill="#FE6307"/>
<rect x="259.875" y="128.5" width="2.625" height="2.625" fill="white"/>
<rect x="262.5" y="112.75" width="2.625" height="2.625" fill="#FE6307"/>
<rect x="262.5" y="128.5" width="2.625" height="2.625" fill="white"/>
<rect x="265.125" y="112.75" width="2.625" height="2.625" fill="#F6B384"/>
<rect x="265.125" y="128.5" width="2.625" height="2.625" fill="white"/>
<rect x="267.75" y="112.75" width="2.625" height="2.625" fill="#FE6307"/>
<rect x="267.75" y="128.5" width="2.625" height="2.625" fill="white"/>
<rect x="283.5" y="112.75" width="2.625" height="2.625" fill="#FE6307"/>
<rect x="283.5" y="128.5" width="2.625" height="2.625" fill="#08070C"/>
<rect x="270.375" y="112.75" width="2.625" height="2.625" fill="#FE6307"/>
<rect x="270.375" y="128.5" width="2.625" height="2.625" fill="white"/>
<rect x="286.125" y="112.75" width="2.625" height="2.625" fill="#F6B384"/>
<rect x="286.125" y="128.5" width="2.625" height="2.625" fill="#FE6307"/>
<rect x="273" y="112.75" width="2.625" height="2.625" fill="#FE6307"/>
<rect x="273" y="128.5" width="2.625" height="2.625" fill="white"/>
<rect x="288.75" y="112.75" width="2.625" height="2.625" fill="#F6B384"/>
<rect x="288.75" y="128.5" width="2.625" height="2.625" fill="#FE6307"/>
<rect x="275.625" y="112.75" width="2.625" height="2.625" fill="#FE6307"/>
<rect x="275.625" y="128.5" width="2.625" height="2.625" fill="white"/>
<rect x="291.375" y="112.75" width="2.625" height="2.625" fill="#FE6307"/>
<rect x="291.375" y="128.5" width="2.625" height="2.625" fill="#FE6307"/>
<rect x="278.25" y="112.75" width="2.625" height="2.625" fill="#F6B384"/>
<rect x="278.25" y="128.5" width="2.625" height="2.625" fill="white"/>
<rect x="294" y="112.75" width="2.625" height="2.625" fill="#08070C"/>
<rect x="294" y="128.5" width="2.625" height="2.625" fill="#FE6307"/>
<rect x="280.875" y="112.75" width="2.625" height="2.625" fill="#08070C"/>
<rect x="280.875" y="128.5" width="2.625" height="2.625" fill="#08070C"/>
<rect x="296.625" y="112.75" width="2.625" height="2.625" fill="#08070C"/>
<rect x="296.625" y="128.5" width="2.625" height="2.625" fill="#08070C"/>
<rect x="246.75" y="115.375" width="2.625" height="2.625" fill="#FE6307"/>
<rect x="244.125" y="115.375" width="2.625" height="2.625" fill="#FE6307"/>
<rect x="241.5" y="115.375" width="2.625" height="2.625" fill="#FE6307"/>
<rect x="238.875" y="115.375" width="2.625" height="2.625" fill="#FE6307"/>
<rect x="236.25" y="115.375" width="2.625" height="2.625" fill="#08070C"/>
<rect x="299.25" y="115.375" width="2.625" height="2.625" fill="#08070C"/>
<rect x="249.375" y="115.375" width="2.625" height="2.625" fill="#F6B384"/>
<rect x="249.375" y="131.125" width="2.625" height="2.625" fill="white"/>
<rect x="252" y="115.375" width="2.625" height="2.625" fill="#FE6307"/>
<rect x="252" y="131.125" width="2.625" height="2.625" fill="white"/>
<rect x="254.625" y="115.375" width="2.625" height="2.625" fill="#FE6307"/>
<rect x="254.625" y="131.125" width="2.625" height="2.625" fill="white"/>
<rect x="257.25" y="115.375" width="2.625" height="2.625" fill="#F6B384"/>
<rect x="257.25" y="131.125" width="2.625" height="2.625" fill="white"/>
<rect x="259.875" y="115.375" width="2.625" height="2.625" fill="#FE6307"/>
<rect x="259.875" y="131.125" width="2.625" height="2.625" fill="#08070C"/>
<rect x="262.5" y="115.375" width="2.625" height="2.625" fill="#F6B384"/>
<rect x="262.5" y="131.125" width="2.625" height="2.625" fill="#08070C"/>
<rect x="265.125" y="115.375" width="2.625" height="2.625" fill="#FE6307"/>
<rect x="265.125" y="131.125" width="2.625" height="2.625" fill="white"/>
<rect x="267.75" y="115.375" width="2.625" height="2.625" fill="#FE6307"/>
<rect x="267.75" y="131.125" width="2.625" height="2.625" fill="white"/>
<rect x="283.5" y="115.375" width="2.625" height="2.625" fill="#08070C"/>
<rect x="283.5" y="131.125" width="2.625" height="2.625" fill="white"/>
<rect x="270.375" y="115.375" width="2.625" height="2.625" fill="#FE6307"/>
<rect x="270.375" y="131.125" width="2.625" height="2.625" fill="white"/>
<rect x="286.125" y="115.375" width="2.625" height="2.625" fill="#F6B384"/>
<rect x="286.125" y="131.125" width="2.625" height="2.625" fill="#08070C"/>
<rect x="273" y="115.375" width="2.625" height="2.625" fill="#F6B384"/>
<rect x="273" y="131.125" width="2.625" height="2.625" fill="white"/>
<rect x="288.75" y="115.375" width="2.625" height="2.625" fill="#FE6307"/>
<rect x="288.75" y="131.125" width="2.625" height="2.625" fill="#FE6307"/>
<rect x="275.625" y="115.375" width="2.625" height="2.625" fill="#F6B384"/>
<rect x="275.625" y="131.125" width="2.625" height="2.625" fill="white"/>
<rect x="291.375" y="115.375" width="2.625" height="2.625" fill="#FE6307"/>
<rect x="291.375" y="131.125" width="2.625" height="2.625" fill="#FE6307"/>
<rect x="278.25" y="115.375" width="2.625" height="2.625" fill="#FE6307"/>
<rect x="278.25" y="131.125" width="2.625" height="2.625" fill="white"/>
<rect x="294" y="115.375" width="2.625" height="2.625" fill="#FE6307"/>
<rect x="294" y="131.125" width="2.625" height="2.625" fill="#FE6307"/>
<rect x="280.875" y="115.375" width="2.625" height="2.625" fill="#FE6307"/>
<rect x="280.875" y="131.125" width="2.625" height="2.625" fill="white"/>
<rect x="296.625" y="115.375" width="2.625" height="2.625" fill="#F6B384"/>
<rect x="296.625" y="131.125" width="2.625" height="2.625" fill="#F6B384"/>
<rect x="246.75" y="118" width="2.625" height="2.625" fill="#FE6307"/>
<rect x="244.125" y="118" width="2.625" height="2.625" fill="#FE6307"/>
<rect x="301.875" y="118" width="2.625" height="2.625" fill="#08070C"/>
<rect x="241.5" y="118" width="2.625" height="2.625" fill="#FE6307"/>
<rect x="238.875" y="118" width="2.625" height="2.625" fill="#FE6307"/>
<rect x="236.25" y="118" width="2.625" height="2.625" fill="#FE6307"/>
<rect x="233.625" y="118" width="2.625" height="2.625" fill="#08070C"/>
<rect x="299.25" y="118" width="2.625" height="2.625" fill="#FE6307"/>
<rect x="249.375" y="118" width="2.625" height="2.625" fill="#F6B384"/>
<rect x="249.375" y="133.75" width="2.625" height="2.625" fill="white"/>
<rect x="252" y="118" width="2.625" height="2.625" fill="#FE6307"/>
<rect x="252" y="133.75" width="2.625" height="2.625" fill="white"/>
<rect x="254.625" y="118" width="2.625" height="2.625" fill="#FE6307"/>
<rect x="254.625" y="133.75" width="2.625" height="2.625" fill="white"/>
<rect x="257.25" y="118" width="2.625" height="2.625" fill="#08070C"/>
<rect x="257.25" y="133.75" width="2.625" height="2.625" fill="white"/>
<rect x="259.875" y="118" width="2.625" height="2.625" fill="#08070C"/>
<rect x="259.875" y="133.75" width="2.625" height="2.625" fill="white"/>
<rect x="262.5" y="118" width="2.625" height="2.625" fill="#08070C"/>
<rect x="262.5" y="133.75" width="2.625" height="2.625" fill="white"/>
<rect x="265.125" y="118" width="2.625" height="2.625" fill="#08070C"/>
<rect x="265.125" y="133.75" width="2.625" height="2.625" fill="white"/>
<rect x="267.75" y="118" width="2.625" height="2.625" fill="#08070C"/>
<rect x="267.75" y="133.75" width="2.625" height="2.625" fill="white"/>
<rect x="283.5" y="118" width="2.625" height="2.625" fill="#FE6307"/>
<rect x="283.5" y="133.75" width="2.625" height="2.625" fill="#F1EEDB"/>
<rect x="270.375" y="118" width="2.625" height="2.625" fill="#FE6307"/>
<rect x="270.375" y="133.75" width="2.625" height="2.625" fill="white"/>
<rect x="286.125" y="118" width="2.625" height="2.625" fill="#08070C"/>
<rect x="286.125" y="133.75" width="2.625" height="2.625" fill="#C1BAA7"/>
<rect x="273" y="118" width="2.625" height="2.625" fill="#FE6307"/>
<rect x="273" y="133.75" width="2.625" height="2.625" fill="white"/>
<rect x="288.75" y="118" width="2.625" height="2.625" fill="#FE6307"/>
<rect x="288.75" y="133.75" width="2.625" height="2.625" fill="#08070C"/>
<rect x="275.625" y="118" width="2.625" height="2.625" fill="#FE6307"/>
<rect x="275.625" y="133.75" width="2.625" height="2.625" fill="#F1EEDB"/>
<rect x="291.375" y="118" width="2.625" height="2.625" fill="#F6B384"/>
<rect x="291.375" y="133.75" width="2.625" height="2.625" fill="#FE6307"/>
<rect x="278.25" y="118" width="2.625" height="2.625" fill="#FE6307"/>
<rect x="278.25" y="133.75" width="2.625" height="2.625" fill="white"/>
<rect x="294" y="118" width="2.625" height="2.625" fill="#F6B384"/>
<rect x="294" y="133.75" width="2.625" height="2.625" fill="#F6B384"/>
<rect x="280.875" y="118" width="2.625" height="2.625" fill="#FE6307"/>
<rect x="280.875" y="133.75" width="2.625" height="2.625" fill="#F1EEDB"/>
<rect x="296.625" y="118" width="2.625" height="2.625" fill="#FE6307"/>
<rect x="296.625" y="133.75" width="2.625" height="2.625" fill="#FE6307"/>
<rect x="246.75" y="120.625" width="2.625" height="2.625" fill="#FE6307"/>
<rect x="244.125" y="120.625" width="2.625" height="2.625" fill="#FE6307"/>
<rect x="301.875" y="120.625" width="2.625" height="2.625" fill="#FE6307"/>
<rect x="304.5" y="120.625" width="2.625" height="2.625" fill="#08070C"/>
<rect x="241.5" y="120.625" width="2.625" height="2.625" fill="#FE6307"/>
<rect x="238.875" y="120.625" width="2.625" height="2.625" fill="#F6B384"/>
<rect x="236.25" y="120.625" width="2.625" height="2.625" fill="#FE6307"/>
<rect x="233.625" y="120.625" width="2.625" height="2.625" fill="#08070C"/>
<rect x="299.25" y="120.625" width="2.625" height="2.625" fill="#FE6307"/>
<rect x="249.375" y="120.625" width="2.625" height="2.625" fill="#FE6307"/>
<rect x="249.375" y="136.375" width="2.625" height="2.625" fill="#08070C"/>
<rect x="252" y="120.625" width="2.625" height="2.625" fill="#08070C"/>
<rect x="252" y="136.375" width="2.625" height="2.625" fill="#08070C"/>
<rect x="254.625" y="120.625" width="2.625" height="2.625" fill="white"/>
<rect x="254.625" y="136.375" width="2.625" height="2.625" fill="#F1EEDB"/>
<rect x="254.625" y="139" width="2.625" height="2.625" fill="#08070C"/>
<rect x="257.25" y="120.625" width="2.625" height="2.625" fill="white"/>
<rect x="257.25" y="136.375" width="2.625" height="2.625" fill="#F1EEDB"/>
<rect x="257.25" y="139" width="2.625" height="2.625" fill="#08070C"/>
<rect x="259.875" y="120.625" width="2.625" height="2.625" fill="white"/>
<rect x="259.875" y="136.375" width="2.625" height="2.625" fill="white"/>
<rect x="259.875" y="139" width="2.625" height="2.625" fill="#08070C"/>
<rect x="262.5" y="120.625" width="2.625" height="2.625" fill="white"/>
<rect x="262.5" y="136.375" width="2.625" height="2.625" fill="white"/>
<rect x="262.5" y="139" width="2.625" height="2.625" fill="#08070C"/>
<rect x="265.125" y="120.625" width="2.625" height="2.625" fill="white"/>
<rect x="265.125" y="136.375" width="2.625" height="2.625" fill="white"/>
<rect x="265.125" y="139" width="2.625" height="2.625" fill="#08070C"/>
<rect x="267.75" y="120.625" width="2.625" height="2.625" fill="white"/>
<rect x="267.75" y="136.375" width="2.625" height="2.625" fill="white"/>
<rect x="267.75" y="139" width="2.625" height="2.625" fill="#08070C"/>
<rect x="283.5" y="120.625" width="2.625" height="2.625" fill="#FE6307"/>
<rect x="283.5" y="136.375" width="2.625" height="2.625" fill="#08070C"/>
<rect x="270.375" y="120.625" width="2.625" height="2.625" fill="white"/>
<rect x="270.375" y="136.375" width="2.625" height="2.625" fill="#F1EEDB"/>
<rect x="270.375" y="139" width="2.625" height="2.625" fill="#08070C"/>
<rect x="286.125" y="120.625" width="2.625" height="2.625" fill="#FE6307"/>
<rect x="286.125" y="136.375" width="2.625" height="2.625" fill="#08070C"/>
<rect x="273" y="120.625" width="2.625" height="2.625" fill="#08070C"/>
<rect x="273" y="136.375" width="2.625" height="2.625" fill="#F1EEDB"/>
<rect x="273" y="139" width="2.625" height="2.625" fill="#08070C"/>
<rect x="288.75" y="120.625" width="2.625" height="2.625" fill="#08070C"/>
<rect x="288.75" y="136.375" width="2.625" height="2.625" fill="#08070C"/>
<rect x="275.625" y="120.625" width="2.625" height="2.625" fill="#FE6307"/>
<rect x="275.625" y="136.375" width="2.625" height="2.625" fill="#F1EEDB"/>
<rect x="275.625" y="139" width="2.625" height="2.625" fill="#08070C"/>
<rect x="291.375" y="120.625" width="2.625" height="2.625" fill="#FE6307"/>
<rect x="291.375" y="136.375" width="2.625" height="2.625" fill="#08070C"/>
<rect x="278.25" y="120.625" width="2.625" height="2.625" fill="#FE6307"/>
<rect x="278.25" y="136.375" width="2.625" height="2.625" fill="#C1BAA7"/>
<rect x="278.25" y="139" width="2.625" height="2.625" fill="#08070C"/>
<rect x="294" y="120.625" width="2.625" height="2.625" fill="#FE6307"/>
<rect x="294" y="136.375" width="2.625" height="2.625" fill="#FE6307"/>
<rect x="294" y="139" width="2.625" height="2.625" fill="#FE6307"/>
<rect x="294" y="141.625" width="2.625" height="2.625" fill="#08070C"/>
<rect x="280.875" y="120.625" width="2.625" height="2.625" fill="#F6B384"/>
<rect x="280.875" y="136.375" width="2.625" height="2.625" fill="#08070C"/>
<rect x="296.625" y="120.625" width="2.625" height="2.625" fill="#FE6307"/>
<rect x="296.625" y="136.375" width="2.625" height="2.625" fill="#FE6307"/>
<rect x="296.625" y="139" width="2.625" height="2.625" fill="#FE6307"/>
<rect x="296.625" y="141.625" width="2.625" height="2.625" fill="#08070C"/>
</g>
<defs>
<filter id="filter0_d_1503_6681" x="0" y="0" width="327" height="176" filterUnits="userSpaceOnUse" color-interpolation-filters="sRGB">
<feFlood flood-opacity="0" result="BackgroundImageFix"/>
<feColorMatrix in="SourceAlpha" type="matrix" values="0 0 0 0 0 0 0 0 0 0 0 0 0 0 0 0 0 0 127 0" result="hardAlpha"/>
<feOffset dy="4"/>
<feComposite in2="hardAlpha" operator="out"/>
<feColorMatrix type="matrix" values="0 0 0 0 0.133333 0 0 0 0 0.133333 0 0 0 0 0.105882 0 0 0 1 0"/>
<feBlend mode="normal" in2="BackgroundImageFix" result="effect1_dropShadow_1503_6681"/>
<feBlend mode="normal" in="SourceGraphic" in2="effect1_dropShadow_1503_6681" result="shape"/>
</filter>
</defs>
</svg>
