<svg width="24" height="24" viewBox="0 0 24 24" fill="none" xmlns="http://www.w3.org/2000/svg">
<path fill-rule="evenodd" clip-rule="evenodd" d="M10.1811 10.1811C9.69885 10.6634 9.42791 11.3175 9.42791 11.9995V18.4284C9.42791 19.1104 9.69885 19.7645 10.1811 20.2468C10.6634 20.7291 11.3175 21 11.9995 21H18.4284C19.1104 21 19.7645 20.7291 20.2468 20.2468C20.7291 19.7645 21 19.1104 21 18.4284V11.9995C21 11.3175 20.7291 10.6634 20.2468 10.1811C19.7645 9.69885 19.1104 9.42791 18.4284 9.42791H11.9995C11.3175 9.42791 10.6634 9.69885 10.1811 10.1811Z" fill="#2A4E14"/>
<path d="M5.38283 4.44034C4.97503 4.54957 4.59275 4.73805 4.25781 4.99502C3.92286 5.252 3.64181 5.57243 3.43072 5.93803C3.21962 6.30363 3.08261 6.70723 3.0275 7.12578C2.9724 7.54434 3.00028 7.96965 3.10955 8.37743L4.43906 13.3457C4.64878 14.1293 5.14699 14.8046 5.83377 15.2362C6.52056 15.6678 7.34513 15.8239 8.14213 15.673V11.9995C8.14213 10.9765 8.54853 9.99532 9.27192 9.27192C9.99532 8.54853 10.9765 8.14213 11.9995 8.14213H15.0262L14.2882 5.38283C14.179 4.97503 13.9905 4.59275 13.7335 4.25781C13.4765 3.92286 13.1561 3.64181 12.7905 3.43072C12.4249 3.21962 12.0213 3.08261 11.6028 3.0275C11.1842 2.9724 10.7589 3.00028 10.3511 3.10955L5.38283 4.44034Z" fill="#669948"/>
</svg>
