<svg width="20" height="20" viewBox="0 0 20 20" fill="none" xmlns="http://www.w3.org/2000/svg">
<path d="M9.99967 12.9793C9.88856 12.9793 9.7844 12.9618 9.68717 12.9268C9.58995 12.8924 9.49967 12.8335 9.41634 12.7502L6.41634 9.75016C6.26356 9.59738 6.18717 9.40294 6.18717 9.16683C6.18717 8.93072 6.26356 8.73627 6.41634 8.5835C6.56912 8.43072 6.7669 8.35072 7.00967 8.3435C7.25301 8.33683 7.45106 8.40988 7.60384 8.56266L9.16634 10.1252V4.16683C9.16634 3.93072 9.24634 3.73266 9.40634 3.57266C9.56579 3.41322 9.76356 3.3335 9.99967 3.3335C10.2358 3.3335 10.4338 3.41322 10.5938 3.57266C10.7533 3.73266 10.833 3.93072 10.833 4.16683V10.1252L12.3955 8.56266C12.5483 8.40988 12.7463 8.33683 12.9897 8.3435C13.2325 8.35072 13.4302 8.43072 13.583 8.5835C13.7358 8.73627 13.8122 8.93072 13.8122 9.16683C13.8122 9.40294 13.7358 9.59738 13.583 9.75016L10.583 12.7502C10.4997 12.8335 10.4094 12.8924 10.3122 12.9268C10.215 12.9618 10.1108 12.9793 9.99967 12.9793ZM4.99967 16.6668C4.54134 16.6668 4.14912 16.5038 3.82301 16.1777C3.49634 15.851 3.33301 15.4585 3.33301 15.0002V13.3335C3.33301 13.0974 3.41273 12.8993 3.57217 12.7393C3.73217 12.5799 3.93023 12.5002 4.16634 12.5002C4.40245 12.5002 4.60051 12.5799 4.76051 12.7393C4.91995 12.8993 4.99967 13.0974 4.99967 13.3335V15.0002H14.9997V13.3335C14.9997 13.0974 15.0797 12.8993 15.2397 12.7393C15.3991 12.5799 15.5969 12.5002 15.833 12.5002C16.0691 12.5002 16.2669 12.5799 16.4263 12.7393C16.5863 12.8993 16.6663 13.0974 16.6663 13.3335V15.0002C16.6663 15.4585 16.5033 15.851 16.1772 16.1777C15.8505 16.5038 15.458 16.6668 14.9997 16.6668H4.99967Z" fill="#22221B"/>
</svg>
