<svg text-rendering="optimizeLegibility" image-rendering="crisp-edges" shape-rendering="crispEdges" width="24" height="24" viewBox="0 0 24 24" fill="none" xmlns="http://www.w3.org/2000/svg"><path d="M18.6 8.39995C19.3617 8.39951 20.095 8.6888 20.6512 9.20915C21.2075 9.7295 21.5449 10.4419 21.5952 11.202L21.6012 11.3987V18.5987C21.6013 19.3604 21.3117 20.0936 20.7912 20.6496C20.2706 21.2056 19.558 21.5428 18.798 21.5927L18.6012 21.5988H11.4012C10.6395 21.5989 9.90635 21.3093 9.35035 20.7887C8.79434 20.2681 8.45716 19.5556 8.4072 18.7955L8.4012 18.5987V11.3987C8.40108 10.6371 8.69068 9.9039 9.21125 9.3479C9.73182 8.79189 10.4444 8.45471 11.2044 8.40475L11.4 8.39995H18.6ZM15.0012 10.7999C14.8608 10.7999 14.7248 10.8491 14.6169 10.939C14.509 11.0289 14.4361 11.1538 14.4108 11.2919L14.4012 11.4V14.4H11.4L11.292 14.4083C11.1537 14.4334 11.0285 14.5062 10.9384 14.6141C10.8483 14.722 10.7989 14.8582 10.7989 14.9987C10.7989 15.1393 10.8483 15.2755 10.9384 15.3834C11.0285 15.4913 11.1537 15.5641 11.292 15.5892L11.4 15.5987H14.4V18.5987L14.4096 18.7067C14.4346 18.8451 14.5075 18.9702 14.6154 19.0604C14.7233 19.1505 14.8594 19.1999 15 19.1999C15.1406 19.1999 15.2767 19.1505 15.3846 19.0604C15.4925 18.9702 15.5653 18.8451 15.5904 18.7067L15.6 18.6V15.5999H18.6L18.708 15.5903C18.8463 15.5653 18.9715 15.4925 19.0616 15.3846C19.1517 15.2767 19.2011 15.1405 19.2011 14.9999C19.2011 14.8594 19.1517 14.7232 19.0616 14.6153C18.9715 14.5074 18.8463 14.4346 18.708 14.4096L18.6 14.4H15.6V11.4L15.5904 11.2919C15.5651 11.1538 15.4922 11.0289 15.3843 10.939C15.2764 10.8491 15.1404 10.7999 15 10.7999M15.1944 4.43275L15.252 4.62235L15.942 7.19875H10.8012C9.88295 7.1987 8.99938 7.54954 8.33129 8.17949C7.66319 8.80944 7.26107 9.67088 7.2072 10.5875L7.2012 10.7987V17.2163C6.58813 17.2034 5.99376 17.0028 5.49814 16.6417C5.00252 16.2806 4.62946 15.7763 4.4292 15.1967L4.3668 14.9928L2.5032 8.03875C2.30577 7.3031 2.39556 6.5199 2.75434 5.84802C3.11312 5.17613 3.71404 4.66588 4.4352 4.42075L4.6248 4.36435L11.5788 2.50075C12.2819 2.31228 13.0294 2.38585 13.6823 2.70774C14.3351 3.02963 14.8486 3.57789 15.1272 4.25035L15.1944 4.43275Z" fill="#2A4E14"/></svg>
