<svg width="24" height="24" viewBox="0 0 24 24" fill="none" xmlns="http://www.w3.org/2000/svg">
<path fill-rule="evenodd" clip-rule="evenodd" d="M9.87871 9.87871C9.3161 10.4413 9.00003 11.2044 9.00003 12V19.5C9.00003 20.2957 9.3161 21.0587 9.87871 21.6213C10.4413 22.184 11.2044 22.5 12 22.5H19.5C20.2957 22.5 21.0587 22.184 21.6213 21.6213C22.184 21.0587 22.5 20.2957 22.5 19.5V12C22.5 11.2044 22.184 10.4413 21.6213 9.87871C21.0587 9.3161 20.2957 9.00003 19.5 9.00003H12C11.2044 9.00003 10.4413 9.3161 9.87871 9.87871Z" fill="#2A4E14"/>
<path d="M4.28103 3.18153C3.8053 3.30895 3.35932 3.52883 2.96858 3.82861C2.57783 4.1284 2.24996 4.50222 2.0037 4.92873C1.75743 5.35524 1.59759 5.82608 1.5333 6.31436C1.46902 6.80265 1.50155 7.29881 1.62903 7.77453L3.18003 13.5705C3.42469 14.4846 4.0059 15.2725 4.8071 15.776C5.6083 16.2795 6.57025 16.4615 7.50003 16.2855V12C7.50003 10.8066 7.97413 9.66196 8.81805 8.81805C9.66196 7.97413 10.8066 7.50003 12 7.50003H15.531L14.67 4.28103C14.5426 3.8053 14.3227 3.35932 14.0229 2.96858C13.7232 2.57783 13.3493 2.24996 12.9228 2.0037C12.4963 1.75743 12.0255 1.59759 11.5372 1.5333C11.0489 1.46902 10.5527 1.50155 10.077 1.62903L4.28103 3.18153Z" fill="#669948"/>
</svg>
