<svg width="25" height="24" viewBox="0 0 25 24" fill="none" xmlns="http://www.w3.org/2000/svg">
<path d="M12.5 2C6.98 2 2.5 6.48 2.5 12C2.5 17.52 6.98 22 12.5 22C18.02 22 22.5 17.52 22.5 12C22.5 6.48 18.02 2 12.5 2ZM13.5 19H11.5V17H13.5V19ZM15.57 11.25L14.67 12.17C13.95 12.9 13.5 13.5 13.5 15H11.5V14.5C11.5 13.4 11.95 12.4 12.67 11.67L13.91 10.41C14.28 10.05 14.5 9.55 14.5 9C14.5 7.9 13.6 7 12.5 7C11.4 7 10.5 7.9 10.5 9H8.5C8.5 6.79 10.29 5 12.5 5C14.71 5 16.5 6.79 16.5 9C16.5 9.88 16.14 10.68 15.57 11.25Z" fill="#22221B"/>
</svg>
