<svg text-rendering="optimizeLegibility" image-rendering="crisp-edges" shape-rendering="crispEdges" width="25" height="24" viewBox="0 0 25 24" fill="none" xmlns="http://www.w3.org/2000/svg"><path d="M5.2998 8.75H11.6992C11.7124 8.75003 11.725 8.75531 11.7344 8.76465C11.7437 8.77398 11.749 8.78661 11.749 8.7998V15.1992C11.749 15.2124 11.7437 15.225 11.7344 15.2344C11.725 15.2437 11.7124 15.249 11.6992 15.249H5.2998C5.28661 15.249 5.27399 15.2437 5.26465 15.2344C5.25531 15.225 5.25003 15.2124 5.25 15.1992V8.7998C5.25003 8.7866 5.25531 8.77398 5.26465 8.76465C5.27398 8.75531 5.2866 8.75003 5.2998 8.75ZM14.3027 8.75H20.7002C20.7134 8.75003 20.726 8.75532 20.7354 8.76465C20.7447 8.77398 20.75 8.7866 20.75 8.7998V15.1992C20.75 15.2124 20.7447 15.225 20.7354 15.2344C20.726 15.2437 20.7134 15.249 20.7002 15.249H14.3027C14.2896 15.249 14.2769 15.2436 14.2676 15.2344C14.2582 15.225 14.253 15.2124 14.2529 15.1992V8.7998C14.253 8.7866 14.2582 8.77398 14.2676 8.76465C14.2769 8.7554 14.2896 8.75 14.3027 8.75Z" stroke="#22221B" stroke-width="1.5"/><path d="M14.5 9L20.5 15" stroke="#22221B" stroke-width="1.5" stroke-linecap="round"/><path d="M5.30005 8.7998L11.6993 15.199" stroke="#22221B" stroke-width="1.5" stroke-linecap="round"/><rect x="4.5" y="5" width="2" height="22" transform="rotate(-45 4.5 5)" fill="white"/><path d="M4.79834 5.29785L19.5359 20.0354" stroke="#22221B" stroke-width="1.5" stroke-linecap="round"/></svg>
