<svg text-rendering="optimizeLegibility" image-rendering="crisp-edges" shape-rendering="crispEdges" width="25" height="24" viewBox="0 0 25 24" fill="none" xmlns="http://www.w3.org/2000/svg"><rect x="0.5" width="24" height="24" rx="12" fill="#477E2D"/><rect x="1" y="0.5" width="23" height="23" rx="11.5" stroke="black" stroke-opacity="0.5"/><path d="M11.2275 15C11.1584 15 11.0936 14.9887 11.0331 14.9662C10.9727 14.944 10.9166 14.906 10.8647 14.8523L8.63654 12.5436C8.54154 12.4452 8.49611 12.3176 8.50026 12.1608C8.50475 12.0044 8.5545 11.877 8.6495 11.7785C8.7445 11.6801 8.86541 11.6309 9.01223 11.6309C9.15905 11.6309 9.27996 11.6801 9.37496 11.7785L11.2275 13.698L15.6191 9.14765C15.7141 9.04922 15.8372 9 15.9886 9C16.1395 9 16.2625 9.04922 16.3575 9.14765C16.4525 9.24609 16.5 9.37351 16.5 9.52993C16.5 9.68671 16.4525 9.81432 16.3575 9.91275L11.5902 14.8523C11.5384 14.906 11.4822 14.944 11.4218 14.9662C11.3613 14.9887 11.2966 15 11.2275 15Z" fill="white"/></svg>
