<svg text-rendering="optimizeLegibility" image-rendering="crisp-edges" shape-rendering="crispEdges" width="25" height="25" viewBox="0 0 25 25" fill="none" xmlns="http://www.w3.org/2000/svg"><path d="M10.25 13.5C10.25 12.9033 10.4871 12.331 10.909 11.909C11.331 11.4871 11.9033 11.25 12.5 11.25C13.0967 11.25 13.669 11.4871 14.091 11.909C14.5129 12.331 14.75 12.9033 14.75 13.5C14.75 14.0967 14.5129 14.669 14.091 15.091C13.669 15.5129 13.0967 15.75 12.5 15.75C11.9033 15.75 11.331 15.5129 10.909 15.091C10.4871 14.669 10.25 14.0967 10.25 13.5Z" fill="#D03535"/><path d="M9.64967 11.0635C9.07122 11.7401 8.75026 12.6034 8.75026 13.5C8.75026 14.4944 9.14488 15.4481 9.84792 16.1514C10.5512 16.8546 11.5057 17.25 12.5003 17.25C13.3965 17.2499 14.2583 16.9277 14.9348 16.3496L19.053 20.4678C19.0439 20.4686 19.0347 20.4709 19.0257 20.4717L17.0833 20.6289C14.033 20.8767 10.9675 20.8767 7.91725 20.6289L5.97389 20.4717C5.41514 20.4261 4.88736 20.1952 4.47585 19.8145C4.06436 19.4338 3.79317 18.9256 3.70436 18.3721L3.6067 17.7686C3.1998 15.2438 3.23626 12.669 3.7112 10.1562C3.80202 9.67727 4.04784 9.24094 4.41042 8.91504C4.77294 8.58931 5.23226 8.39098 5.71803 8.35156L6.84596 8.25977L9.64967 11.0635ZM13.884 5C14.2967 4.99974 14.7059 5.08048 15.0872 5.23828C15.4684 5.39609 15.815 5.62818 16.1067 5.91992C16.3984 6.21167 16.6296 6.55826 16.7874 6.93945C16.9451 7.32062 17.0259 7.7291 17.0257 8.1416C17.0258 8.14865 17.0288 8.15584 17.0335 8.16113C17.0382 8.16645 17.0449 8.16995 17.052 8.1709L19.2825 8.35059C20.2813 8.43277 21.1024 9.1714 21.2893 10.1562C21.7641 12.6686 21.7988 15.2442 21.3928 17.7686L21.2962 18.373C21.2339 18.7605 21.0796 19.1239 20.8528 19.4385L16.0667 14.6523C16.1859 14.2832 16.2503 13.8951 16.2503 13.5C16.2503 12.5055 15.8548 11.5519 15.1516 10.8486C14.4484 10.1454 13.4947 9.75007 12.5003 9.75C12.105 9.75 11.7162 9.81326 11.3469 9.93262L8.25514 6.84082C8.41082 6.49824 8.62733 6.18642 8.89381 5.91992C9.18563 5.62811 9.53202 5.39609 9.91335 5.23828C10.2946 5.08052 10.7038 4.99974 11.1165 5H13.884Z" fill="#D03535"/><path d="M4.31305 5.72656L19.0506 20.4642" stroke="#D03535" stroke-width="1.5" stroke-linecap="round"/></svg>
