<svg width="72" height="24" viewBox="0 0 72 24" fill="none" xmlns="http://www.w3.org/2000/svg">
<path d="M67.1631 19H65.6631V17.5H67.1631V19ZM67.1631 17.5H65.6631V16H67.1631V17.5ZM65.6631 17.5H64.1631V16H65.6631V17.5ZM64.1631 19H62.6631V17.5H64.1631V19ZM62.6631 19H61.1631V17.5H62.6631V19ZM61.1631 19H59.6631V17.5H61.1631V19ZM61.1631 17.5H59.6631V16H61.1631V17.5ZM62.6631 17.5H61.1631V16H62.6631V17.5ZM59.6631 17.5H58.1631V16H59.6631V17.5ZM59.6631 16H58.1631V14.5H59.6631V16ZM59.6631 10H58.1631V8.5H59.6631V10ZM61.1631 10H59.6631V8.5H61.1631V10ZM61.1631 16H59.6631V14.5H61.1631V16ZM62.6631 10H61.1631V8.5H62.6631V10ZM61.1631 8.5H59.6631V7H61.1631V8.5ZM62.6631 8.5H61.1631V7H62.6631V8.5ZM64.1631 8.5H62.6631V7H64.1631V8.5ZM65.6631 8.5H64.1631V7H65.6631V8.5ZM67.1631 8.5H65.6631V7H67.1631V8.5ZM67.1631 10H65.6631V8.5H67.1631V10ZM65.6631 10H64.1631V8.5H65.6631V10ZM67.1631 11.5H65.6631V10H67.1631V11.5ZM68.6631 10H67.1631V8.5H68.6631V10ZM68.6631 11.5H67.1631V10H68.6631V11.5ZM68.6631 13H67.1631V11.5H68.6631V13ZM68.6631 14.5H67.1631V13H68.6631V14.5ZM68.6631 16H67.1631V14.5H68.6631V16ZM68.6631 17.5H67.1631V16H68.6631V17.5ZM67.1631 16H65.6631V14.5H67.1631V16ZM67.1631 14.5H65.6631V13H67.1631V14.5ZM67.1631 13H65.6631V11.5H67.1631V13ZM64.1631 10H62.6631V8.5H64.1631V10ZM64.1631 17.5H62.6631V16H64.1631V17.5ZM67.1631 17.5H68.6631V19H67.1631V17.5ZM64.1631 11.5H65.6631V13H64.1631V11.5ZM62.6631 11.5H64.1631V13H62.6631V11.5ZM61.1631 11.5H62.6631V13H61.1631V11.5ZM59.6631 11.5H61.1631V13H59.6631V11.5ZM58.1631 13H59.6631V14.5H58.1631V13ZM59.6631 13H61.1631V14.5H59.6631V13ZM64.1631 13H65.6631V14.5H64.1631V13ZM62.6631 13H64.1631V14.5H62.6631V13ZM61.1631 13H62.6631V14.5H61.1631V13Z" fill="#2A4E14"/>
<path d="M49.7195 7H51.2195V8.5H49.7195V7ZM48.2195 7H49.7195V8.5H48.2195V7ZM48.2195 8.5H49.7195V10H48.2195V8.5ZM49.7195 8.5H51.2195V10H49.7195V8.5ZM51.2195 7H52.7195V8.5H51.2195V7ZM52.7195 7H54.2195V8.5H52.7195V7ZM54.2195 7H55.7195V8.5H54.2195V7ZM54.2195 8.5H55.7195V10H54.2195V8.5ZM52.7195 8.5H54.2195V10H52.7195V8.5ZM55.7195 8.5H57.2195V10H55.7195V8.5ZM55.7195 10H57.2195V11.5H55.7195V10ZM55.7195 14.5H57.2195V16H55.7195V14.5ZM55.7195 16H57.2195V17.5H55.7195V16ZM54.2195 16H55.7195V17.5H54.2195V16ZM54.2195 14.5H55.7195V16H54.2195V14.5ZM54.2195 10H55.7195V11.5H54.2195V10ZM52.7195 16H54.2195V17.5H52.7195V16ZM54.2195 17.5H55.7195V19H54.2195V17.5ZM52.7195 17.5H54.2195V19H52.7195V17.5ZM51.2195 17.5H52.7195V19H51.2195V17.5ZM49.7195 17.5H51.2195V19H49.7195V17.5ZM48.2195 17.5H49.7195V19H48.2195V17.5ZM48.2195 16H49.7195V17.5H48.2195V16ZM49.7195 16H51.2195V17.5H49.7195V16ZM48.2195 14.5H49.7195V16H48.2195V14.5ZM46.7195 16H48.2195V17.5H46.7195V16ZM46.7195 14.5H48.2195V16H46.7195V14.5ZM46.7195 13H48.2195V14.5H46.7195V13ZM46.7195 11.5H48.2195V13H46.7195V11.5ZM46.7195 10H48.2195V11.5H46.7195V10ZM46.7195 8.5H48.2195V10H46.7195V8.5ZM48.2195 10H49.7195V11.5H48.2195V10ZM48.2195 11.5H49.7195V13H48.2195V11.5ZM48.2195 13H49.7195V14.5H48.2195V13ZM51.2195 16H52.7195V17.5H51.2195V16ZM51.2195 8.5H52.7195V10H51.2195V8.5Z" fill="#2A4E14"/>
<path d="M42.7678 4H45.7678V7H42.7678V4ZM42.7678 8.5H45.7678V19H42.7678V8.5Z" fill="#22221B"/>
<path d="M32.8281 8.5H34.3281V10H32.8281V8.5ZM32.8281 7H34.3281V8.5H32.8281V7ZM34.3281 7H35.8281V8.5H34.3281V7ZM34.3281 8.5H35.8281V10H34.3281V8.5ZM34.3281 10H35.8281V11.5H34.3281V10ZM34.3281 11.5H35.8281V13H34.3281V11.5ZM34.3281 13H35.8281V14.5H34.3281V13ZM32.8281 13H34.3281V14.5H32.8281V13ZM32.8281 11.5H34.3281V13H32.8281V11.5ZM32.8281 10H34.3281V11.5H32.8281V10ZM32.8281 14.5H34.3281V16H32.8281V14.5ZM34.3281 14.5H35.8281V16H34.3281V14.5ZM34.3281 16H35.8281V17.5H34.3281V16ZM34.3281 17.5H35.8281V19H34.3281V17.5ZM32.8281 17.5H34.3281V19H32.8281V17.5ZM32.8281 16H34.3281V17.5H32.8281V16ZM35.8281 8.5H37.3281V10H35.8281V8.5ZM37.3281 8.5H38.8281V10H37.3281V8.5ZM38.8281 8.5H40.3281V10H38.8281V8.5ZM38.8281 7H40.3281V8.5H38.8281V7ZM37.3281 7H38.8281V8.5H37.3281V7ZM35.8281 10H37.3281V11.5H35.8281V10ZM40.3281 8.5H41.8281V10H40.3281V8.5ZM38.8281 10H40.3281V11.5H38.8281V10Z" fill="#22221B"/>
<path d="M30.3917 16H31.8917V17.5H30.3917V16ZM30.3917 17.5H31.8917V19H30.3917V17.5ZM28.8917 17.5H30.3917V19H28.8917V17.5ZM28.8917 16H30.3917V17.5H28.8917V16ZM27.3917 17.5H28.8917V19H27.3917V17.5ZM27.3917 16H28.8917V17.5H27.3917V16ZM25.8917 16H27.3917V17.5H25.8917V16ZM25.8917 14.5H27.3917V16H25.8917V14.5ZM25.8917 13H27.3917V14.5H25.8917V13ZM25.8917 11.5H27.3917V13H25.8917V11.5ZM25.8917 10H27.3917V11.5H25.8917V10ZM25.8917 8.5H27.3917V10H25.8917V8.5ZM27.3917 13H28.8917V14.5H27.3917V13ZM27.3917 14.5H28.8917V16H27.3917V14.5ZM27.3917 11.5H28.8917V13H27.3917V11.5ZM27.3917 10H28.8917V11.5H27.3917V10ZM27.3917 4H28.8917V5.5H27.3917V4ZM27.3917 5.5H28.8917V7H27.3917V5.5ZM27.3917 7H28.8917V8.5H27.3917V7ZM27.3917 8.5H28.8917V10H27.3917V8.5ZM25.8917 7H27.3917V8.5H25.8917V7ZM24.3917 8.5H25.8917V10H24.3917V8.5ZM28.8917 8.5H30.3917V10H28.8917V8.5ZM30.3917 8.5H31.8917V10H30.3917V8.5ZM25.8917 5.5H27.3917V7H25.8917V5.5ZM24.3917 10H25.8917V11.5H24.3917V10ZM28.8917 10H30.3917V11.5H28.8917V10ZM30.3917 10H31.8917V11.5H30.3917V10Z" fill="#22221B"/>
<path d="M23.4482 17.5H21.9482V16H23.4482V17.5ZM23.4482 19H21.9482V17.5H23.4482V19ZM21.9482 19H20.4482V17.5H21.9482V19ZM21.9482 17.5H20.4482V16H21.9482V17.5ZM21.9482 16H20.4482V14.5H21.9482V16ZM21.9482 14.5H20.4482V13H21.9482V14.5ZM21.9482 13H20.4482V11.5H21.9482V13ZM23.4482 13H21.9482V11.5H23.4482V13ZM23.4482 14.5H21.9482V13H23.4482V14.5ZM23.4482 16H21.9482V14.5H23.4482V16ZM23.4482 11.5H21.9482V10H23.4482V11.5ZM21.9482 11.5H20.4482V10H21.9482V11.5ZM21.9482 10H20.4482V8.5H21.9482V10ZM21.9482 8.5H20.4482V7H21.9482V8.5ZM23.4482 8.5H21.9482V7H23.4482V8.5ZM23.4482 10H21.9482V8.5H23.4482V10ZM15.9482 8.5H14.4482V7H15.9482V8.5ZM14.4482 8.5H12.9482V7H14.4482V8.5ZM14.4482 10H12.9482V8.5H14.4482V10ZM14.4482 11.5H12.9482V10H14.4482V11.5ZM14.4482 13H12.9482V11.5H14.4482V13ZM14.4482 14.5H12.9482V13H14.4482V14.5ZM14.4482 16H12.9482V14.5H14.4482V16ZM14.4482 17.5H12.9482V16H14.4482V17.5ZM15.9482 14.5H14.4482V13H15.9482V14.5ZM15.9482 13H14.4482V11.5H15.9482V13ZM15.9482 11.5H14.4482V10H15.9482V11.5ZM15.9482 10H14.4482V8.5H15.9482V10ZM15.9482 16H14.4482V14.5H15.9482V16ZM20.4482 17.5H18.9482V16H20.4482V17.5ZM18.9482 17.5H17.4482V16H18.9482V17.5ZM17.4482 17.5H15.9482V16H17.4482V17.5ZM17.4482 19H15.9482V17.5H17.4482V19ZM15.9482 19H14.4482V17.5H15.9482V19ZM15.9482 17.5H14.4482V16H15.9482V17.5ZM18.9482 19H17.4482V17.5H18.9482V19Z" fill="#22221B"/>
<path d="M4.5 11.5H6V13H4.5V11.5ZM4.5 10H6V11.5H4.5V10ZM6 10H7.5V11.5H6V10ZM6 11.5H7.5V13H6V11.5ZM6 13H7.5V14.5H6V13ZM4.5 13H6V14.5H4.5V13ZM4.5 7H6V8.5H4.5V7ZM4.5 8.5H6V10H4.5V8.5ZM3 10H4.5V11.5H3V10ZM3 8.5H4.5V10H3V8.5ZM3 7H4.5V8.5H3V7ZM0 4H1.5V5.5H0V4ZM1.5 4H3V5.5H1.5V4ZM3 4H4.5V5.5H3V4ZM3 5.5H4.5V7H3V5.5ZM1.5 5.5H3V7H1.5V5.5ZM0 5.5H1.5V7H0V5.5ZM0 7H1.5V8.5H0V7ZM1.5 7H3V8.5H1.5V7ZM1.5 8.5H3V10H1.5V8.5ZM1.5 10H3V11.5H1.5V10ZM0 10H1.5V11.5H0V10ZM0 8.5H1.5V10H0V8.5ZM0 11.5H1.5V13H0V11.5ZM1.5 11.5H3V13H1.5V11.5ZM1.5 13H3V14.5H1.5V13ZM1.5 14.5H3V16H1.5V14.5ZM1.5 16H3V17.5H1.5V16ZM1.5 17.5H3V19H1.5V17.5ZM0 17.5H1.5V19H0V17.5ZM0 16H1.5V17.5H0V16ZM0 14.5H1.5V16H0V14.5ZM0 13H1.5V14.5H0V13ZM6 14.5H7.5V16H6V14.5ZM6 16H7.5V17.5H6V16ZM7.5 14.5H9V16H7.5V14.5ZM7.5 13H9V14.5H7.5V13ZM7.5 16H9V17.5H7.5V16ZM7.5 17.5H9V19H7.5V17.5ZM9 17.5H10.5V19H9V17.5ZM10.5 17.5H12V19H10.5V17.5ZM10.5 16H12V17.5H10.5V16ZM10.5 14.5H12V16H10.5V14.5ZM9 14.5H10.5V16H9V14.5ZM9 16H10.5V17.5H9V16ZM9 13H10.5V14.5H9V13ZM10.5 11.5H12V13H10.5V11.5ZM10.5 10H12V11.5H10.5V10ZM10.5 13H12V14.5H10.5V13ZM9 11.5H10.5V13H9V11.5ZM9 10H10.5V11.5H9V10ZM9 8.5H10.5V10H9V8.5ZM10.5 8.5H12V10H10.5V8.5ZM10.5 7H12V8.5H10.5V7ZM9 4H10.5V5.5H9V4ZM10.5 4H12V5.5H10.5V4ZM10.5 5.5H12V7H10.5V5.5ZM9 5.5H10.5V7H9V5.5ZM9 7H10.5V8.5H9V7Z" fill="#22221B"/>
<rect x="58" y="20" width="11" height="3" fill="#669948"/>
<rect x="47" y="20" width="11" height="3" fill="#2A4E14"/>
</svg>
