<svg width="24" height="24" viewBox="0 0 24 24" fill="none" xmlns="http://www.w3.org/2000/svg">
<path d="M4 19C3.71667 19 3.47933 18.904 3.288 18.712C3.096 18.5207 3 18.2833 3 18C3 17.7167 3.096 17.4793 3.288 17.288C3.47933 17.096 3.71667 17 4 17H20C20.2833 17 20.5207 17.096 20.712 17.288C20.904 17.4793 21 17.7167 21 18C21 18.2833 20.904 18.5207 20.712 18.712C20.5207 18.904 20.2833 19 20 19H4ZM4 13C3.71667 13 3.47933 12.904 3.288 12.712C3.096 12.5207 3 12.2833 3 12C3 11.7167 3.096 11.479 3.288 11.287C3.47933 11.0957 3.71667 11 4 11H20C20.2833 11 20.5207 11.0957 20.712 11.287C20.904 11.479 21 11.7167 21 12C21 12.2833 20.904 12.5207 20.712 12.712C20.5207 12.904 20.2833 13 20 13H4ZM4 7C3.71667 7 3.47933 6.90433 3.288 6.713C3.096 6.521 3 6.28333 3 6C3 5.71667 3.096 5.479 3.288 5.287C3.47933 5.09567 3.71667 5 4 5H20C20.2833 5 20.5207 5.09567 20.712 5.287C20.904 5.479 21 5.71667 21 6C21 6.28333 20.904 6.521 20.712 6.713C20.5207 6.90433 20.2833 7 20 7H4Z" fill="#22221B"/>
</svg>
