<svg width="24" height="24" viewBox="0 0 24 24" fill="none" xmlns="http://www.w3.org/2000/svg">
<path d="M22 2.83333V7C22 7.22101 21.9122 7.43297 21.7559 7.58926C21.5996 7.74554 21.3877 7.83333 21.1667 7.83333C20.9457 7.83333 20.7337 7.74554 20.5774 7.58926C20.4211 7.43297 20.3333 7.22101 20.3333 7V3.66667H17C16.779 3.66667 16.567 3.57887 16.4107 3.42259C16.2545 3.26631 16.1667 3.05435 16.1667 2.83333C16.1667 2.61232 16.2545 2.40036 16.4107 2.24408C16.567 2.0878 16.779 2 17 2H21.1667C21.3877 2 21.5996 2.0878 21.7559 2.24408C21.9122 2.40036 22 2.61232 22 2.83333ZM7 20.3333H3.66667V17C3.66667 16.779 3.57887 16.567 3.42259 16.4107C3.26631 16.2545 3.05435 16.1667 2.83333 16.1667C2.61232 16.1667 2.40036 16.2545 2.24408 16.4107C2.0878 16.567 2 16.779 2 17V21.1667C2 21.3877 2.0878 21.5996 2.24408 21.7559C2.40036 21.9122 2.61232 22 2.83333 22H7C7.22101 22 7.43297 21.9122 7.58926 21.7559C7.74554 21.5996 7.83333 21.3877 7.83333 21.1667C7.83333 20.9457 7.74554 20.7337 7.58926 20.5774C7.43297 20.4211 7.22101 20.3333 7 20.3333ZM21.1667 16.1667C20.9457 16.1667 20.7337 16.2545 20.5774 16.4107C20.4211 16.567 20.3333 16.779 20.3333 17V20.3333H17C16.779 20.3333 16.567 20.4211 16.4107 20.5774C16.2545 20.7337 16.1667 20.9457 16.1667 21.1667C16.1667 21.3877 16.2545 21.5996 16.4107 21.7559C16.567 21.9122 16.779 22 17 22H21.1667C21.3877 22 21.5996 21.9122 21.7559 21.7559C21.9122 21.5996 22 21.3877 22 21.1667V17C22 16.779 21.9122 16.567 21.7559 16.4107C21.5996 16.2545 21.3877 16.1667 21.1667 16.1667ZM2.83333 7.83333C3.05435 7.83333 3.26631 7.74554 3.42259 7.58926C3.57887 7.43297 3.66667 7.22101 3.66667 7V3.66667H7C7.22101 3.66667 7.43297 3.57887 7.58926 3.42259C7.74554 3.26631 7.83333 3.05435 7.83333 2.83333C7.83333 2.61232 7.74554 2.40036 7.58926 2.24408C7.43297 2.0878 7.22101 2 7 2H2.83333C2.61232 2 2.40036 2.0878 2.24408 2.24408C2.0878 2.40036 2 2.61232 2 2.83333V7C2 7.22101 2.0878 7.43297 2.24408 7.58926C2.40036 7.74554 2.61232 7.83333 2.83333 7.83333ZM6.16667 7V17C6.16667 17.221 6.25446 17.433 6.41074 17.5893C6.56702 17.7455 6.77899 17.8333 7 17.8333H17C17.221 17.8333 17.433 17.7455 17.5893 17.5893C17.7455 17.433 17.8333 17.221 17.8333 17V7C17.8333 6.77899 17.7455 6.56702 17.5893 6.41074C17.433 6.25446 17.221 6.16667 17 6.16667H7C6.77899 6.16667 6.56702 6.25446 6.41074 6.41074C6.25446 6.56702 6.16667 6.77899 6.16667 7Z" fill="#2A4E14"/>
</svg>
