<svg width="100" height="100" viewBox="0 0 100 100" fill="none" xmlns="http://www.w3.org/2000/svg">
<rect x="66.6665" y="12.5" width="4.16667" height="4.16665" fill="#3B0E09"/>
<rect x="70.8325" y="12.5" width="4.16667" height="4.16665" fill="#3B0E09"/>
<rect x="49.9976" y="12.5" width="4.16667" height="4.16665" fill="#3B0E09"/>
<rect x="54.1655" y="12.5" width="4.16667" height="4.16665" fill="#3B0E09"/>
<rect x="79.1665" y="12.5" width="4.16667" height="4.16665" fill="#3B0E09"/>
<rect x="66.6665" y="16.667" width="4.16667" height="4.16665" fill="#60BF32"/>
<rect x="45.8345" y="16.667" width="4.16667" height="4.16665" fill="#3B0E09"/>
<rect x="70.8325" y="16.667" width="4.16667" height="4.16665" fill="#60BF32"/>
<rect x="49.9976" y="16.667" width="4.16667" height="4.16665" fill="#60BF32"/>
<rect x="75.0005" y="16.667" width="4.16667" height="4.16665" fill="#3B0E09"/>
<rect x="54.1655" y="16.667" width="4.16667" height="4.16665" fill="#60BF32"/>
<rect x="79.1665" y="16.667" width="4.16667" height="4.16665" fill="#98E673"/>
<rect x="58.3345" y="16.667" width="4.16667" height="4.16665" fill="#3B0E09"/>
<rect x="83.3335" y="16.667" width="4.16667" height="4.16665" fill="#3B0E09"/>
<rect x="62.5005" y="16.667" width="4.16667" height="4.16665" fill="#3B0E09"/>
<rect x="66.6665" y="20.8369" width="4.16667" height="4.16665" fill="#60BF32"/>
<rect x="70.8325" y="20.8369" width="4.16667" height="4.16665" fill="#1D793B"/>
<rect x="49.9976" y="20.8369" width="4.16667" height="4.16665" fill="#3B0E09"/>
<rect x="75.0005" y="20.8369" width="4.16667" height="4.16665" fill="#0FA23A"/>
<rect x="54.1655" y="20.8369" width="4.16667" height="4.16665" fill="#1D793B"/>
<rect x="79.1665" y="20.8369" width="4.16667" height="4.16665" fill="#60BF32"/>
<rect x="58.3345" y="20.8369" width="4.16667" height="4.16665" fill="#0FA23A"/>
<rect x="83.3335" y="20.8369" width="4.16667" height="4.16665" fill="#3B0E09"/>
<rect x="62.5005" y="20.8369" width="4.16667" height="4.16665" fill="#60BF32"/>
<rect x="66.6665" y="25.001" width="4.16667" height="4.16665" fill="#60BF32"/>
<rect x="70.8325" y="25.001" width="4.16667" height="4.16665" fill="#0FA23A"/>
<rect x="75.0005" y="25.001" width="4.16667" height="4.16665" fill="#1D793B"/>
<rect x="54.1655" y="25.001" width="4.16667" height="4.16665" fill="#3B0E09"/>
<rect x="79.1665" y="25.001" width="4.16667" height="4.16665" fill="#3B0E09"/>
<rect x="58.3345" y="25.001" width="4.16667" height="4.16665" fill="#1D793B"/>
<rect x="62.5005" y="25.001" width="4.16667" height="4.16665" fill="#0FA23A"/>
<rect x="66.6665" y="29.168" width="4.16667" height="4.16665" fill="#0FA23A"/>
<rect x="45.8345" y="29.168" width="4.16667" height="4.16665" fill="#3B0E09"/>
<rect x="70.8325" y="29.168" width="4.16667" height="4.16665" fill="#1D793B"/>
<rect x="49.9976" y="29.168" width="4.16667" height="4.16665" fill="#3B0E09"/>
<rect x="75.0005" y="29.168" width="4.16667" height="4.16665" fill="#1D793B"/>
<rect x="54.1655" y="29.168" width="4.16667" height="4.16665" fill="#1D793B"/>
<rect x="79.1665" y="29.168" width="4.16667" height="4.16665" fill="#60BF32"/>
<rect x="58.3345" y="29.168" width="4.16667" height="4.16665" fill="#1D793B"/>
<rect x="83.3335" y="29.168" width="4.16667" height="4.16665" fill="#3B0E09"/>
<rect x="62.5005" y="29.168" width="4.16667" height="4.16665" fill="#1D793B"/>
<rect x="41.6646" y="33.335" width="4.16667" height="4.16665" fill="#3B0E09"/>
<rect x="66.6665" y="33.335" width="4.16667" height="4.16665" fill="#0FA23A"/>
<rect x="45.8345" y="33.335" width="4.16667" height="4.16665" fill="#FF9F58"/>
<rect x="70.8325" y="33.335" width="4.16667" height="4.16665" fill="#1D793B"/>
<rect x="49.9976" y="33.335" width="4.16667" height="4.16665" fill="#FB6D03"/>
<rect x="75.0005" y="33.335" width="4.16667" height="4.16665" fill="#3B0E09"/>
<rect x="54.1655" y="33.335" width="4.16667" height="4.16665" fill="#FB3503"/>
<rect x="79.1665" y="33.335" width="4.16667" height="4.16665" fill="#1D793B"/>
<rect x="58.3345" y="33.335" width="4.16667" height="4.16665" fill="#FB3503"/>
<rect x="83.3335" y="33.335" width="4.16667" height="4.16665" fill="#60BF32"/>
<rect x="62.5005" y="33.335" width="4.16667" height="4.16665" fill="#1D793B"/>
<rect x="87.5015" y="33.335" width="4.16667" height="4.16665" fill="#3B0E09"/>
<rect x="37.4976" y="37.502" width="4.16667" height="4.16665" fill="#3B0E09"/>
<rect x="41.6646" y="37.502" width="4.16667" height="4.16665" fill="#FF9F58"/>
<rect x="66.6665" y="37.502" width="4.16667" height="4.16665" fill="#B92F17"/>
<rect x="45.8345" y="37.502" width="4.16667" height="4.16665" fill="#FF9F58"/>
<rect x="70.8325" y="37.502" width="4.16667" height="4.16665" fill="#1D793B"/>
<rect x="49.9976" y="37.502" width="4.16667" height="4.16665" fill="#FB6D03"/>
<rect x="54.1655" y="37.502" width="4.16667" height="4.16665" fill="#FB6D03"/>
<rect x="79.1665" y="37.502" width="4.16667" height="4.16665" fill="#3B0E09"/>
<rect x="58.3345" y="37.502" width="4.16667" height="4.16665" fill="#FB3503"/>
<rect x="83.3335" y="37.502" width="4.16667" height="4.16665" fill="#3B0E09"/>
<rect x="62.5005" y="37.502" width="4.16667" height="4.16665" fill="#FB3503"/>
<rect x="87.5015" y="37.502" width="4.16667" height="4.16665" fill="#3B0E09"/>
<rect x="16.6655" y="66.6709" width="4.16667" height="4.16665" fill="#3B0E09"/>
<rect x="20.8306" y="66.6709" width="4.16667" height="4.16665" fill="#FB6D03"/>
<rect x="24.9976" y="66.6709" width="4.16667" height="4.16665" fill="#FB6D03"/>
<rect x="29.1626" y="66.6709" width="4.16667" height="4.16665" fill="#FB3503"/>
<rect x="33.3335" y="41.6689" width="4.16667" height="4.16665" fill="#3B0E09"/>
<rect x="33.3335" y="66.6709" width="4.16667" height="4.16665" fill="#FB3503"/>
<rect x="37.4976" y="41.6689" width="4.16667" height="4.16665" fill="#B92F17"/>
<rect x="37.4976" y="66.6709" width="4.16667" height="4.16665" fill="#B92F17"/>
<rect x="41.6646" y="41.6689" width="4.16667" height="4.16665" fill="#B92F17"/>
<rect x="41.6646" y="66.6709" width="4.16667" height="4.16665" fill="#B92F17"/>
<rect x="66.6665" y="41.6689" width="4.16667" height="4.16665" fill="#B92F17"/>
<rect x="45.8345" y="41.6689" width="4.16667" height="4.16665" fill="#FB6D03"/>
<rect x="45.8345" y="66.6709" width="4.16667" height="4.16665" fill="#3B0E09"/>
<rect x="70.8325" y="41.6689" width="4.16667" height="4.16665" fill="#3B0E09"/>
<rect x="49.9976" y="41.6689" width="4.16667" height="4.16665" fill="#FB6D03"/>
<rect x="54.1655" y="41.6689" width="4.16667" height="4.16665" fill="#FB6D03"/>
<rect x="58.3345" y="41.6689" width="4.16667" height="4.16665" fill="#FB3503"/>
<rect x="62.5005" y="41.6689" width="4.16667" height="4.16665" fill="#B92F17"/>
<rect x="87.5015" y="41.6689" width="4.16667" height="4.16665" fill="#3B0E09"/>
<rect x="16.6655" y="70.8398" width="4.16667" height="4.16665" fill="#3B0E09"/>
<rect x="20.8325" y="70.8398" width="4.16667" height="4.16665" fill="#FB6D03"/>
<rect x="24.9976" y="70.8398" width="4.16667" height="4.16665" fill="#FB3503"/>
<rect x="29.1626" y="70.8398" width="4.16667" height="4.16665" fill="#B92F17"/>
<rect x="33.3335" y="45.8359" width="4.16667" height="4.16665" fill="#FF9F58"/>
<rect x="33.3335" y="70.8398" width="4.16667" height="4.16665" fill="#B92F17"/>
<rect x="37.4976" y="45.8359" width="4.16667" height="4.16665" fill="#FB3503"/>
<rect x="37.4976" y="70.8398" width="4.16667" height="4.16665" fill="#3B0E09"/>
<rect x="41.6646" y="45.8359" width="4.16667" height="4.16665" fill="#FB3503"/>
<rect x="66.6665" y="45.8359" width="4.16667" height="4.16665" fill="#B92F17"/>
<rect x="45.8345" y="45.8359" width="4.16667" height="4.16665" fill="#FB6D03"/>
<rect x="70.8325" y="45.8359" width="4.16667" height="4.16665" fill="#3B0E09"/>
<rect x="49.9976" y="45.8359" width="4.16667" height="4.16665" fill="#FB6D03"/>
<rect x="54.1655" y="45.8359" width="4.16667" height="4.16665" fill="#FB3503"/>
<rect x="58.3345" y="45.8359" width="4.16667" height="4.16665" fill="#FB3503"/>
<rect x="62.5005" y="45.8359" width="4.16667" height="4.16665" fill="#B92F17"/>
<rect x="12.4966" y="75.0029" width="4.16667" height="4.16665" fill="#3B0E09"/>
<rect x="16.6655" y="75.0029" width="4.16667" height="4.16665" fill="#FB6D03"/>
<rect x="20.8306" y="75.0029" width="4.16667" height="4.16665" fill="#B92F17"/>
<rect x="24.9976" y="75.0029" width="4.16667" height="4.16665" fill="#B92F17"/>
<rect x="29.1626" y="50.0029" width="4.16667" height="4.16665" fill="#3B0E09"/>
<rect x="29.1626" y="75.0029" width="4.16667" height="4.16665" fill="#B92F17"/>
<rect x="33.3335" y="50.0029" width="4.16667" height="4.16665" fill="#FF9F58"/>
<rect x="33.3335" y="75.0029" width="4.16667" height="4.16665" fill="#3B0E09"/>
<rect x="37.4976" y="50.0029" width="4.16667" height="4.16665" fill="#FB6D03"/>
<rect x="41.6646" y="50.0029" width="4.16667" height="4.16665" fill="#FB3503"/>
<rect x="66.6665" y="50.0029" width="4.16667" height="4.16665" fill="#3B0E09"/>
<rect x="45.8345" y="50.0029" width="4.16667" height="4.16665" fill="#FB3503"/>
<rect x="49.9976" y="50.0029" width="4.16667" height="4.16665" fill="#FB3503"/>
<rect x="54.1655" y="50.0029" width="4.16667" height="4.16665" fill="#FB3503"/>
<rect x="58.3345" y="50.0029" width="4.16667" height="4.16665" fill="#B92F17"/>
<rect x="62.5005" y="50.0029" width="4.16667" height="4.16665" fill="#B92F17"/>
<rect x="12.4966" y="79.1709" width="4.16667" height="4.16665" fill="#B92F17"/>
<rect x="16.6655" y="79.1709" width="4.16667" height="4.16665" fill="#B92F17"/>
<rect x="20.8306" y="79.1709" width="4.16667" height="4.16665" fill="#3B0E09"/>
<rect x="24.9976" y="54.1699" width="4.16667" height="4.16665" fill="#3B0E09"/>
<rect x="24.9976" y="79.1709" width="4.16667" height="4.16665" fill="#3B0E09"/>
<rect x="29.1626" y="54.1699" width="4.16667" height="4.16665" fill="#FF9F58"/>
<rect x="33.3335" y="54.1699" width="4.16667" height="4.16665" fill="#FB6D03"/>
<rect x="37.4976" y="54.1699" width="4.16667" height="4.16665" fill="#FB6D03"/>
<rect x="41.6646" y="54.1699" width="4.16667" height="4.16665" fill="#FB6D03"/>
<rect x="45.8345" y="54.1699" width="4.16667" height="4.16665" fill="#FB3503"/>
<rect x="49.9976" y="54.1699" width="4.16667" height="4.16665" fill="#B92F17"/>
<rect x="54.1655" y="54.1699" width="4.16667" height="4.16665" fill="#B92F17"/>
<rect x="58.3345" y="54.1699" width="4.16667" height="4.16665" fill="#B92F17"/>
<rect x="62.5005" y="54.1699" width="4.16667" height="4.16665" fill="#3B0E09"/>
<rect x="12.4966" y="83.3398" width="4.16667" height="4.16665" fill="#3B0E09"/>
<rect x="16.6655" y="83.3398" width="4.16667" height="4.16665" fill="#3B0E09"/>
<rect x="24.9976" y="58.3359" width="4.16667" height="4.16665" fill="#FB6D03"/>
<rect x="29.1626" y="58.3359" width="4.16667" height="4.16665" fill="#FB6D03"/>
<rect x="33.3335" y="58.3359" width="4.16667" height="4.16665" fill="#FB6D03"/>
<rect x="37.4976" y="58.3359" width="4.16667" height="4.16665" fill="#FB6D03"/>
<rect x="41.6646" y="58.3359" width="4.16667" height="4.16665" fill="#FB3503"/>
<rect x="45.8345" y="58.3359" width="4.16667" height="4.16665" fill="#B92F17"/>
<rect x="49.9976" y="58.3359" width="4.16667" height="4.16665" fill="#B92F17"/>
<rect x="54.1655" y="58.3359" width="4.16667" height="4.16665" fill="#B92F17"/>
<rect x="58.3345" y="58.3359" width="4.16667" height="4.16665" fill="#3B0E09"/>
<rect x="20.8325" y="62.5029" width="4.16667" height="4.16665" fill="#3B0E09"/>
<rect x="24.9976" y="62.5029" width="4.16667" height="4.16665" fill="#FB6D03"/>
<rect x="29.1626" y="62.5029" width="4.16667" height="4.16665" fill="#FB6D03"/>
<rect x="33.3335" y="62.5029" width="4.16667" height="4.16665" fill="#FB3503"/>
<rect x="37.4976" y="62.5029" width="4.16667" height="4.16665" fill="#FB3503"/>
<rect x="41.6646" y="62.5029" width="4.16667" height="4.16665" fill="#B92F17"/>
<rect x="45.8345" y="62.5029" width="4.16667" height="4.16665" fill="#B92F17"/>
<rect x="49.9976" y="62.5029" width="4.16667" height="4.16665" fill="#B92F17"/>
<rect x="54.1655" y="62.5029" width="4.16667" height="4.16665" fill="#3B0E09"/>
</svg>
