<svg text-rendering="optimizeLegibility" image-rendering="crisp-edges" shape-rendering="crispEdges" width="16" height="16" viewBox="0 0 16 16" fill="none" xmlns="http://www.w3.org/2000/svg"><path d="M14.6667 1.88856V4.66634C14.6667 4.81368 14.6082 4.95499 14.504 5.05918C14.3998 5.16336 14.2585 5.2219 14.1112 5.2219C13.9638 5.2219 13.8225 5.16336 13.7183 5.05918C13.6141 4.95499 13.5556 4.81368 13.5556 4.66634V2.44412H11.3334C11.186 2.44412 11.0447 2.38559 10.9405 2.2814C10.8363 2.17721 10.7778 2.03591 10.7778 1.88856C10.7778 1.74122 10.8363 1.59991 10.9405 1.49573C11.0447 1.39154 11.186 1.33301 11.3334 1.33301H14.1112C14.2585 1.33301 14.3998 1.39154 14.504 1.49573C14.6082 1.59991 14.6667 1.74122 14.6667 1.88856ZM4.66671 13.5552H2.44449V11.333C2.44449 11.1857 2.38595 11.0444 2.28177 10.9402C2.17758 10.836 2.03627 10.7775 1.88893 10.7775C1.74159 10.7775 1.60028 10.836 1.49609 10.9402C1.39191 11.0444 1.33337 11.1857 1.33337 11.333V14.1108C1.33337 14.2581 1.39191 14.3994 1.49609 14.5036C1.60028 14.6078 1.74159 14.6663 1.88893 14.6663H4.66671C4.81405 14.6663 4.95536 14.6078 5.05954 14.5036C5.16373 14.3994 5.22226 14.2581 5.22226 14.1108C5.22226 13.9634 5.16373 13.8221 5.05954 13.7179C4.95536 13.6138 4.81405 13.5552 4.66671 13.5552ZM14.1112 10.7775C13.9638 10.7775 13.8225 10.836 13.7183 10.9402C13.6141 11.0444 13.5556 11.1857 13.5556 11.333V13.5552H11.3334C11.186 13.5552 11.0447 13.6138 10.9405 13.7179C10.8363 13.8221 10.7778 13.9634 10.7778 14.1108C10.7778 14.2581 10.8363 14.3994 10.9405 14.5036C11.0447 14.6078 11.186 14.6663 11.3334 14.6663H14.1112C14.2585 14.6663 14.3998 14.6078 14.504 14.5036C14.6082 14.3994 14.6667 14.2581 14.6667 14.1108V11.333C14.6667 11.1857 14.6082 11.0444 14.504 10.9402C14.3998 10.836 14.2585 10.7775 14.1112 10.7775ZM1.88893 5.2219C2.03627 5.2219 2.17758 5.16336 2.28177 5.05918C2.38595 4.95499 2.44449 4.81368 2.44449 4.66634V2.44412H4.66671C4.81405 2.44412 4.95536 2.38559 5.05954 2.2814C5.16373 2.17721 5.22226 2.03591 5.22226 1.88856C5.22226 1.74122 5.16373 1.59991 5.05954 1.49573C4.95536 1.39154 4.81405 1.33301 4.66671 1.33301H1.88893C1.74159 1.33301 1.60028 1.39154 1.49609 1.49573C1.39191 1.59991 1.33337 1.74122 1.33337 1.88856V4.66634C1.33337 4.81368 1.39191 4.95499 1.49609 5.05918C1.60028 5.16336 1.74159 5.2219 1.88893 5.2219ZM4.11115 4.66634V11.333C4.11115 11.4803 4.16968 11.6217 4.27387 11.7258C4.37806 11.83 4.51936 11.8886 4.66671 11.8886H11.3334C11.4807 11.8886 11.622 11.83 11.7262 11.7258C11.8304 11.6217 11.8889 11.4803 11.8889 11.333V4.66634C11.8889 4.519 11.8304 4.37769 11.7262 4.2735C11.622 4.16932 11.4807 4.11079 11.3334 4.11079H4.66671C4.51936 4.11079 4.37806 4.16932 4.27387 4.2735C4.16968 4.37769 4.11115 4.519 4.11115 4.66634Z" fill="white"/></svg>
