<svg text-rendering="optimizeLegibility" image-rendering="crisp-edges" shape-rendering="crispEdges" width="21" height="20" viewBox="0 0 21 20" fill="none" xmlns="http://www.w3.org/2000/svg"><g clip-path="url(#clip0_890_131545)"><path d="M15.5 13.3998C14.8667 13.3998 14.3 13.6498 13.8667 14.0415L7.925 10.5832C7.96667 10.3915 8 10.1998 8 9.99984C8 9.79984 7.96667 9.60817 7.925 9.4165L13.8 5.9915C14.25 6.40817 14.8417 6.6665 15.5 6.6665C16.8833 6.6665 18 5.54984 18 4.1665C18 2.78317 16.8833 1.6665 15.5 1.6665C14.1167 1.6665 13 2.78317 13 4.1665C13 4.3665 13.0333 4.55817 13.075 4.74984L7.2 8.17484C6.75 7.75817 6.15833 7.49984 5.5 7.49984C4.11667 7.49984 3 8.6165 3 9.99984C3 11.3832 4.11667 12.4998 5.5 12.4998C6.15833 12.4998 6.75 12.2415 7.2 11.8248L13.1333 15.2915C13.0917 15.4665 13.0667 15.6498 13.0667 15.8332C13.0667 17.1748 14.1583 18.2665 15.5 18.2665C16.8417 18.2665 17.9333 17.1748 17.9333 15.8332C17.9333 14.4915 16.8417 13.3998 15.5 13.3998Z" fill="white"/></g><defs><clipPath id="clip0_890_131545"><rect width="20" height="20" fill="white" transform="translate(0.5)"/></clipPath></defs></svg>
