<svg width="24" height="24" viewBox="0 0 24 24" fill="none" xmlns="http://www.w3.org/2000/svg">
<path fill-rule="evenodd" clip-rule="evenodd" d="M10.51 4.938C11.067 4.904 11.478 4.505 11.494 3.947C11.5023 3.64906 11.5023 3.35094 11.494 3.053C11.478 2.495 11.067 2.096 10.5095 2.062C9.98 2.029 9.178 2 8 2C6.822 2 6.02 2.029 5.49 2.062C4.933 2.096 4.522 2.495 4.506 3.053C4.4974 3.35094 4.4974 3.64906 4.506 3.947C4.522 4.505 4.933 4.904 5.4905 4.938C5.7735 4.9555 6.1345 4.972 6.5895 4.9835C6.5475 6.1805 6.5 8.349 6.5 12C6.5 15.651 6.5475 17.8195 6.5895 19.0165C6.1345 19.028 5.7735 19.0445 5.49 19.0615C4.933 19.0965 4.522 19.495 4.506 20.053C4.4974 20.3509 4.4974 20.6491 4.506 20.947C4.522 21.505 4.933 21.9035 5.4905 21.938C6.02 21.971 6.823 22 8 22C9.177 22 9.98 21.971 10.51 21.938C11.067 21.9035 11.478 21.505 11.494 20.947C11.5023 20.6491 11.5023 20.3509 11.494 20.053C11.478 19.495 11.067 19.0965 10.5095 19.062C10.1436 19.0402 9.77741 19.0251 9.411 19.0165C9.4525 17.8195 9.5 15.651 9.5 12C9.5 8.349 9.4525 6.1805 9.411 4.9835C9.77756 4.9748 10.144 4.9593 10.51 4.938ZM11 12C11 9.8665 10.984 8.234 10.962 7.0015C11.298 7.0005 11.644 7 12 7C16.727 7 19.718 7.089 21.253 7.1525C22.2125 7.1925 23.091 7.8175 23.2655 8.84C23.389 9.565 23.5 10.605 23.5 12C23.5 13.395 23.389 14.435 23.265 15.16C23.091 16.1825 22.2125 16.808 21.253 16.8475C19.718 16.911 16.727 17 12 17C11.644 17 11.298 16.9995 10.962 16.9985C10.984 15.766 11 14.1335 11 12ZM5 12C5 14.09 5.0155 15.699 5.037 16.922C4.27348 16.9033 3.51012 16.8784 2.747 16.8475C1.7875 16.8075 0.909 16.1825 0.7345 15.16C0.611 14.435 0.5 13.395 0.5 12C0.5 10.605 0.611 9.565 0.735 8.84C0.909 7.8175 1.7875 7.1925 2.747 7.1525C3.31 7.129 4.0685 7.1025 5.037 7.0775C5.01055 8.7182 4.99821 10.3591 5 12Z" fill="#2A4E14"/>
</svg>
