<svg width="17" height="17" viewBox="0 0 17 17" fill="none" xmlns="http://www.w3.org/2000/svg">
<rect x="0.5" y="0.5" width="16" height="16" rx="8" fill="#477E2D"/>
<path d="M7.65156 10.5C7.6055 10.5 7.56232 10.4925 7.52202 10.4774C7.48171 10.4627 7.44429 10.4374 7.40974 10.4016L5.92428 8.86242C5.86095 8.79679 5.83066 8.71172 5.83343 8.6072C5.83642 8.50292 5.86958 8.41797 5.93292 8.35235C5.99625 8.28673 6.07686 8.25391 6.17474 8.25391C6.27262 8.25391 6.35322 8.28673 6.41656 8.35235L7.65156 9.63199L10.5793 6.59843C10.6426 6.53281 10.7247 6.5 10.8256 6.5C10.9263 6.5 11.0083 6.53281 11.0716 6.59843C11.1349 6.66406 11.1666 6.74901 11.1666 6.85329C11.1666 6.95781 11.1349 7.04288 11.0716 7.1085L7.89338 10.4016C7.85884 10.4374 7.82141 10.4627 7.78111 10.4774C7.74081 10.4925 7.69762 10.5 7.65156 10.5Z" fill="white"/>
</svg>
