<svg text-rendering="optimizeLegibility" image-rendering="crisp-edges" shape-rendering="crispEdges" width="24" height="24" viewBox="0 0 24 24" fill="none" xmlns="http://www.w3.org/2000/svg"><path d="M16.2008 10.0006C16.2008 9.73553 16.127 9.48136 15.9957 9.29395C15.8644 9.10655 15.6863 9.00127 15.5006 9.00127H7.38616L8.99646 6.71288C9.12829 6.52471 9.20236 6.2695 9.20236 6.00338C9.20236 5.73727 9.12829 5.48205 8.99646 5.29388C8.86462 5.10571 8.68581 5 8.49937 5C8.31292 5 8.13411 5.10571 8.00228 5.29388L5.20177 9.29106C5.10462 9.43159 5.03881 9.61003 5.01264 9.80388C4.98648 9.99774 5.00113 10.1983 5.05474 10.3803C5.10726 10.5628 5.19646 10.719 5.31108 10.8293C5.42571 10.9395 5.56063 10.9989 5.69886 10.9999H15.5006C15.6863 10.9999 15.8644 10.8946 15.9957 10.7072C16.127 10.5198 16.2008 10.2656 16.2008 10.0006ZM18.9453 13.618C18.8927 13.4355 18.8035 13.2793 18.6889 13.169C18.5743 13.0588 18.4394 12.9994 18.3011 12.9984H8.49937C8.31368 12.9984 8.1356 13.1037 8.0043 13.2911C7.873 13.4785 7.79924 13.7327 7.79924 13.9977C7.79924 14.2628 7.873 14.5169 8.0043 14.7043C8.1356 14.8917 8.31368 14.997 8.49937 14.997H16.6138L15.0035 17.2854C14.9379 17.3783 14.8858 17.4888 14.8503 17.6106C14.8147 17.7324 14.7964 17.863 14.7964 17.9949C14.7964 18.1268 14.8147 18.2574 14.8503 18.3792C14.8858 18.501 14.9379 18.6115 15.0035 18.7044C15.0686 18.7981 15.1461 18.8724 15.2314 18.9231C15.3167 18.9739 15.4082 19 15.5006 19C15.5931 19 15.6846 18.9739 15.7699 18.9231C15.8552 18.8724 15.9326 18.7981 15.9977 18.7044L18.7982 14.7072C18.8954 14.5667 18.9612 14.3883 18.9874 14.1944C19.0135 14.0006 18.9989 13.8 18.9453 13.618Z" fill="#22221B"/></svg>
